<svg xmlns="http://www.w3.org/2000/svg" width="24" height="26" viewBox="0 0 24 26" fill="none">
  <path fill-rule="evenodd" clip-rule="evenodd" d="M17.2477 0.5H6.75233C1.80833 0.5 0 2.38368 0 7.53371V18.4665C0 23.6164 1.80833 25.5 6.75233 25.5H17.2444C22.1884 25.5 24 23.6164 24 18.4665V7.53371C24 2.38368 22.1917 0.5 17.2477 0.5Z" fill="white"/>
  <path d="M10.6778 14.7111H11.6129L11.1439 13.5413L10.6778 14.7111ZM10.4476 15.3008L10.1703 15.9815H9.53881L10.8818 12.7139H11.4274L12.7649 15.9815H12.1165L11.8426 15.3008H10.4476ZM20.609 15.9793H21.2194V12.7139H20.609V15.9793ZM18.18 14.5761H19.3048V13.9811H18.18V13.3117H19.8129V12.716H17.5699V15.9812H19.8718V15.3857H18.18V14.5761ZM15.755 14.962L15.0629 12.7138H14.5583L13.8662 14.962L13.1927 12.7154H12.5345L13.5969 15.9831H14.1089L14.802 13.8366L15.4948 15.9831H16.0114L17.0712 12.7154H16.4299L15.755 14.962ZM8.60718 14.5852C8.60718 15.1168 8.36102 15.4008 7.9141 15.4008C7.46472 15.4008 7.21733 15.1087 7.21733 14.5625V12.7157H6.59885V14.5852C6.59885 15.5049 7.07522 16.0322 7.90575 16.0322C8.74437 16.0322 9.2254 15.4948 9.2254 14.5582V12.7138H8.60718V14.5852ZM5.1231 12.7139H5.74133V15.9833H5.1231V14.6556H3.72638V15.9833H3.10791V12.7139H3.72638V14.0328H5.1231V12.7139Z" fill="#25B679"/>
  <path d="M12.1639 8.55127C10.024 8.55127 8.28296 6.68391 8.28296 4.38883H8.83124C8.83124 6.35972 10.3261 7.96325 12.1639 7.96325C14.0016 7.96325 15.4965 6.35972 15.4965 4.38883H16.0448C16.0448 6.68391 14.3038 8.55127 12.1639 8.55127Z" fill="#25B679"/>
</svg>