<svg xmlns="http://www.w3.org/2000/svg" width="23" height="26" viewBox="0 0 23 26" fill="none">
  <path d="M18.6248 13.8185L18.6248 13.8185L18.6248 13.8274C18.6275 16.1759 20.0792 18.3284 22.264 19.3955C21.8507 20.4665 21.2793 21.4828 20.5642 22.4154L20.5596 22.4214L20.5552 22.4274C19.9713 23.2308 19.4132 23.9664 18.7812 24.5092C18.1624 25.0406 17.5019 25.3614 16.7093 25.3732L16.7056 25.3733C15.9042 25.3903 15.377 25.1838 14.7267 24.9292L14.7039 24.9203C14.0255 24.6546 13.2457 24.3569 12.0561 24.3569C10.8642 24.3569 10.0743 24.6325 9.3829 24.8981C9.33687 24.9158 9.29154 24.9333 9.24677 24.9506C8.63071 25.1886 8.1219 25.3851 7.38848 25.4133C6.67504 25.4374 6.00303 25.1111 5.32803 24.5285C4.64981 23.943 4.03235 23.1548 3.42724 22.3591C2.27637 20.8119 1.24494 18.6174 0.807329 16.3355C0.36895 14.0495 0.538378 11.7477 1.68803 9.91712L1.6881 9.91716L1.69313 9.90883C2.75008 8.16203 4.79702 7.00092 7.01329 6.934C7.81508 6.91951 8.61235 7.16906 9.40761 7.45792C9.50649 7.49384 9.6067 7.53086 9.70723 7.568C9.99565 7.67456 10.2867 7.7821 10.5568 7.86736C10.9214 7.98244 11.3094 8.07817 11.6837 8.07817C12.064 8.07817 12.4828 7.96137 12.8747 7.83131C13.0893 7.76009 13.3398 7.66881 13.5944 7.57605C13.7911 7.50439 13.9902 7.43186 14.177 7.36699C15.1035 7.04535 16.0752 6.78336 17.0319 6.87571L17.0515 6.87761L17.0713 6.87818C18.7211 6.92565 20.3063 7.62602 21.3853 8.73815C19.7036 9.93115 18.6529 11.8149 18.6248 13.8185ZM15.23 3.77474L15.2299 3.77468L15.2231 3.78244C14.4513 4.6653 13.2841 5.25067 12.0428 5.38185C12.1079 4.29157 12.5738 3.21919 13.3699 2.38594L13.3701 2.38576C14.1972 1.51934 15.3088 0.919404 16.5382 0.67522C16.4836 1.80025 16.031 2.89035 15.23 3.77474Z" fill="white" stroke="white" stroke-width="1.17081"/>
</svg>