<svg xmlns="http://www.w3.org/2000/svg" width="29" height="29" viewBox="0 0 29 29" fill="none">
  <path d="M9.3398 14.072C9.3398 11.4925 11.4297 9.40083 14.0085 9.40083C16.5873 9.40083 18.6784 11.4925 18.6784 14.072C18.6784 16.6515 16.5873 18.7432 14.0085 18.7432C11.4297 18.7432 9.3398 16.6515 9.3398 14.072ZM6.81538 14.072C6.81538 18.0459 10.0357 21.2672 14.0085 21.2672C17.9813 21.2672 21.2017 18.0459 21.2017 14.072C21.2017 10.0981 17.9813 6.87679 14.0085 6.87679C10.0357 6.87679 6.81538 10.0981 6.81538 14.072ZM19.8054 6.5915C19.8053 6.92407 19.9037 7.24921 20.0884 7.5258C20.273 7.80239 20.5354 8.01802 20.8425 8.14541C21.1496 8.2728 21.4876 8.30624 21.8137 8.24149C22.1398 8.17674 22.4394 8.01671 22.6746 7.78164C22.9098 7.54658 23.07 7.24703 23.135 6.92088C23.2 6.59472 23.1668 6.25662 23.0397 5.94931C22.9126 5.64201 22.6973 5.37931 22.4209 5.19444C22.1445 5.00956 21.8196 4.91081 21.4871 4.91068H21.4864C21.0408 4.91089 20.6134 5.08802 20.2982 5.40317C19.9831 5.71832 19.8058 6.14572 19.8054 6.5915ZM8.34913 25.4778C6.98337 25.4156 6.24103 25.188 5.74771 24.9958C5.09369 24.7411 4.62704 24.4377 4.13641 23.9477C3.64578 23.4576 3.34208 22.9912 3.08858 22.337C2.89627 21.8438 2.66878 21.101 2.60669 19.7348C2.53878 18.2578 2.52522 17.8141 2.52522 14.0721C2.52522 10.3301 2.5399 9.88768 2.60669 8.40942C2.66889 7.04326 2.89807 6.30195 3.08858 5.80725C3.3432 5.15304 3.64645 4.68626 4.13641 4.19548C4.62637 3.70471 5.09257 3.40092 5.74771 3.14735C6.24081 2.95499 6.98337 2.72743 8.34913 2.66532C9.82573 2.59739 10.2693 2.58383 14.0085 2.58383C17.7478 2.58383 18.1918 2.59851 19.6696 2.66532C21.0354 2.72754 21.7765 2.95678 22.271 3.14735C22.925 3.40092 23.3917 3.70538 23.8823 4.19548C24.3729 4.68558 24.6755 5.15304 24.9301 5.80725C25.1225 6.30049 25.3499 7.04326 25.412 8.40942C25.4799 9.88768 25.4935 10.3301 25.4935 14.0721C25.4935 17.8141 25.4799 18.2566 25.412 19.7348C25.3498 21.101 25.1212 21.8435 24.9301 22.337C24.6755 22.9912 24.3723 23.458 23.8823 23.9477C23.3924 24.4373 22.925 24.7411 22.271 24.9958C21.7779 25.1881 21.0354 25.4157 19.6696 25.4778C18.193 25.5457 17.7494 25.5593 14.0085 25.5593C10.2676 25.5593 9.82528 25.5457 8.34913 25.4778ZM8.23314 0.14443C6.74186 0.212362 5.72283 0.448892 4.83291 0.79528C3.91127 1.15299 3.13106 1.63289 2.3514 2.41153C1.57175 3.19017 1.09323 3.97184 0.735619 4.89375C0.389331 5.78449 0.15287 6.80326 0.0849569 8.29496C0.0159235 9.78903 0.00012207 10.2667 0.00012207 14.072C0.00012207 17.8773 0.0159235 18.355 0.0849569 19.8491C0.15287 21.3409 0.389331 22.3595 0.735619 23.2503C1.09323 24.1716 1.57186 24.9542 2.3514 25.7325C3.13094 26.5108 3.91127 26.99 4.83291 27.3488C5.72451 27.6951 6.74186 27.9317 8.23314 27.9996C9.72756 28.0675 10.2043 28.0845 14.0085 28.0845C17.8128 28.0845 18.2903 28.0687 19.7839 27.9996C21.2753 27.9317 22.2936 27.6951 23.1841 27.3488C24.1052 26.99 24.886 26.5111 25.6656 25.7325C26.4453 24.9539 26.9228 24.1716 27.2814 23.2503C27.6277 22.3595 27.8653 21.3408 27.9321 19.8491C28 18.3539 28.0158 17.8773 28.0158 14.072C28.0158 10.2667 28 9.78903 27.9321 8.29496C27.8642 6.80314 27.6277 5.78393 27.2814 4.89375C26.9228 3.97241 26.4441 3.19141 25.6656 2.41153C24.8872 1.63165 24.1052 1.15299 23.1853 0.79528C22.2937 0.448892 21.2752 0.211241 19.785 0.14443C18.2914 0.0764973 17.8139 0.0595703 14.0096 0.0595703C10.2054 0.0595703 9.72756 0.0753764 8.23314 0.14443Z" fill="#25B679"/>
  <path d="M9.3398 14.072C9.3398 11.4925 11.4297 9.40083 14.0085 9.40083C16.5873 9.40083 18.6784 11.4925 18.6784 14.072C18.6784 16.6515 16.5873 18.7432 14.0085 18.7432C11.4297 18.7432 9.3398 16.6515 9.3398 14.072ZM6.81538 14.072C6.81538 18.0459 10.0357 21.2672 14.0085 21.2672C17.9813 21.2672 21.2017 18.0459 21.2017 14.072C21.2017 10.0981 17.9813 6.87679 14.0085 6.87679C10.0357 6.87679 6.81538 10.0981 6.81538 14.072ZM19.8054 6.5915C19.8053 6.92407 19.9037 7.24921 20.0884 7.5258C20.273 7.80239 20.5354 8.01802 20.8425 8.14541C21.1496 8.2728 21.4876 8.30624 21.8137 8.24149C22.1398 8.17674 22.4394 8.01671 22.6746 7.78164C22.9098 7.54658 23.07 7.24703 23.135 6.92088C23.2 6.59472 23.1668 6.25662 23.0397 5.94931C22.9126 5.64201 22.6973 5.37931 22.4209 5.19444C22.1445 5.00956 21.8196 4.91081 21.4871 4.91068H21.4864C21.0408 4.91089 20.6134 5.08802 20.2982 5.40317C19.9831 5.71832 19.8058 6.14572 19.8054 6.5915ZM8.34913 25.4778C6.98337 25.4156 6.24103 25.188 5.74771 24.9958C5.09369 24.7411 4.62704 24.4377 4.13641 23.9477C3.64578 23.4576 3.34208 22.9912 3.08858 22.337C2.89627 21.8438 2.66878 21.101 2.60669 19.7348C2.53878 18.2578 2.52522 17.8141 2.52522 14.0721C2.52522 10.3301 2.5399 9.88768 2.60669 8.40942C2.66889 7.04326 2.89807 6.30195 3.08858 5.80725C3.3432 5.15304 3.64645 4.68626 4.13641 4.19548C4.62637 3.70471 5.09257 3.40092 5.74771 3.14735C6.24081 2.95499 6.98337 2.72743 8.34913 2.66532C9.82573 2.59739 10.2693 2.58383 14.0085 2.58383C17.7478 2.58383 18.1918 2.59851 19.6696 2.66532C21.0354 2.72754 21.7765 2.95678 22.271 3.14735C22.925 3.40092 23.3917 3.70538 23.8823 4.19548C24.3729 4.68558 24.6755 5.15304 24.9301 5.80725C25.1225 6.30049 25.3499 7.04326 25.412 8.40942C25.4799 9.88768 25.4935 10.3301 25.4935 14.0721C25.4935 17.8141 25.4799 18.2566 25.412 19.7348C25.3498 21.101 25.1212 21.8435 24.9301 22.337C24.6755 22.9912 24.3723 23.458 23.8823 23.9477C23.3924 24.4373 22.925 24.7411 22.271 24.9958C21.7779 25.1881 21.0354 25.4157 19.6696 25.4778C18.193 25.5457 17.7494 25.5593 14.0085 25.5593C10.2676 25.5593 9.82528 25.5457 8.34913 25.4778ZM8.23314 0.14443C6.74186 0.212362 5.72283 0.448892 4.83291 0.79528C3.91127 1.15299 3.13106 1.63289 2.3514 2.41153C1.57175 3.19017 1.09323 3.97184 0.735619 4.89375C0.389331 5.78449 0.15287 6.80326 0.0849569 8.29496C0.0159235 9.78903 0.00012207 10.2667 0.00012207 14.072C0.00012207 17.8773 0.0159235 18.355 0.0849569 19.8491C0.15287 21.3409 0.389331 22.3595 0.735619 23.2503C1.09323 24.1716 1.57186 24.9542 2.3514 25.7325C3.13094 26.5108 3.91127 26.99 4.83291 27.3488C5.72451 27.6951 6.74186 27.9317 8.23314 27.9996C9.72756 28.0675 10.2043 28.0845 14.0085 28.0845C17.8128 28.0845 18.2903 28.0687 19.7839 27.9996C21.2753 27.9317 22.2936 27.6951 23.1841 27.3488C24.1052 26.99 24.886 26.5111 25.6656 25.7325C26.4453 24.9539 26.9228 24.1716 27.2814 23.2503C27.6277 22.3595 27.8653 21.3408 27.9321 19.8491C28 18.3539 28.0158 17.8773 28.0158 14.072C28.0158 10.2667 28 9.78903 27.9321 8.29496C27.8642 6.80314 27.6277 5.78393 27.2814 4.89375C26.9228 3.97241 26.4441 3.19141 25.6656 2.41153C24.8872 1.63165 24.1052 1.15299 23.1853 0.79528C22.2937 0.448892 21.2752 0.211241 19.785 0.14443C18.2914 0.0764973 17.8139 0.0595703 14.0096 0.0595703C10.2054 0.0595703 9.72756 0.0753764 8.23314 0.14443Z" fill="#25B679"/>
</svg>