<svg xmlns="http://www.w3.org/2000/svg" width="30" height="24" viewBox="0 0 30 24" fill="#25B679">
  <path d="M28.8985 3.13388C27.9739 3.53216 27.0018 3.80951 26.0063 3.95906C26.4717 3.8792 27.1566 3.04071 27.4292 2.70132C27.8433 2.18939 28.1589 1.60497 28.36 0.977763C28.36 0.93118 28.4065 0.864633 28.36 0.83136C28.3365 0.818546 28.3102 0.811831 28.2835 0.811831C28.2568 0.811831 28.2305 0.818546 28.2071 0.83136C27.1261 1.41725 25.9757 1.86442 24.7829 2.1623C24.7414 2.17501 24.6971 2.17615 24.655 2.16559C24.6128 2.15504 24.5743 2.1332 24.5436 2.1024C24.4508 1.99176 24.3508 1.88728 24.2444 1.78963C23.7579 1.35339 23.206 0.996335 22.6088 0.73154C21.8027 0.400521 20.9319 0.257164 20.0623 0.312295C19.2185 0.365631 18.3948 0.592149 17.6422 0.977763C16.9011 1.38431 16.2498 1.93662 15.7273 2.6015C15.1778 3.28584 14.7811 4.08002 14.5638 4.93064C14.3846 5.73975 14.3643 6.576 14.504 7.39287C14.504 7.53262 14.504 7.55258 14.3843 7.53262C9.64371 6.83388 5.75418 5.15024 2.57607 1.53676C2.43645 1.37704 2.36331 1.37704 2.25028 1.53676C0.867342 3.63963 1.53887 6.96697 3.26755 8.61068C3.50025 8.83028 3.73961 9.04323 3.99226 9.24287C3.19967 9.18655 2.42644 8.97157 1.71838 8.61068C1.58541 8.52417 1.51227 8.57075 1.50562 8.73046C1.48678 8.95188 1.48678 9.17451 1.50562 9.39593C1.64435 10.4571 2.06218 11.4623 2.71636 12.3088C3.37055 13.1554 4.23763 13.8128 5.22893 14.2139C5.47059 14.3175 5.72239 14.3956 5.98024 14.4468C5.2465 14.5914 4.49396 14.6139 3.75291 14.5134C3.59333 14.4801 3.5335 14.5666 3.59334 14.7197C4.5707 17.3815 6.69166 18.1934 8.24747 18.6459C8.46023 18.6792 8.67299 18.6792 8.91235 18.7324C8.91235 18.7324 8.91235 18.7324 8.87245 18.7724C8.41369 19.6109 6.55868 20.1765 5.70764 20.4693C4.15427 21.0278 2.49809 21.2412 0.854044 21.0948C0.594742 21.0549 0.534903 21.0616 0.468416 21.0948C0.401928 21.1281 0.468416 21.2013 0.541552 21.2679C0.87399 21.4875 1.20643 21.6805 1.55216 21.8668C2.58142 22.4287 3.66956 22.875 4.79676 23.1977C10.6344 24.8082 17.2034 23.6236 21.5849 19.2648C25.029 15.8443 26.239 11.1261 26.239 6.40132C26.239 6.22165 26.4584 6.11517 26.5848 6.02201C27.4561 5.34249 28.2243 4.54 28.8653 3.63963C28.9763 3.50542 29.0332 3.33454 29.0249 3.1605C29.0249 3.06068 29.0249 3.08064 28.8985 3.13388Z" />
</svg>