<svg xmlns="http://www.w3.org/2000/svg" width="110" height="110" viewBox="0 0 110 110" fill="none">
  <g clip-path="url(#clip0_130_16)">
    <path d="M102 0H8C3.58172 0 0 3.58172 0 8V102C0 106.418 3.58172 110 8 110H102C106.418 110 110 106.418 110 102V8C110 3.58172 106.418 0 102 0Z" fill="white"/>
    <path d="M10.8485 8H8V10.8485H10.8485V8Z" fill="#040303"/>
    <path d="M13.697 8H10.8485V10.8485H13.697V8Z" fill="#040303"/>
    <path d="M16.5455 8H13.697V10.8485H16.5455V8Z" fill="#040303"/>
    <path d="M19.3939 8H16.5455V10.8485H19.3939V8Z" fill="#040303"/>
    <path d="M22.2424 8H19.3939V10.8485H22.2424V8Z" fill="#040303"/>
    <path d="M25.0909 8H22.2424V10.8485H25.0909V8Z" fill="#040303"/>
    <path d="M27.9394 8H25.0909V10.8485H27.9394V8Z" fill="#040303"/>
    <path d="M33.6364 8H30.7879V10.8485H33.6364V8Z" fill="#040303"/>
    <path d="M36.4848 8H33.6364V10.8485H36.4848V8Z" fill="#040303"/>
    <path d="M42.1818 8H39.3333V10.8485H42.1818V8Z" fill="#040303"/>
    <path d="M45.0303 8H42.1818V10.8485H45.0303V8Z" fill="#040303"/>
    <path d="M47.8788 8H45.0303V10.8485H47.8788V8Z" fill="#040303"/>
    <path d="M62.1212 8H59.2727V10.8485H62.1212V8Z" fill="#040303"/>
    <path d="M70.6667 8H67.8182V10.8485H70.6667V8Z" fill="#040303"/>
    <path d="M73.5152 8H70.6667V10.8485H73.5152V8Z" fill="#040303"/>
    <path d="M76.3636 8H73.5152V10.8485H76.3636V8Z" fill="#040303"/>
    <path d="M79.2121 8H76.3636V10.8485H79.2121V8Z" fill="#040303"/>
    <path d="M84.9091 8H82.0606V10.8485H84.9091V8Z" fill="#040303"/>
    <path d="M87.7576 8H84.9091V10.8485H87.7576V8Z" fill="#040303"/>
    <path d="M90.6061 8H87.7576V10.8485H90.6061V8Z" fill="#040303"/>
    <path d="M93.4546 8H90.6061V10.8485H93.4546V8Z" fill="#040303"/>
    <path d="M96.303 8H93.4546V10.8485H96.303V8Z" fill="#040303"/>
    <path d="M99.1515 8H96.303V10.8485H99.1515V8Z" fill="#040303"/>
    <path d="M102 8H99.1515V10.8485H102V8Z" fill="#040303"/>
    <path d="M10.8485 10.8485H8V13.697H10.8485V10.8485Z" fill="#040303"/>
    <path d="M27.9394 10.8485H25.0909V13.697H27.9394V10.8485Z" fill="#040303"/>
    <path d="M36.4848 10.8485H33.6364V13.697H36.4848V10.8485Z" fill="#040303"/>
    <path d="M39.3333 10.8485H36.4848V13.697H39.3333V10.8485Z" fill="#040303"/>
    <path d="M64.9697 10.8485H62.1212L62.1212 13.697H64.9697V10.8485Z" fill="#040303"/>
    <path d="M67.8182 10.8485H64.9697V13.697H67.8182V10.8485Z" fill="#040303"/>
    <path d="M79.2121 10.8485H76.3636V13.697H79.2121V10.8485Z" fill="#040303"/>
    <path d="M84.9091 10.8485H82.0606V13.697H84.9091V10.8485Z" fill="#040303"/>
    <path d="M102 10.8485H99.1515V13.697H102V10.8485Z" fill="#040303"/>
    <path d="M10.8485 13.697H8V16.5455H10.8485V13.697Z" fill="#040303"/>
    <path d="M16.5455 13.697H13.697V16.5455H16.5455V13.697Z" fill="#040303"/>
    <path d="M19.3939 13.697H16.5455V16.5455H19.3939V13.697Z" fill="#040303"/>
    <path d="M22.2424 13.697H19.3939V16.5455H22.2424V13.697Z" fill="#040303"/>
    <path d="M27.9394 13.697H25.0909V16.5455H27.9394V13.697Z" fill="#040303"/>
    <path d="M36.4848 13.697H33.6364V16.5455H36.4848V13.697Z" fill="#040303"/>
    <path d="M42.1818 13.697H39.3333V16.5455H42.1818V13.697Z" fill="#040303"/>
    <path d="M45.0303 13.697H42.1818V16.5455H45.0303V13.697Z" fill="#040303"/>
    <path d="M53.5758 13.697H50.7273V16.5455H53.5758V13.697Z" fill="#040303"/>
    <path d="M56.4242 13.697H53.5758V16.5455H56.4242V13.697Z" fill="#040303"/>
    <path d="M59.2727 13.697H56.4242V16.5455H59.2727V13.697Z" fill="#040303"/>
    <path d="M62.1212 13.697H59.2727V16.5455H62.1212L62.1212 13.697Z" fill="#040303"/>
    <path d="M64.9697 13.697H62.1212L62.1212 16.5455H64.9697V13.697Z" fill="#040303"/>
    <path d="M70.6667 13.697H67.8182V16.5455H70.6667V13.697Z" fill="#040303"/>
    <path d="M79.2121 13.697H76.3636V16.5455H79.2121V13.697Z" fill="#040303"/>
    <path d="M84.9091 13.697H82.0606V16.5455H84.9091V13.697Z" fill="#040303"/>
    <path d="M90.6061 13.697H87.7576V16.5455H90.6061V13.697Z" fill="#040303"/>
    <path d="M93.4546 13.697H90.6061V16.5455H93.4546V13.697Z" fill="#040303"/>
    <path d="M96.303 13.697H93.4546V16.5455H96.303V13.697Z" fill="#040303"/>
    <path d="M102 13.697H99.1515V16.5455H102V13.697Z" fill="#040303"/>
    <path d="M10.8485 16.5455H8V19.3939H10.8485V16.5455Z" fill="#040303"/>
    <path d="M16.5455 16.5455H13.697V19.3939H16.5455V16.5455Z" fill="#040303"/>
    <path d="M19.3939 16.5455H16.5455V19.3939H19.3939V16.5455Z" fill="#040303"/>
    <path d="M22.2424 16.5455H19.3939V19.3939H22.2424V16.5455Z" fill="#040303"/>
    <path d="M27.9394 16.5455H25.0909V19.3939H27.9394V16.5455Z" fill="#040303"/>
    <path d="M33.6364 16.5455H30.7879V19.3939H33.6364V16.5455Z" fill="#040303"/>
    <path d="M36.4848 16.5455H33.6364V19.3939H36.4848V16.5455Z" fill="#040303"/>
    <path d="M42.1818 16.5455H39.3333V19.3939H42.1818V16.5455Z" fill="#040303"/>
    <path d="M50.7273 16.5455H47.8788V19.3939H50.7273V16.5455Z" fill="#040303"/>
    <path d="M59.2727 16.5455H56.4242V19.3939H59.2727V16.5455Z" fill="#040303"/>
    <path d="M73.5152 16.5455H70.6667V19.3939H73.5152V16.5455Z" fill="#040303"/>
    <path d="M76.3636 16.5455H73.5152V19.3939H76.3636V16.5455Z" fill="#040303"/>
    <path d="M79.2121 16.5455H76.3636V19.3939H79.2121V16.5455Z" fill="#040303"/>
    <path d="M84.9091 16.5455H82.0606V19.3939H84.9091V16.5455Z" fill="#040303"/>
    <path d="M90.6061 16.5455H87.7576V19.3939H90.6061V16.5455Z" fill="#040303"/>
    <path d="M93.4546 16.5455H90.6061V19.3939H93.4546V16.5455Z" fill="#040303"/>
    <path d="M96.303 16.5455H93.4546V19.3939H96.303V16.5455Z" fill="#040303"/>
    <path d="M102 16.5455H99.1515V19.3939H102V16.5455Z" fill="#040303"/>
    <path d="M10.8485 19.3939H8V22.2424H10.8485V19.3939Z" fill="#040303"/>
    <path d="M16.5455 19.3939H13.697V22.2424H16.5455V19.3939Z" fill="#040303"/>
    <path d="M19.3939 19.3939H16.5455V22.2424H19.3939V19.3939Z" fill="#040303"/>
    <path d="M22.2424 19.3939H19.3939V22.2424H22.2424V19.3939Z" fill="#040303"/>
    <path d="M27.9394 19.3939H25.0909V22.2424H27.9394V19.3939Z" fill="#040303"/>
    <path d="M33.6364 19.3939H30.7879V22.2424H33.6364V19.3939Z" fill="#040303"/>
    <path d="M39.3333 19.3939H36.4848V22.2424H39.3333V19.3939Z" fill="#040303"/>
    <path d="M47.8788 19.3939H45.0303V22.2424H47.8788V19.3939Z" fill="#040303"/>
    <path d="M56.4242 19.3939H53.5758V22.2424H56.4242V19.3939Z" fill="#040303"/>
    <path d="M62.1212 19.3939H59.2727V22.2424H62.1212V19.3939Z" fill="#040303"/>
    <path d="M64.9697 19.3939H62.1212V22.2424H64.9697V19.3939Z" fill="#040303"/>
    <path d="M67.8182 19.3939H64.9697V22.2424H67.8182V19.3939Z" fill="#040303"/>
    <path d="M70.6667 19.3939H67.8182V22.2424H70.6667V19.3939Z" fill="#040303"/>
    <path d="M76.3636 19.3939H73.5152V22.2424H76.3636V19.3939Z" fill="#040303"/>
    <path d="M84.9091 19.3939H82.0606V22.2424H84.9091V19.3939Z" fill="#040303"/>
    <path d="M90.6061 19.3939H87.7576V22.2424H90.6061V19.3939Z" fill="#040303"/>
    <path d="M93.4546 19.3939H90.6061V22.2424H93.4546V19.3939Z" fill="#040303"/>
    <path d="M96.303 19.3939H93.4546V22.2424H96.303V19.3939Z" fill="#040303"/>
    <path d="M102 19.3939H99.1515V22.2424H102V19.3939Z" fill="#040303"/>
    <path d="M10.8485 22.2424H8V25.0909H10.8485V22.2424Z" fill="#040303"/>
    <path d="M27.9394 22.2424H25.0909V25.0909H27.9394V22.2424Z" fill="#040303"/>
    <path d="M33.6364 22.2424H30.7879V25.0909H33.6364V22.2424Z" fill="#040303"/>
    <path d="M42.1818 22.2424H39.3333V25.0909H42.1818V22.2424Z" fill="#040303"/>
    <path d="M67.8182 22.2424H64.9697V25.0909H67.8182V22.2424Z" fill="#040303"/>
    <path d="M70.6667 22.2424H67.8182V25.0909H70.6667V22.2424Z" fill="#040303"/>
    <path d="M73.5152 22.2424H70.6667V25.0909H73.5152V22.2424Z" fill="#040303"/>
    <path d="M84.9091 22.2424H82.0606V25.0909H84.9091V22.2424Z" fill="#040303"/>
    <path d="M102 22.2424H99.1515V25.0909H102V22.2424Z" fill="#040303"/>
    <path d="M10.8485 25.0909H8V27.9394H10.8485V25.0909Z" fill="#040303"/>
    <path d="M13.697 25.0909H10.8485V27.9394H13.697V25.0909Z" fill="#040303"/>
    <path d="M16.5455 25.0909H13.697V27.9394H16.5455V25.0909Z" fill="#040303"/>
    <path d="M19.3939 25.0909H16.5455V27.9394H19.3939V25.0909Z" fill="#040303"/>
    <path d="M22.2424 25.0909H19.3939V27.9394H22.2424V25.0909Z" fill="#040303"/>
    <path d="M25.0909 25.0909H22.2424V27.9394H25.0909V25.0909Z" fill="#040303"/>
    <path d="M27.9394 25.0909H25.0909V27.9394H27.9394V25.0909Z" fill="#040303"/>
    <path d="M33.6364 25.0909H30.7879V27.9394H33.6364V25.0909Z" fill="#040303"/>
    <path d="M39.3333 25.0909H36.4848V27.9394H39.3333V25.0909Z" fill="#040303"/>
    <path d="M45.0303 25.0909H42.1818V27.9394H45.0303V25.0909Z" fill="#040303"/>
    <path d="M50.7273 25.0909H47.8788V27.9394H50.7273V25.0909Z" fill="#040303"/>
    <path d="M56.4242 25.0909H53.5758V27.9394H56.4242V25.0909Z" fill="#040303"/>
    <path d="M62.1212 25.0909H59.2727V27.9394H62.1212V25.0909Z" fill="#040303"/>
    <path d="M67.8182 25.0909H64.9697V27.9394H67.8182V25.0909Z" fill="#040303"/>
    <path d="M73.5152 25.0909H70.6667V27.9394H73.5152V25.0909Z" fill="#040303"/>
    <path d="M79.2121 25.0909H76.3636V27.9394H79.2121V25.0909Z" fill="#040303"/>
    <path d="M84.9091 25.0909H82.0606V27.9394H84.9091V25.0909Z" fill="#040303"/>
    <path d="M87.7576 25.0909H84.9091V27.9394H87.7576V25.0909Z" fill="#040303"/>
    <path d="M90.6061 25.0909H87.7576V27.9394H90.6061V25.0909Z" fill="#040303"/>
    <path d="M93.4546 25.0909H90.6061V27.9394H93.4546V25.0909Z" fill="#040303"/>
    <path d="M96.303 25.0909H93.4546V27.9394H96.303V25.0909Z" fill="#040303"/>
    <path d="M99.1515 25.0909H96.303V27.9394H99.1515V25.0909Z" fill="#040303"/>
    <path d="M102 25.0909H99.1515V27.9394H102V25.0909Z" fill="#040303"/>
    <path d="M33.6364 27.9394H30.7879V30.7879H33.6364V27.9394Z" fill="#040303"/>
    <path d="M36.4848 27.9394H33.6364V30.7879H36.4848V27.9394Z" fill="#040303"/>
    <path d="M39.3333 27.9394H36.4848V30.7879H39.3333V27.9394Z" fill="#040303"/>
    <path d="M50.7273 27.9394H47.8788V30.7879H50.7273V27.9394Z" fill="#040303"/>
    <path d="M53.5758 27.9394H50.7273V30.7879H53.5758V27.9394Z" fill="#040303"/>
    <path d="M62.1212 27.9394H59.2727V30.7879H62.1212V27.9394Z" fill="#040303"/>
    <path d="M64.9697 27.9394H62.1212V30.7879H64.9697V27.9394Z" fill="#040303"/>
    <path d="M70.6667 27.9394H67.8182V30.7879H70.6667V27.9394Z" fill="#040303"/>
    <path d="M73.5152 27.9394H70.6667V30.7879H73.5152V27.9394Z" fill="#040303"/>
    <path d="M10.8485 30.7879H8V33.6364H10.8485V30.7879Z" fill="#040303"/>
    <path d="M13.697 30.7879H10.8485V33.6364H13.697V30.7879Z" fill="#040303"/>
    <path d="M16.5455 30.7879H13.697V33.6364H16.5455V30.7879Z" fill="#040303"/>
    <path d="M22.2424 30.7879H19.3939V33.6364H22.2424V30.7879Z" fill="#040303"/>
    <path d="M27.9394 30.7879H25.0909V33.6364H27.9394V30.7879Z" fill="#040303"/>
    <path d="M33.6364 30.7879H30.7879V33.6364H33.6364V30.7879Z" fill="#040303"/>
    <path d="M39.3333 30.7879H36.4848V33.6364H39.3333V30.7879Z" fill="#040303"/>
    <path d="M42.1818 30.7879H39.3333V33.6364H42.1818V30.7879Z" fill="#040303"/>
    <path d="M47.8788 30.7879H45.0303V33.6364H47.8788V30.7879Z" fill="#040303"/>
    <path d="M53.5758 30.7879H50.7273V33.6364H53.5758V30.7879Z" fill="#040303"/>
    <path d="M56.4242 30.7879H53.5758V33.6364H56.4242V30.7879Z" fill="#040303"/>
    <path d="M70.6667 30.7879H67.8182V33.6364H70.6667V30.7879Z" fill="#040303"/>
    <path d="M76.3636 30.7879H73.5152V33.6364H76.3636V30.7879Z" fill="#040303"/>
    <path d="M82.0606 30.7879H79.2121V33.6364H82.0606V30.7879Z" fill="#040303"/>
    <path d="M84.9091 30.7879H82.0606V33.6364H84.9091V30.7879Z" fill="#040303"/>
    <path d="M87.7576 30.7879H84.9091V33.6364H87.7576V30.7879Z" fill="#040303"/>
    <path d="M90.6061 30.7879H87.7576V33.6364H90.6061V30.7879Z" fill="#040303"/>
    <path d="M93.4546 30.7879H90.6061V33.6364H93.4546V30.7879Z" fill="#040303"/>
    <path d="M102 30.7879H99.1515V33.6364H102V30.7879Z" fill="#040303"/>
    <path d="M10.8485 33.6364H8V36.4848H10.8485V33.6364Z" fill="#040303"/>
    <path d="M19.3939 33.6364H16.5455V36.4848H19.3939V33.6364Z" fill="#040303"/>
    <path d="M22.2424 33.6364H19.3939V36.4848H22.2424V33.6364Z" fill="#040303"/>
    <path d="M25.0909 33.6364H22.2424V36.4848H25.0909V33.6364Z" fill="#040303"/>
    <path d="M33.6364 33.6364H30.7879V36.4848H33.6364V33.6364Z" fill="#040303"/>
    <path d="M36.4848 33.6364H33.6364V36.4848H36.4848V33.6364Z" fill="#040303"/>
    <path d="M39.3333 33.6364H36.4848V36.4848H39.3333V33.6364Z" fill="#040303"/>
    <path d="M42.1818 33.6364H39.3333V36.4848H42.1818V33.6364Z" fill="#040303"/>
    <path d="M45.0303 33.6364H42.1818V36.4848H45.0303V33.6364Z" fill="#040303"/>
    <path d="M53.5758 33.6364H50.7273V36.4848H53.5758V33.6364Z" fill="#040303"/>
    <path d="M56.4242 33.6364H53.5758V36.4848H56.4242V33.6364Z" fill="#040303"/>
    <path d="M59.2727 33.6364H56.4242V36.4848H59.2727V33.6364Z" fill="#040303"/>
    <path d="M64.9697 33.6364H62.1212V36.4848H64.9697V33.6364Z" fill="#040303"/>
    <path d="M67.8182 33.6364H64.9697V36.4848H67.8182V33.6364Z" fill="#040303"/>
    <path d="M70.6667 33.6364H67.8182V36.4848H70.6667V33.6364Z" fill="#040303"/>
    <path d="M76.3636 33.6364H73.5152V36.4848H76.3636V33.6364Z" fill="#040303"/>
    <path d="M82.0606 33.6364H79.2121V36.4848H82.0606V33.6364Z" fill="#040303"/>
    <path d="M87.7576 33.6364H84.9091V36.4848H87.7576V33.6364Z" fill="#040303"/>
    <path d="M90.6061 33.6364H87.7576V36.4848H90.6061V33.6364Z" fill="#040303"/>
    <path d="M96.303 33.6364H93.4546V36.4848H96.303V33.6364Z" fill="#040303"/>
    <path d="M102 33.6364H99.1515V36.4848H102V33.6364Z" fill="#040303"/>
    <path d="M13.697 36.4848H10.8485V39.3333H13.697V36.4848Z" fill="#040303"/>
    <path d="M16.5455 36.4848H13.697V39.3333H16.5455V36.4848Z" fill="#040303"/>
    <path d="M22.2424 36.4848H19.3939V39.3333H22.2424V36.4848Z" fill="#040303"/>
    <path d="M25.0909 36.4848H22.2424V39.3333H25.0909V36.4848Z" fill="#040303"/>
    <path d="M27.9394 36.4848H25.0909V39.3333H27.9394V36.4848Z" fill="#040303"/>
    <path d="M36.4848 36.4848H33.6364V39.3333H36.4848V36.4848Z" fill="#040303"/>
    <path d="M45.0303 36.4848H42.1818V39.3333H45.0303V36.4848Z" fill="#040303"/>
    <path d="M47.8788 36.4848H45.0303V39.3333H47.8788V36.4848Z" fill="#040303"/>
    <path d="M50.7273 36.4848H47.8788V39.3333H50.7273V36.4848Z" fill="#040303"/>
    <path d="M56.4242 36.4848H53.5758V39.3333H56.4242V36.4848Z" fill="#040303"/>
    <path d="M59.2727 36.4848H56.4242V39.3333H59.2727V36.4848Z" fill="#040303"/>
    <path d="M70.6667 36.4848H67.8182V39.3333H70.6667V36.4848Z" fill="#040303"/>
    <path d="M73.5152 36.4848H70.6667V39.3333H73.5152V36.4848Z" fill="#040303"/>
    <path d="M79.2121 36.4848H76.3636V39.3333H79.2121V36.4848Z" fill="#040303"/>
    <path d="M84.9091 36.4848H82.0606V39.3333H84.9091V36.4848Z" fill="#040303"/>
    <path d="M10.8485 39.3333H8V42.1818H10.8485V39.3333Z" fill="#040303"/>
    <path d="M13.697 39.3333H10.8485V42.1818H13.697V39.3333Z" fill="#040303"/>
    <path d="M19.3939 39.3333H16.5455V42.1818H19.3939V39.3333Z" fill="#040303"/>
    <path d="M33.6364 39.3333H30.7879V42.1818H33.6364V39.3333Z" fill="#040303"/>
    <path d="M36.4848 39.3333H33.6364V42.1818H36.4848V39.3333Z" fill="#040303"/>
    <path d="M47.8788 39.3333H45.0303V42.1818H47.8788V39.3333Z" fill="#040303"/>
    <path d="M50.7273 39.3333H47.8788V42.1818H50.7273V39.3333Z" fill="#040303"/>
    <path d="M53.5758 39.3333H50.7273V42.1818H53.5758V39.3333Z" fill="#040303"/>
    <path d="M56.4242 39.3333H53.5758V42.1818H56.4242V39.3333Z" fill="#040303"/>
    <path d="M59.2727 39.3333H56.4242V42.1818H59.2727V39.3333Z" fill="#040303"/>
    <path d="M70.6667 39.3333H67.8182V42.1818H70.6667V39.3333Z" fill="#040303"/>
    <path d="M76.3636 39.3333H73.5152V42.1818H76.3636V39.3333Z" fill="#040303"/>
    <path d="M82.0606 39.3333H79.2121V42.1818H82.0606V39.3333Z" fill="#040303"/>
    <path d="M84.9091 39.3333H82.0606V42.1818H84.9091V39.3333Z" fill="#040303"/>
    <path d="M87.7576 39.3333H84.9091V42.1818H87.7576V39.3333Z" fill="#040303"/>
    <path d="M96.303 39.3333H93.4546V42.1818H96.303V39.3333Z" fill="#040303"/>
    <path d="M102 39.3333H99.1515V42.1818H102V39.3333Z" fill="#040303"/>
    <path d="M13.697 42.1818H10.8485V45.0303H13.697V42.1818Z" fill="#040303"/>
    <path d="M16.5455 42.1818H13.697V45.0303H16.5455V42.1818Z" fill="#040303"/>
    <path d="M25.0909 42.1818H22.2424V45.0303H25.0909V42.1818Z" fill="#040303"/>
    <path d="M27.9394 42.1818H25.0909V45.0303H27.9394V42.1818Z" fill="#040303"/>
    <path d="M36.4848 42.1818H33.6364V45.0303H36.4848V42.1818Z" fill="#040303"/>
    <path d="M42.1818 42.1818H39.3333V45.0303H42.1818V42.1818Z" fill="#040303"/>
    <path d="M53.5758 42.1818H50.7273V45.0303H53.5758V42.1818Z" fill="#040303"/>
    <path d="M67.8182 42.1818H64.9697V45.0303H67.8182V42.1818Z" fill="#040303"/>
    <path d="M70.6667 42.1818H67.8182V45.0303H70.6667V42.1818Z" fill="#040303"/>
    <path d="M73.5152 42.1818H70.6667V45.0303H73.5152V42.1818Z" fill="#040303"/>
    <path d="M79.2121 42.1818H76.3636V45.0303H79.2121V42.1818Z" fill="#040303"/>
    <path d="M87.7576 42.1818H84.9091V45.0303H87.7576V42.1818Z" fill="#040303"/>
    <path d="M90.6061 42.1818H87.7576V45.0303H90.6061V42.1818Z" fill="#040303"/>
    <path d="M93.4546 42.1818H90.6061V45.0303H93.4546V42.1818Z" fill="#040303"/>
    <path d="M99.1515 42.1818H96.303V45.0303H99.1515V42.1818Z" fill="#040303"/>
    <path d="M102 42.1818H99.1515V45.0303H102V42.1818Z" fill="#040303"/>
    <path d="M22.2424 45.0303H19.3939V47.8788H22.2424V45.0303Z" fill="#040303"/>
    <path d="M25.0909 45.0303H22.2424V47.8788H25.0909V45.0303Z" fill="#040303"/>
    <path d="M30.7879 45.0303H27.9394V47.8788H30.7879V45.0303Z" fill="#040303"/>
    <path d="M45.0303 45.0303H42.1818V47.8788H45.0303V45.0303Z" fill="#040303"/>
    <path d="M47.8788 45.0303H45.0303V47.8788H47.8788V45.0303Z" fill="#040303"/>
    <path d="M59.2727 45.0303H56.4242V47.8788H59.2727V45.0303Z" fill="#040303"/>
    <path d="M62.1212 45.0303H59.2727V47.8788H62.1212V45.0303Z" fill="#040303"/>
    <path d="M67.8182 45.0303H64.9697V47.8788H67.8182V45.0303Z" fill="#040303"/>
    <path d="M70.6667 45.0303H67.8182V47.8788H70.6667V45.0303Z" fill="#040303"/>
    <path d="M82.0606 45.0303H79.2121V47.8788H82.0606V45.0303Z" fill="#040303"/>
    <path d="M84.9091 45.0303H82.0606V47.8788H84.9091V45.0303Z" fill="#040303"/>
    <path d="M87.7576 45.0303H84.9091V47.8788H87.7576V45.0303Z" fill="#040303"/>
    <path d="M90.6061 45.0303H87.7576V47.8788H90.6061V45.0303Z" fill="#040303"/>
    <path d="M93.4546 45.0303H90.6061V47.8788H93.4546V45.0303Z" fill="#040303"/>
    <path d="M99.1515 45.0303H96.303V47.8788H99.1515V45.0303Z" fill="#040303"/>
    <path d="M22.2424 47.8788H19.3939V50.7273H22.2424V47.8788Z" fill="#040303"/>
    <path d="M25.0909 47.8788H22.2424V50.7273H25.0909V47.8788Z" fill="#040303"/>
    <path d="M27.9394 47.8788H25.0909V50.7273H27.9394V47.8788Z" fill="#040303"/>
    <path d="M33.6364 47.8788H30.7879V50.7273H33.6364V47.8788Z" fill="#040303"/>
    <path d="M39.3333 47.8788H36.4848V50.7273H39.3333V47.8788Z" fill="#040303"/>
    <path d="M42.1818 47.8788H39.3333V50.7273H42.1818V47.8788Z" fill="#040303"/>
    <path d="M45.0303 47.8788H42.1818V50.7273H45.0303V47.8788Z" fill="#040303"/>
    <path d="M53.5758 47.8788H50.7273V50.7273H53.5758V47.8788Z" fill="#040303"/>
    <path d="M64.9697 47.8788H62.1212L62.1212 50.7273H64.9697V47.8788Z" fill="#040303"/>
    <path d="M67.8182 47.8788H64.9697V50.7273H67.8182V47.8788Z" fill="#040303"/>
    <path d="M82.0606 47.8788H79.2121V50.7273H82.0606V47.8788Z" fill="#040303"/>
    <path d="M84.9091 47.8788H82.0606V50.7273H84.9091V47.8788Z" fill="#040303"/>
    <path d="M87.7576 47.8788H84.9091V50.7273H87.7576V47.8788Z" fill="#040303"/>
    <path d="M99.1515 47.8788H96.303V50.7273H99.1515V47.8788Z" fill="#040303"/>
    <path d="M102 47.8788H99.1515V50.7273H102V47.8788Z" fill="#040303"/>
    <path d="M16.5455 50.7273H13.697V53.5758H16.5455V50.7273Z" fill="#040303"/>
    <path d="M19.3939 50.7273H16.5455V53.5758H19.3939V50.7273Z" fill="#040303"/>
    <path d="M22.2424 50.7273H19.3939V53.5758H22.2424V50.7273Z" fill="#040303"/>
    <path d="M33.6364 50.7273H30.7879V53.5758H33.6364V50.7273Z" fill="#040303"/>
    <path d="M36.4848 50.7273H33.6364V53.5758H36.4848V50.7273Z" fill="#040303"/>
    <path d="M39.3333 50.7273H36.4848V53.5758H39.3333V50.7273Z" fill="#040303"/>
    <path d="M42.1818 50.7273H39.3333V53.5758H42.1818V50.7273Z" fill="#040303"/>
    <path d="M45.0303 50.7273H42.1818V53.5758H45.0303V50.7273Z" fill="#040303"/>
    <path d="M53.5758 50.7273H50.7273V53.5758H53.5758V50.7273Z" fill="#040303"/>
    <path d="M59.2727 50.7273H56.4242V53.5758H59.2727V50.7273Z" fill="#040303"/>
    <path d="M62.1212 50.7273H59.2727V53.5758H62.1212L62.1212 50.7273Z" fill="#040303"/>
    <path d="M67.8182 50.7273H64.9697V53.5758H67.8182V50.7273Z" fill="#040303"/>
    <path d="M73.5152 50.7273H70.6667V53.5758H73.5152V50.7273Z" fill="#040303"/>
    <path d="M79.2121 50.7273H76.3636V53.5758H79.2121V50.7273Z" fill="#040303"/>
    <path d="M82.0606 50.7273H79.2121V53.5758H82.0606V50.7273Z" fill="#040303"/>
    <path d="M84.9091 50.7273H82.0606V53.5758H84.9091V50.7273Z" fill="#040303"/>
    <path d="M90.6061 50.7273H87.7576V53.5758H90.6061V50.7273Z" fill="#040303"/>
    <path d="M99.1515 50.7273H96.303V53.5758H99.1515V50.7273Z" fill="#040303"/>
    <path d="M10.8485 53.5758H8V56.4242H10.8485V53.5758Z" fill="#040303"/>
    <path d="M16.5455 53.5758H13.697V56.4242H16.5455V53.5758Z" fill="#040303"/>
    <path d="M27.9394 53.5758H25.0909V56.4242H27.9394V53.5758Z" fill="#040303"/>
    <path d="M33.6364 53.5758H30.7879V56.4242H33.6364V53.5758Z" fill="#040303"/>
    <path d="M39.3333 53.5758H36.4848V56.4242H39.3333V53.5758Z" fill="#040303"/>
    <path d="M42.1818 53.5758H39.3333V56.4242H42.1818V53.5758Z" fill="#040303"/>
    <path d="M45.0303 53.5758H42.1818V56.4242H45.0303V53.5758Z" fill="#040303"/>
    <path d="M47.8788 53.5758H45.0303V56.4242H47.8788V53.5758Z" fill="#040303"/>
    <path d="M50.7273 53.5758H47.8788V56.4242H50.7273V53.5758Z" fill="#040303"/>
    <path d="M62.1212 53.5758H59.2727V56.4242H62.1212V53.5758Z" fill="#040303"/>
    <path d="M64.9697 53.5758H62.1212V56.4242H64.9697V53.5758Z" fill="#040303"/>
    <path d="M70.6667 53.5758H67.8182V56.4242H70.6667V53.5758Z" fill="#040303"/>
    <path d="M73.5152 53.5758H70.6667V56.4242H73.5152V53.5758Z" fill="#040303"/>
    <path d="M76.3636 53.5758H73.5152V56.4242H76.3636V53.5758Z" fill="#040303"/>
    <path d="M82.0606 53.5758H79.2121V56.4242H82.0606V53.5758Z" fill="#040303"/>
    <path d="M87.7576 53.5758H84.9091V56.4242H87.7576V53.5758Z" fill="#040303"/>
    <path d="M96.303 53.5758H93.4546V56.4242H96.303V53.5758Z" fill="#040303"/>
    <path d="M99.1515 53.5758H96.303V56.4242H99.1515V53.5758Z" fill="#040303"/>
    <path d="M102 53.5758H99.1515V56.4242H102V53.5758Z" fill="#040303"/>
    <path d="M13.697 56.4242H10.8485V59.2727H13.697V56.4242Z" fill="#040303"/>
    <path d="M16.5455 56.4242H13.697V59.2727H16.5455V56.4242Z" fill="#040303"/>
    <path d="M33.6364 56.4242H30.7879V59.2727H33.6364V56.4242Z" fill="#040303"/>
    <path d="M39.3333 56.4242H36.4848V59.2727H39.3333V56.4242Z" fill="#040303"/>
    <path d="M42.1818 56.4242H39.3333V59.2727H42.1818V56.4242Z" fill="#040303"/>
    <path d="M45.0303 56.4242H42.1818V59.2727H45.0303V56.4242Z" fill="#040303"/>
    <path d="M47.8788 56.4242H45.0303V59.2727H47.8788V56.4242Z" fill="#040303"/>
    <path d="M64.9697 56.4242H62.1212L62.1212 59.2727H64.9697V56.4242Z" fill="#040303"/>
    <path d="M70.6667 56.4242H67.8182V59.2727H70.6667V56.4242Z" fill="#040303"/>
    <path d="M76.3636 56.4242H73.5152V59.2727H76.3636V56.4242Z" fill="#040303"/>
    <path d="M90.6061 56.4242H87.7576V59.2727H90.6061V56.4242Z" fill="#040303"/>
    <path d="M93.4546 56.4242H90.6061V59.2727H93.4546V56.4242Z" fill="#040303"/>
    <path d="M102 56.4242H99.1515V59.2727H102V56.4242Z" fill="#040303"/>
    <path d="M10.8485 59.2727H8V62.1212H10.8485V59.2727Z" fill="#040303"/>
    <path d="M16.5455 59.2727H13.697V62.1212H16.5455V59.2727Z" fill="#040303"/>
    <path d="M22.2424 59.2727H19.3939V62.1212H22.2424V59.2727Z" fill="#040303"/>
    <path d="M27.9394 59.2727H25.0909V62.1212H27.9394V59.2727Z" fill="#040303"/>
    <path d="M36.4848 59.2727H33.6364V62.1212H36.4848V59.2727Z" fill="#040303"/>
    <path d="M39.3333 59.2727H36.4848V62.1212H39.3333V59.2727Z" fill="#040303"/>
    <path d="M45.0303 59.2727H42.1818V62.1212H45.0303V59.2727Z" fill="#040303"/>
    <path d="M56.4242 59.2727H53.5758V62.1212H56.4242V59.2727Z" fill="#040303"/>
    <path d="M59.2727 59.2727H56.4242V62.1212H59.2727V59.2727Z" fill="#040303"/>
    <path d="M64.9697 59.2727H62.1212V62.1212H64.9697V59.2727Z" fill="#040303"/>
    <path d="M70.6667 59.2727H67.8182V62.1212H70.6667V59.2727Z" fill="#040303"/>
    <path d="M84.9091 59.2727H82.0606V62.1212H84.9091V59.2727Z" fill="#040303"/>
    <path d="M90.6061 59.2727H87.7576V62.1212H90.6061V59.2727Z" fill="#040303"/>
    <path d="M13.697 62.1212H10.8485V64.9697H13.697V62.1212Z" fill="#040303"/>
    <path d="M30.7879 62.1212L27.9394 62.1212V64.9697H30.7879V62.1212Z" fill="#040303"/>
    <path d="M33.6364 62.1212L30.7879 62.1212V64.9697H33.6364V62.1212Z" fill="#040303"/>
    <path d="M36.4848 62.1212H33.6364V64.9697H36.4848V62.1212Z" fill="#040303"/>
    <path d="M42.1818 62.1212H39.3333V64.9697H42.1818V62.1212Z" fill="#040303"/>
    <path d="M47.8788 62.1212L45.0303 62.1212V64.9697H47.8788V62.1212Z" fill="#040303"/>
    <path d="M53.5758 62.1212L50.7273 62.1212V64.9697H53.5758V62.1212Z" fill="#040303"/>
    <path d="M56.4242 62.1212H53.5758V64.9697H56.4242V62.1212Z" fill="#040303"/>
    <path d="M59.2727 62.1212H56.4242V64.9697H59.2727V62.1212Z" fill="#040303"/>
    <path d="M62.1212 62.1212H59.2727V64.9697H62.1212L62.1212 62.1212Z" fill="#040303"/>
    <path d="M64.9697 62.1212H62.1212L62.1212 64.9697H64.9697V62.1212Z" fill="#040303"/>
    <path d="M67.8182 62.1212H64.9697V64.9697H67.8182V62.1212Z" fill="#040303"/>
    <path d="M76.3636 62.1212H73.5152V64.9697H76.3636V62.1212Z" fill="#040303"/>
    <path d="M79.2121 62.1212H76.3636V64.9697H79.2121V62.1212Z" fill="#040303"/>
    <path d="M84.9091 62.1212H82.0606V64.9697H84.9091V62.1212Z" fill="#040303"/>
    <path d="M87.7576 62.1212H84.9091V64.9697H87.7576V62.1212Z" fill="#040303"/>
    <path d="M93.4546 62.1212L90.6061 62.1212V64.9697H93.4546V62.1212Z" fill="#040303"/>
    <path d="M96.303 62.1212H93.4546V64.9697H96.303V62.1212Z" fill="#040303"/>
    <path d="M99.1515 62.1212H96.303V64.9697H99.1515V62.1212Z" fill="#040303"/>
    <path d="M102 62.1212H99.1515V64.9697H102V62.1212Z" fill="#040303"/>
    <path d="M22.2424 64.9697H19.3939V67.8182H22.2424V64.9697Z" fill="#040303"/>
    <path d="M25.0909 64.9697H22.2424V67.8182H25.0909V64.9697Z" fill="#040303"/>
    <path d="M27.9394 64.9697H25.0909V67.8182H27.9394V64.9697Z" fill="#040303"/>
    <path d="M30.7879 64.9697H27.9394V67.8182H30.7879V64.9697Z" fill="#040303"/>
    <path d="M39.3333 64.9697H36.4848V67.8182H39.3333V64.9697Z" fill="#040303"/>
    <path d="M42.1818 64.9697H39.3333V67.8182H42.1818V64.9697Z" fill="#040303"/>
    <path d="M45.0303 64.9697H42.1818V67.8182H45.0303V64.9697Z" fill="#040303"/>
    <path d="M56.4242 64.9697H53.5758V67.8182H56.4242V64.9697Z" fill="#040303"/>
    <path d="M70.6667 64.9697H67.8182V67.8182H70.6667V64.9697Z" fill="#040303"/>
    <path d="M79.2121 64.9697H76.3636V67.8182H79.2121V64.9697Z" fill="#040303"/>
    <path d="M87.7576 64.9697H84.9091V67.8182H87.7576V64.9697Z" fill="#040303"/>
    <path d="M93.4546 64.9697H90.6061V67.8182H93.4546V64.9697Z" fill="#040303"/>
    <path d="M99.1515 64.9697H96.303V67.8182H99.1515V64.9697Z" fill="#040303"/>
    <path d="M10.8485 67.8182H8V70.6667H10.8485V67.8182Z" fill="#040303"/>
    <path d="M16.5455 67.8182H13.697V70.6667H16.5455V67.8182Z" fill="#040303"/>
    <path d="M19.3939 67.8182H16.5455V70.6667H19.3939V67.8182Z" fill="#040303"/>
    <path d="M25.0909 67.8182H22.2424V70.6667H25.0909V67.8182Z" fill="#040303"/>
    <path d="M36.4848 67.8182H33.6364V70.6667H36.4848V67.8182Z" fill="#040303"/>
    <path d="M39.3333 67.8182H36.4848V70.6667H39.3333V67.8182Z" fill="#040303"/>
    <path d="M50.7273 67.8182H47.8788V70.6667H50.7273V67.8182Z" fill="#040303"/>
    <path d="M73.5152 67.8182H70.6667V70.6667H73.5152V67.8182Z" fill="#040303"/>
    <path d="M96.303 67.8182H93.4546V70.6667H96.303V67.8182Z" fill="#040303"/>
    <path d="M10.8485 70.6667H8V73.5152H10.8485V70.6667Z" fill="#040303"/>
    <path d="M13.697 70.6667H10.8485V73.5152H13.697V70.6667Z" fill="#040303"/>
    <path d="M16.5455 70.6667H13.697V73.5152H16.5455V70.6667Z" fill="#040303"/>
    <path d="M19.3939 70.6667H16.5455V73.5152H19.3939V70.6667Z" fill="#040303"/>
    <path d="M22.2424 70.6667H19.3939V73.5152H22.2424V70.6667Z" fill="#040303"/>
    <path d="M27.9394 70.6667H25.0909V73.5152H27.9394V70.6667Z" fill="#040303"/>
    <path d="M30.7879 70.6667H27.9394V73.5152H30.7879V70.6667Z" fill="#040303"/>
    <path d="M39.3333 70.6667H36.4848V73.5152H39.3333V70.6667Z" fill="#040303"/>
    <path d="M45.0303 70.6667H42.1818V73.5152H45.0303V70.6667Z" fill="#040303"/>
    <path d="M47.8788 70.6667H45.0303V73.5152H47.8788V70.6667Z" fill="#040303"/>
    <path d="M56.4242 70.6667H53.5758V73.5152H56.4242V70.6667Z" fill="#040303"/>
    <path d="M64.9697 70.6667H62.1212V73.5152H64.9697V70.6667Z" fill="#040303"/>
    <path d="M67.8182 70.6667H64.9697V73.5152H67.8182V70.6667Z" fill="#040303"/>
    <path d="M73.5152 70.6667H70.6667V73.5152H73.5152V70.6667Z" fill="#040303"/>
    <path d="M76.3636 70.6667H73.5152V73.5152H76.3636V70.6667Z" fill="#040303"/>
    <path d="M82.0606 70.6667H79.2121V73.5152H82.0606V70.6667Z" fill="#040303"/>
    <path d="M84.9091 70.6667H82.0606V73.5152H84.9091V70.6667Z" fill="#040303"/>
    <path d="M87.7576 70.6667H84.9091V73.5152H87.7576V70.6667Z" fill="#040303"/>
    <path d="M99.1515 70.6667H96.303V73.5152H99.1515V70.6667Z" fill="#040303"/>
    <path d="M19.3939 73.5152H16.5455V76.3636H19.3939V73.5152Z" fill="#040303"/>
    <path d="M25.0909 73.5152H22.2424V76.3636H25.0909V73.5152Z" fill="#040303"/>
    <path d="M30.7879 73.5152H27.9394V76.3636H30.7879V73.5152Z" fill="#040303"/>
    <path d="M36.4848 73.5152H33.6364V76.3636H36.4848V73.5152Z" fill="#040303"/>
    <path d="M39.3333 73.5152H36.4848V76.3636H39.3333V73.5152Z" fill="#040303"/>
    <path d="M47.8788 73.5152H45.0303V76.3636H47.8788V73.5152Z" fill="#040303"/>
    <path d="M62.1212 73.5152H59.2727V76.3636H62.1212L62.1212 73.5152Z" fill="#040303"/>
    <path d="M64.9697 73.5152H62.1212L62.1212 76.3636H64.9697V73.5152Z" fill="#040303"/>
    <path d="M70.6667 73.5152H67.8182V76.3636H70.6667V73.5152Z" fill="#040303"/>
    <path d="M73.5152 73.5152H70.6667V76.3636H73.5152V73.5152Z" fill="#040303"/>
    <path d="M79.2121 73.5152H76.3636V76.3636H79.2121V73.5152Z" fill="#040303"/>
    <path d="M82.0606 73.5152H79.2121V76.3636H82.0606V73.5152Z" fill="#040303"/>
    <path d="M84.9091 73.5152H82.0606V76.3636H84.9091V73.5152Z" fill="#040303"/>
    <path d="M87.7576 73.5152H84.9091V76.3636H87.7576V73.5152Z" fill="#040303"/>
    <path d="M90.6061 73.5152H87.7576V76.3636H90.6061V73.5152Z" fill="#040303"/>
    <path d="M102 73.5152H99.1515V76.3636H102V73.5152Z" fill="#040303"/>
    <path d="M16.5455 76.3636H13.697V79.2121H16.5455V76.3636Z" fill="#040303"/>
    <path d="M25.0909 76.3636H22.2424V79.2121H25.0909V76.3636Z" fill="#040303"/>
    <path d="M27.9394 76.3636H25.0909V79.2121H27.9394V76.3636Z" fill="#040303"/>
    <path d="M39.3333 76.3636H36.4848V79.2121H39.3333V76.3636Z" fill="#040303"/>
    <path d="M45.0303 76.3636H42.1818V79.2121H45.0303V76.3636Z" fill="#040303"/>
    <path d="M47.8788 76.3636H45.0303V79.2121H47.8788V76.3636Z" fill="#040303"/>
    <path d="M50.7273 76.3636H47.8788V79.2121H50.7273V76.3636Z" fill="#040303"/>
    <path d="M53.5758 76.3636H50.7273V79.2121H53.5758V76.3636Z" fill="#040303"/>
    <path d="M56.4242 76.3636H53.5758V79.2121H56.4242V76.3636Z" fill="#040303"/>
    <path d="M59.2727 76.3636H56.4242V79.2121H59.2727V76.3636Z" fill="#040303"/>
    <path d="M70.6667 76.3636H67.8182V79.2121H70.6667V76.3636Z" fill="#040303"/>
    <path d="M73.5152 76.3636H70.6667V79.2121H73.5152V76.3636Z" fill="#040303"/>
    <path d="M79.2121 76.3636H76.3636V79.2121H79.2121V76.3636Z" fill="#040303"/>
    <path d="M82.0606 76.3636H79.2121V79.2121H82.0606V76.3636Z" fill="#040303"/>
    <path d="M84.9091 76.3636H82.0606V79.2121H84.9091V76.3636Z" fill="#040303"/>
    <path d="M87.7576 76.3636H84.9091V79.2121H87.7576V76.3636Z" fill="#040303"/>
    <path d="M90.6061 76.3636H87.7576V79.2121H90.6061V76.3636Z" fill="#040303"/>
    <path d="M96.303 76.3636H93.4546V79.2121H96.303V76.3636Z" fill="#040303"/>
    <path d="M102 76.3636H99.1515V79.2121H102V76.3636Z" fill="#040303"/>
    <path d="M33.6364 79.2121H30.7879V82.0606H33.6364V79.2121Z" fill="#040303"/>
    <path d="M39.3333 79.2121H36.4848V82.0606H39.3333V79.2121Z" fill="#040303"/>
    <path d="M47.8788 79.2121H45.0303V82.0606H47.8788V79.2121Z" fill="#040303"/>
    <path d="M53.5758 79.2121H50.7273V82.0606H53.5758V79.2121Z" fill="#040303"/>
    <path d="M56.4242 79.2121H53.5758V82.0606H56.4242V79.2121Z" fill="#040303"/>
    <path d="M59.2727 79.2121H56.4242V82.0606H59.2727V79.2121Z" fill="#040303"/>
    <path d="M62.1212 79.2121H59.2727V82.0606H62.1212V79.2121Z" fill="#040303"/>
    <path d="M64.9697 79.2121H62.1212V82.0606H64.9697V79.2121Z" fill="#040303"/>
    <path d="M70.6667 79.2121H67.8182V82.0606H70.6667V79.2121Z" fill="#040303"/>
    <path d="M73.5152 79.2121H70.6667V82.0606H73.5152V79.2121Z" fill="#040303"/>
    <path d="M76.3636 79.2121H73.5152V82.0606H76.3636V79.2121Z" fill="#040303"/>
    <path d="M79.2121 79.2121H76.3636V82.0606H79.2121V79.2121Z" fill="#040303"/>
    <path d="M90.6061 79.2121H87.7576V82.0606H90.6061V79.2121Z" fill="#040303"/>
    <path d="M93.4546 79.2121H90.6061V82.0606H93.4546V79.2121Z" fill="#040303"/>
    <path d="M10.8485 82.0606H8V84.9091H10.8485V82.0606Z" fill="#040303"/>
    <path d="M13.697 82.0606H10.8485V84.9091H13.697V82.0606Z" fill="#040303"/>
    <path d="M16.5455 82.0606H13.697V84.9091H16.5455V82.0606Z" fill="#040303"/>
    <path d="M19.3939 82.0606H16.5455V84.9091H19.3939V82.0606Z" fill="#040303"/>
    <path d="M22.2424 82.0606H19.3939V84.9091H22.2424V82.0606Z" fill="#040303"/>
    <path d="M25.0909 82.0606H22.2424V84.9091H25.0909V82.0606Z" fill="#040303"/>
    <path d="M27.9394 82.0606H25.0909V84.9091H27.9394V82.0606Z" fill="#040303"/>
    <path d="M45.0303 82.0606H42.1818V84.9091H45.0303V82.0606Z" fill="#040303"/>
    <path d="M50.7273 82.0606H47.8788V84.9091H50.7273V82.0606Z" fill="#040303"/>
    <path d="M56.4242 82.0606H53.5758V84.9091H56.4242V82.0606Z" fill="#040303"/>
    <path d="M59.2727 82.0606H56.4242V84.9091H59.2727V82.0606Z" fill="#040303"/>
    <path d="M64.9697 82.0606H62.1212L62.1212 84.9091H64.9697V82.0606Z" fill="#040303"/>
    <path d="M70.6667 82.0606H67.8182V84.9091H70.6667V82.0606Z" fill="#040303"/>
    <path d="M73.5152 82.0606H70.6667V84.9091H73.5152V82.0606Z" fill="#040303"/>
    <path d="M76.3636 82.0606H73.5152V84.9091H76.3636V82.0606Z" fill="#040303"/>
    <path d="M79.2121 82.0606H76.3636V84.9091H79.2121V82.0606Z" fill="#040303"/>
    <path d="M84.9091 82.0606H82.0606V84.9091H84.9091V82.0606Z" fill="#040303"/>
    <path d="M90.6061 82.0606H87.7576V84.9091H90.6061V82.0606Z" fill="#040303"/>
    <path d="M99.1515 82.0606H96.303V84.9091H99.1515V82.0606Z" fill="#040303"/>
    <path d="M10.8485 84.9091H8V87.7576H10.8485V84.9091Z" fill="#040303"/>
    <path d="M27.9394 84.9091H25.0909V87.7576H27.9394V84.9091Z" fill="#040303"/>
    <path d="M42.1818 84.9091H39.3333V87.7576H42.1818V84.9091Z" fill="#040303"/>
    <path d="M45.0303 84.9091H42.1818V87.7576H45.0303V84.9091Z" fill="#040303"/>
    <path d="M47.8788 84.9091H45.0303V87.7576H47.8788V84.9091Z" fill="#040303"/>
    <path d="M53.5758 84.9091H50.7273V87.7576H53.5758V84.9091Z" fill="#040303"/>
    <path d="M56.4242 84.9091H53.5758V87.7576H56.4242V84.9091Z" fill="#040303"/>
    <path d="M62.1212 84.9091H59.2727V87.7576H62.1212L62.1212 84.9091Z" fill="#040303"/>
    <path d="M67.8182 84.9091H64.9697V87.7576H67.8182V84.9091Z" fill="#040303"/>
    <path d="M70.6667 84.9091H67.8182V87.7576H70.6667V84.9091Z" fill="#040303"/>
    <path d="M73.5152 84.9091H70.6667V87.7576H73.5152V84.9091Z" fill="#040303"/>
    <path d="M76.3636 84.9091H73.5152V87.7576H76.3636V84.9091Z" fill="#040303"/>
    <path d="M79.2121 84.9091H76.3636V87.7576H79.2121V84.9091Z" fill="#040303"/>
    <path d="M90.6061 84.9091H87.7576V87.7576H90.6061V84.9091Z" fill="#040303"/>
    <path d="M93.4546 84.9091H90.6061V87.7576H93.4546V84.9091Z" fill="#040303"/>
    <path d="M96.303 84.9091H93.4546V87.7576H96.303V84.9091Z" fill="#040303"/>
    <path d="M99.1515 84.9091H96.303V87.7576H99.1515V84.9091Z" fill="#040303"/>
    <path d="M102 84.9091H99.1515V87.7576H102V84.9091Z" fill="#040303"/>
    <path d="M10.8485 87.7576H8V90.6061H10.8485V87.7576Z" fill="#040303"/>
    <path d="M16.5455 87.7576H13.697V90.6061H16.5455V87.7576Z" fill="#040303"/>
    <path d="M19.3939 87.7576H16.5455V90.6061H19.3939V87.7576Z" fill="#040303"/>
    <path d="M22.2424 87.7576H19.3939V90.6061H22.2424V87.7576Z" fill="#040303"/>
    <path d="M27.9394 87.7576H25.0909V90.6061H27.9394V87.7576Z" fill="#040303"/>
    <path d="M33.6364 87.7576H30.7879V90.6061H33.6364V87.7576Z" fill="#040303"/>
    <path d="M36.4848 87.7576H33.6364V90.6061H36.4848V87.7576Z" fill="#040303"/>
    <path d="M39.3333 87.7576H36.4848V90.6061H39.3333V87.7576Z" fill="#040303"/>
    <path d="M53.5758 87.7576H50.7273V90.6061H53.5758V87.7576Z" fill="#040303"/>
    <path d="M56.4242 87.7576H53.5758V90.6061H56.4242V87.7576Z" fill="#040303"/>
    <path d="M59.2727 87.7576H56.4242V90.6061H59.2727V87.7576Z" fill="#040303"/>
    <path d="M64.9697 87.7576H62.1212L62.1212 90.6061H64.9697V87.7576Z" fill="#040303"/>
    <path d="M67.8182 87.7576H64.9697V90.6061H67.8182V87.7576Z" fill="#040303"/>
    <path d="M70.6667 87.7576H67.8182V90.6061H70.6667V87.7576Z" fill="#040303"/>
    <path d="M73.5152 87.7576H70.6667V90.6061H73.5152V87.7576Z" fill="#040303"/>
    <path d="M79.2121 87.7576H76.3636V90.6061H79.2121V87.7576Z" fill="#040303"/>
    <path d="M82.0606 87.7576H79.2121V90.6061H82.0606V87.7576Z" fill="#040303"/>
    <path d="M84.9091 87.7576H82.0606V90.6061H84.9091V87.7576Z" fill="#040303"/>
    <path d="M87.7576 87.7576H84.9091V90.6061H87.7576V87.7576Z" fill="#040303"/>
    <path d="M90.6061 87.7576H87.7576V90.6061H90.6061V87.7576Z" fill="#040303"/>
    <path d="M96.303 87.7576H93.4546V90.6061H96.303V87.7576Z" fill="#040303"/>
    <path d="M99.1515 87.7576H96.303V90.6061H99.1515V87.7576Z" fill="#040303"/>
    <path d="M102 87.7576H99.1515V90.6061H102V87.7576Z" fill="#040303"/>
    <path d="M10.8485 90.6061H8V93.4546H10.8485V90.6061Z" fill="#040303"/>
    <path d="M16.5455 90.6061H13.697V93.4546H16.5455V90.6061Z" fill="#040303"/>
    <path d="M19.3939 90.6061H16.5455V93.4546H19.3939V90.6061Z" fill="#040303"/>
    <path d="M22.2424 90.6061H19.3939V93.4546H22.2424V90.6061Z" fill="#040303"/>
    <path d="M27.9394 90.6061H25.0909V93.4546H27.9394V90.6061Z" fill="#040303"/>
    <path d="M36.4848 90.6061H33.6364V93.4546H36.4848V90.6061Z" fill="#040303"/>
    <path d="M39.3333 90.6061H36.4848V93.4546H39.3333V90.6061Z" fill="#040303"/>
    <path d="M47.8788 90.6061H45.0303V93.4546H47.8788V90.6061Z" fill="#040303"/>
    <path d="M50.7273 90.6061H47.8788V93.4546H50.7273V90.6061Z" fill="#040303"/>
    <path d="M62.1212 90.6061H59.2727V93.4546H62.1212L62.1212 90.6061Z" fill="#040303"/>
    <path d="M64.9697 90.6061H62.1212L62.1212 93.4546H64.9697V90.6061Z" fill="#040303"/>
    <path d="M67.8182 90.6061H64.9697V93.4546H67.8182V90.6061Z" fill="#040303"/>
    <path d="M87.7576 90.6061H84.9091V93.4546H87.7576V90.6061Z" fill="#040303"/>
    <path d="M96.303 90.6061H93.4546V93.4546H96.303V90.6061Z" fill="#040303"/>
    <path d="M99.1515 90.6061H96.303V93.4546H99.1515V90.6061Z" fill="#040303"/>
    <path d="M10.8485 93.4546H8V96.303H10.8485V93.4546Z" fill="#040303"/>
    <path d="M16.5455 93.4546H13.697V96.303H16.5455V93.4546Z" fill="#040303"/>
    <path d="M19.3939 93.4546H16.5455V96.303H19.3939V93.4546Z" fill="#040303"/>
    <path d="M22.2424 93.4546H19.3939V96.303H22.2424V93.4546Z" fill="#040303"/>
    <path d="M27.9394 93.4546H25.0909V96.303H27.9394V93.4546Z" fill="#040303"/>
    <path d="M33.6364 93.4546H30.7879V96.303H33.6364V93.4546Z" fill="#040303"/>
    <path d="M36.4848 93.4546H33.6364V96.303H36.4848V93.4546Z" fill="#040303"/>
    <path d="M39.3333 93.4546H36.4848V96.303H39.3333V93.4546Z" fill="#040303"/>
    <path d="M42.1818 93.4546H39.3333V96.303H42.1818V93.4546Z" fill="#040303"/>
    <path d="M50.7273 93.4546H47.8788V96.303H50.7273V93.4546Z" fill="#040303"/>
    <path d="M53.5758 93.4546H50.7273V96.303H53.5758V93.4546Z" fill="#040303"/>
    <path d="M59.2727 93.4546H56.4242V96.303H59.2727V93.4546Z" fill="#040303"/>
    <path d="M62.1212 93.4546H59.2727V96.303H62.1212V93.4546Z" fill="#040303"/>
    <path d="M64.9697 93.4546H62.1212V96.303H64.9697V93.4546Z" fill="#040303"/>
    <path d="M70.6667 93.4546H67.8182V96.303H70.6667V93.4546Z" fill="#040303"/>
    <path d="M73.5152 93.4546H70.6667V96.303H73.5152V93.4546Z" fill="#040303"/>
    <path d="M76.3636 93.4546H73.5152V96.303H76.3636V93.4546Z" fill="#040303"/>
    <path d="M79.2121 93.4546H76.3636V96.303H79.2121V93.4546Z" fill="#040303"/>
    <path d="M82.0606 93.4546H79.2121V96.303H82.0606V93.4546Z" fill="#040303"/>
    <path d="M84.9091 93.4546H82.0606V96.303H84.9091V93.4546Z" fill="#040303"/>
    <path d="M87.7576 93.4546H84.9091V96.303H87.7576V93.4546Z" fill="#040303"/>
    <path d="M93.4546 93.4546H90.6061V96.303H93.4546V93.4546Z" fill="#040303"/>
    <path d="M99.1515 93.4546H96.303V96.303H99.1515V93.4546Z" fill="#040303"/>
    <path d="M10.8485 96.303H8V99.1515H10.8485V96.303Z" fill="#040303"/>
    <path d="M27.9394 96.303H25.0909V99.1515H27.9394V96.303Z" fill="#040303"/>
    <path d="M33.6364 96.303H30.7879V99.1515H33.6364V96.303Z" fill="#040303"/>
    <path d="M39.3333 96.303H36.4848V99.1515H39.3333V96.303Z" fill="#040303"/>
    <path d="M73.5152 96.303H70.6667V99.1515H73.5152V96.303Z" fill="#040303"/>
    <path d="M79.2121 96.303H76.3636V99.1515H79.2121V96.303Z" fill="#040303"/>
    <path d="M84.9091 96.303H82.0606V99.1515H84.9091V96.303Z" fill="#040303"/>
    <path d="M90.6061 96.303H87.7576V99.1515H90.6061V96.303Z" fill="#040303"/>
    <path d="M93.4546 96.303H90.6061V99.1515H93.4546V96.303Z" fill="#040303"/>
    <path d="M96.303 96.303H93.4546V99.1515H96.303V96.303Z" fill="#040303"/>
    <path d="M99.1515 96.303H96.303V99.1515H99.1515V96.303Z" fill="#040303"/>
    <path d="M10.8485 99.1515H8V102H10.8485V99.1515Z" fill="#040303"/>
    <path d="M13.697 99.1515H10.8485V102H13.697V99.1515Z" fill="#040303"/>
    <path d="M16.5455 99.1515H13.697V102H16.5455V99.1515Z" fill="#040303"/>
    <path d="M19.3939 99.1515H16.5455V102H19.3939V99.1515Z" fill="#040303"/>
    <path d="M22.2424 99.1515H19.3939V102H22.2424V99.1515Z" fill="#040303"/>
    <path d="M25.0909 99.1515H22.2424V102H25.0909V99.1515Z" fill="#040303"/>
    <path d="M27.9394 99.1515H25.0909V102H27.9394V99.1515Z" fill="#040303"/>
    <path d="M33.6364 99.1515H30.7879V102H33.6364V99.1515Z" fill="#040303"/>
    <path d="M36.4848 99.1515H33.6364V102H36.4848V99.1515Z" fill="#040303"/>
    <path d="M39.3333 99.1515H36.4848V102H39.3333V99.1515Z" fill="#040303"/>
    <path d="M42.1818 99.1515H39.3333V102H42.1818V99.1515Z" fill="#040303"/>
    <path d="M45.0303 99.1515H42.1818V102H45.0303V99.1515Z" fill="#040303"/>
    <path d="M53.5758 99.1515H50.7273V102H53.5758V99.1515Z" fill="#040303"/>
    <path d="M59.2727 99.1515H56.4242V102H59.2727V99.1515Z" fill="#040303"/>
    <path d="M62.1212 99.1515H59.2727V102H62.1212V99.1515Z" fill="#040303"/>
    <path d="M64.9697 99.1515H62.1212V102H64.9697V99.1515Z" fill="#040303"/>
    <path d="M67.8182 99.1515H64.9697V102H67.8182V99.1515Z" fill="#040303"/>
    <path d="M73.5152 99.1515H70.6667V102H73.5152V99.1515Z" fill="#040303"/>
    <path d="M76.3636 99.1515H73.5152V102H76.3636V99.1515Z" fill="#040303"/>
    <path d="M79.2121 99.1515H76.3636V102H79.2121V99.1515Z" fill="#040303"/>
    <path d="M90.6061 99.1515H87.7576V102H90.6061V99.1515Z" fill="#040303"/>
    <path d="M93.4546 99.1515H90.6061V102H93.4546V99.1515Z" fill="#040303"/>
    <path d="M96.303 99.1515H93.4546V102H96.303V99.1515Z" fill="#040303"/>
    <path d="M99.1515 99.1515H96.303V102H99.1515V99.1515Z" fill="#040303"/>
  </g>
  <defs>
    <clipPath id="clip0_130_16">
      <rect width="110" height="110" rx="8" fill="white"/>
    </clipPath>
  </defs>
</svg>