<svg xmlns="http://www.w3.org/2000/svg" width="688" height="185" viewBox="0 0 688 185" fill="none">
  <path d="M0.261078 5.97313C-0.858335 10.2473 1.69906 14.6196 5.97318 15.739C10.2473 16.8584 14.6196 14.301 15.739 10.0269C16.8584 5.75276 14.3011 1.38044 10.0269 0.261032C5.75281 -0.85838 1.38049 1.69901 0.261078 5.97313ZM672.261 174.973C671.142 179.247 673.699 183.62 677.973 184.739C682.247 185.858 686.62 183.301 687.739 179.027C688.858 174.753 686.301 170.38 682.027 169.261C677.753 168.142 673.38 170.699 672.261 174.973ZM316 93L316 94.5L316 93ZM8.00005 43L6.50006 43L6.50005 43L8.00005 43ZM33.0001 93L33.0001 91.5L33.0001 93ZM8.00006 68L6.50006 68L8.00006 68ZM655 92.9997L655 94.4997L655 92.9997ZM316 94.5L655 94.4997L655 91.4997L316 91.5L316 94.5ZM678.5 118L678.5 177L681.5 177L681.5 118L678.5 118ZM33.0001 94.5L316 94.5L316 91.5L33.0001 91.5L33.0001 94.5ZM6.50006 8.00001L6.50006 43L9.50005 43L9.50005 8.00001L6.50006 8.00001ZM6.50005 43L6.50006 68L9.50006 68L9.50006 43L6.50005 43ZM33.0001 91.5C20.0214 91.5 9.50006 80.9787 9.50006 68L6.50006 68C6.50006 82.6355 18.3645 94.5 33.0001 94.5L33.0001 91.5ZM655 94.4997C667.979 94.4997 678.5 105.021 678.5 118L681.5 118C681.5 103.364 669.636 91.4997 655 91.4997L655 94.4997Z" fill="#25B679"/>
</svg>