<svg xmlns="http://www.w3.org/2000/svg" width="688" height="185" viewBox="0 0 688 185" fill="none">
  <path d="M0.0128228 177.452C0.262327 181.863 4.0406 185.237 8.45182 184.987C12.8631 184.738 16.2368 180.959 15.9873 176.548C15.7378 172.137 11.9595 168.763 7.54829 169.013C3.13706 169.262 -0.236682 173.041 0.0128228 177.452ZM672.013 9.24567C672.262 13.6569 676.04 17.0306 680.452 16.7811C684.863 16.5316 688.237 12.7534 687.987 8.34213C687.738 3.93091 683.959 0.557163 679.548 0.806668C675.137 1.05617 671.763 4.83444 672.013 9.24567ZM283 92.001L283 90.501L283 92.001ZM8 153.501L6.5 153.501L6.5 153.501L8 153.501ZM680 67.001L678.5 67.001L680 67.001ZM283 93.5011L655 93.5011L655 90.5011L283 90.501L283 93.5011ZM681.5 67.001L681.5 8.7939L678.5 8.7939L678.5 67.001L681.5 67.001ZM33 93.501L283 93.5011L283 90.501L33 90.501L33 93.501ZM9.50006 177L9.5 153.501L6.5 153.501L6.50006 177L9.50006 177ZM9.5 153.501L9.5 117.001L6.5 117.001L6.5 153.501L9.5 153.501ZM33 90.501C18.3645 90.501 6.5 102.366 6.5 117.001L9.5 117.001C9.5 104.022 20.0213 93.501 33 93.501L33 90.501ZM655 93.5011C669.636 93.5011 681.5 81.6366 681.5 67.001L678.5 67.001C678.5 79.9797 667.979 90.5011 655 90.5011L655 93.5011Z" fill="#25B679"/>
</svg>