<svg xmlns="http://www.w3.org/2000/svg" width="204" height="35" viewBox="0 0 204 35" fill="none">
  <path d="M97.5 1L97.5 0.500002L97.5 1ZM203.073 29.9914C203.167 30.2512 203.032 30.5377 202.772 30.6314L198.539 32.1586C198.28 32.2523 197.993 32.1177 197.899 31.858C197.806 31.5982 197.94 31.3117 198.2 31.218L201.963 29.8605L200.605 26.0979C200.511 25.8381 200.646 25.5516 200.906 25.4578C201.166 25.3641 201.452 25.4987 201.546 25.7585L203.073 29.9914ZM6.07022 23.6608C6.30792 23.5203 6.61455 23.599 6.75508 23.8367C6.89561 24.0745 6.81684 24.3811 6.57913 24.5216L6.07022 23.6608ZM17.7543 18.6358C17.5045 18.7536 17.2066 18.6466 17.0888 18.3969C16.971 18.1471 17.078 17.8491 17.3278 17.7313L17.7543 18.6358ZM29.0348 12.7594C29.2929 12.6611 29.5817 12.7906 29.68 13.0486C29.7783 13.3067 29.6488 13.5956 29.3908 13.6939L29.0348 12.7594ZM41.3582 9.6199C41.0938 9.69963 40.8148 9.54995 40.7351 9.28557C40.6554 9.02119 40.805 8.74223 41.0694 8.66249L41.3582 9.6199ZM53.3592 5.41041C53.6283 5.34885 53.8965 5.51717 53.958 5.78636C54.0196 6.05556 53.8513 6.32368 53.5821 6.38525L53.3592 5.41041ZM66.0045 3.97606C65.7318 4.01966 65.4755 3.83397 65.4318 3.56129C65.3882 3.28861 65.5739 3.03221 65.8466 2.9886L66.0045 3.97606ZM78.4424 1.39078C78.7173 1.36485 78.9612 1.5667 78.9871 1.84162C79.0131 2.11654 78.8112 2.36043 78.5363 2.38636L78.4424 1.39078ZM91.1678 1.59773C90.8918 1.60628 90.6611 1.38945 90.6526 1.11344C90.644 0.837432 90.8609 0.606756 91.1369 0.598213L91.1678 1.59773ZM104.376 0.728706C104.652 0.746373 104.861 0.984094 104.843 1.25967C104.826 1.53525 104.588 1.74432 104.312 1.72666L104.376 0.728706ZM117.898 3.28183C117.625 3.23844 117.44 2.98218 117.483 2.70947C117.526 2.43676 117.783 2.25086 118.055 2.29425L117.898 3.28183ZM131.555 4.92499C131.824 4.98625 131.993 5.2542 131.932 5.52346C131.87 5.79272 131.602 5.96133 131.333 5.90006L131.555 4.92499ZM144.605 9.2843C144.339 9.20969 144.184 8.93368 144.258 8.6678C144.333 8.40193 144.609 8.24688 144.875 8.32148L144.605 9.2843ZM158.024 12.3053C158.286 12.3904 158.43 12.6724 158.345 12.9351C158.26 13.1978 157.978 13.3417 157.715 13.2565L158.024 12.3053ZM170.684 17.7104C170.424 17.6164 170.29 17.3297 170.384 17.07C170.478 16.8104 170.764 16.6761 171.024 16.7701L170.684 17.7104ZM183.859 21.6418C184.116 21.7437 184.241 22.0344 184.139 22.2911C184.038 22.5477 183.747 22.6732 183.49 22.5713L183.859 21.6418ZM196.155 27.8263C195.902 27.7163 195.786 27.4218 195.896 27.1685C196.006 26.9152 196.3 26.799 196.554 26.909L196.155 27.8263ZM0.999894 27.5C0.703886 27.0971 0.703928 27.097 0.703977 27.097C0.704003 27.097 0.704059 27.0969 0.70411 27.0969C0.704213 27.0968 0.704343 27.0967 0.704502 27.0966C0.704818 27.0964 0.705245 27.0961 0.705784 27.0957C0.706861 27.0949 0.708382 27.0938 0.710346 27.0923C0.714275 27.0895 0.719978 27.0853 0.727451 27.0799C0.742397 27.069 0.764424 27.0531 0.793498 27.0323C0.851647 26.9906 0.937987 26.9291 1.05226 26.8492C1.28081 26.6893 1.62109 26.4552 2.07104 26.1563C2.97093 25.5586 4.30952 24.7017 6.07022 23.6608L6.57913 24.5216C4.83423 25.5532 3.51043 26.4007 2.62433 26.9893C2.18128 27.2836 1.84767 27.5131 1.62557 27.6685C1.51452 27.7462 1.43135 27.8054 1.37632 27.8449C1.3488 27.8646 1.32832 27.8794 1.31491 27.8891C1.3082 27.894 1.30326 27.8976 1.30009 27.8999C1.29851 27.9011 1.29737 27.9019 1.29667 27.9024C1.29632 27.9027 1.29608 27.9029 1.29595 27.903C1.29589 27.903 1.29585 27.903 1.29584 27.903C1.29584 27.903 1.29585 27.903 1.29585 27.903C1.29587 27.903 1.2959 27.903 0.999894 27.5ZM17.3278 17.7313C20.7382 16.123 24.6484 14.4302 29.0348 12.7594L29.3908 13.6939C25.0295 15.3551 21.1429 17.0377 17.7543 18.6358L17.3278 17.7313ZM41.0694 8.66249C44.9164 7.50224 49.0162 6.40359 53.3592 5.41041L53.5821 6.38525C49.262 7.37319 45.1842 8.46597 41.3582 9.6199L41.0694 8.66249ZM65.8466 2.9886C69.8802 2.34354 74.0808 1.80214 78.4424 1.39078L78.5363 2.38636C74.1966 2.79565 70.0174 3.33431 66.0045 3.97606L65.8466 2.9886ZM91.1369 0.598213C93.2268 0.533532 95.348 0.500001 97.5 0.500002L97.5 1.5C95.3584 1.5 93.2475 1.53337 91.1678 1.59773L91.1369 0.598213ZM97.5 0.500002C99.7455 0.500002 102.041 0.579024 104.376 0.728706L104.312 1.72666C101.997 1.57821 99.7222 1.5 97.5 1.5L97.5 0.500002ZM118.055 2.29425C122.518 3.00438 127.042 3.898 131.555 4.92499L131.333 5.90006C126.838 4.87724 122.337 3.98802 117.898 3.28183L118.055 2.29425ZM144.875 8.32148C149.361 9.58032 153.768 10.9256 158.024 12.3053L157.715 13.2565C153.471 11.8804 149.076 10.5391 144.605 9.2843L144.875 8.32148ZM171.024 16.7701C175.677 18.4544 179.997 20.1087 183.859 21.6418L183.49 22.5713C179.637 21.0415 175.326 19.3908 170.684 17.7104L171.024 16.7701ZM196.554 26.909C198.544 27.7732 200.109 28.4727 201.176 28.9563C201.71 29.1981 202.119 29.3859 202.395 29.5134C202.533 29.5772 202.638 29.6258 202.708 29.6586C202.744 29.675 202.77 29.6874 202.788 29.6958C202.797 29.7 202.804 29.7031 202.808 29.7053C202.811 29.7063 202.812 29.7071 202.813 29.7077C202.814 29.708 202.814 29.7082 202.815 29.7083C202.815 29.7084 202.815 29.7084 202.815 29.7085C202.815 29.7085 202.815 29.7085 202.815 29.7085C202.815 29.7085 202.815 29.7085 202.603 30.1611C202.39 30.6137 202.39 30.6137 202.39 30.6137C202.39 30.6137 202.39 30.6136 202.39 30.6136C202.39 30.6136 202.39 30.6136 202.39 30.6135C202.39 30.6134 202.389 30.6132 202.389 30.613C202.388 30.6125 202.386 30.6117 202.384 30.6107C202.379 30.6087 202.373 30.6057 202.364 30.6016C202.347 30.5935 202.321 30.5813 202.286 30.5651C202.217 30.5328 202.113 30.4846 201.976 30.4213C201.702 30.2948 201.295 30.1079 200.763 29.8671C199.7 29.3855 198.141 28.6882 196.155 27.8263L196.554 26.909ZM97.5 1L97.5 2.23442e-07L97.5 1ZM203.543 29.8217C203.731 30.3412 203.462 30.9143 202.942 31.1018L194.476 34.1561C193.957 34.3436 193.384 34.0744 193.196 33.5549C193.009 33.0353 193.278 32.4623 193.797 32.2748L201.323 29.5598L198.608 22.0346C198.42 21.5151 198.689 20.942 199.209 20.7546C199.728 20.5672 200.302 20.8364 200.489 21.3559L203.543 29.8217ZM5.81576 23.2304C6.29118 22.9493 6.90443 23.1069 7.18549 23.5823C7.46655 24.0577 7.309 24.671 6.83358 24.952L5.81576 23.2304ZM17.9676 19.088C17.4681 19.3236 16.8721 19.1096 16.6366 18.6101C16.401 18.1106 16.615 17.5147 17.1145 17.2791L17.9676 19.088ZM28.8568 12.2921C29.3729 12.0955 29.9507 12.3545 30.1473 12.8707C30.3439 13.3868 30.0848 13.9645 29.5687 14.1611L28.8568 12.2921ZM41.5026 10.0986C40.9738 10.2581 40.4159 9.95871 40.2564 9.42995C40.0969 8.90119 40.3963 8.34327 40.925 8.18379L41.5026 10.0986ZM53.2477 4.92299C53.7861 4.79987 54.3223 5.13651 54.4455 5.6749C54.5686 6.21328 54.2319 6.74954 53.6936 6.87266L53.2477 4.92299ZM66.0835 4.46978C65.5381 4.557 65.0253 4.1856 64.9381 3.64025C64.8509 3.09489 65.2223 2.58209 65.7677 2.49488L66.0835 4.46978ZM78.3955 0.892987C78.9453 0.841128 79.4331 1.24483 79.4849 1.79467C79.5368 2.34452 79.1331 2.83229 78.5833 2.88415L78.3955 0.892987ZM91.1833 2.0975C90.6312 2.11458 90.1699 1.68093 90.1528 1.12891C90.1357 0.576888 90.5694 0.115537 91.1214 0.0984538L91.1833 2.0975ZM104.408 0.22973C104.959 0.265063 105.378 0.740505 105.342 1.29166C105.307 1.84281 104.831 2.26097 104.28 2.22563L104.408 0.22973ZM117.82 3.77562C117.274 3.68883 116.902 3.17633 116.989 2.6309C117.076 2.08548 117.588 1.71368 118.134 1.80046L117.82 3.77562ZM131.666 4.43745C132.204 4.55998 132.542 5.09587 132.419 5.63439C132.297 6.17291 131.761 6.51014 131.222 6.3876L131.666 4.43745ZM144.469 9.7657C143.938 9.61649 143.628 9.06447 143.777 8.53272C143.926 8.00097 144.478 7.69087 145.01 7.84008L144.469 9.7657ZM158.178 11.8296C158.703 12 158.991 12.5639 158.821 13.0893C158.65 13.6147 158.086 13.9025 157.561 13.7322L158.178 11.8296ZM170.514 18.1805C169.994 17.9925 169.726 17.4191 169.914 16.8998C170.102 16.3805 170.675 16.1119 171.194 16.2999L170.514 18.1805ZM184.044 21.1771C184.557 21.3809 184.808 21.9622 184.604 22.4755C184.4 22.9889 183.819 23.2398 183.306 23.036L184.044 21.1771ZM195.956 28.2849C195.45 28.065 195.217 27.476 195.437 26.9694C195.657 26.4628 196.246 26.2304 196.753 26.4503L195.956 28.2849ZM0.999894 27.5C0.407878 26.6941 0.407955 26.6941 0.40804 26.694C0.408077 26.694 0.408169 26.6939 0.408243 26.6938C0.408393 26.6937 0.408571 26.6936 0.408776 26.6934C0.409187 26.6931 0.409709 26.6928 0.410342 26.6923C0.411608 26.6914 0.413318 26.6901 0.415473 26.6885C0.419781 26.6854 0.425866 26.681 0.433722 26.6753C0.449434 26.6639 0.472233 26.6474 0.502087 26.626C0.561794 26.5831 0.64972 26.5206 0.765606 26.4395C0.997377 26.2773 1.341 26.041 1.7944 25.7398C2.70118 25.1375 4.04716 24.276 5.81576 23.2304L6.83358 24.952C5.09659 25.9789 3.78018 26.8218 2.90097 27.4058C2.46138 27.6978 2.1311 27.925 1.91223 28.0782C1.80279 28.1548 1.7212 28.2128 1.66773 28.2512C1.64099 28.2703 1.62129 28.2846 1.60864 28.2938C1.60231 28.2984 1.59776 28.3017 1.59497 28.3037C1.59357 28.3047 1.59262 28.3054 1.59211 28.3058C1.59186 28.306 1.59171 28.3061 1.59168 28.3061C1.59166 28.3061 1.59167 28.3061 1.59171 28.3061C1.59173 28.3061 1.59178 28.3061 1.59179 28.306C1.59185 28.306 1.59191 28.306 0.999894 27.5ZM17.1145 17.2791C20.5359 15.6656 24.4578 13.9677 28.8568 12.2921L29.5687 14.1611C25.2201 15.8175 21.3453 17.4951 17.9676 19.088L17.1145 17.2791ZM40.925 8.18379C44.7825 7.02038 48.8933 5.91879 53.2477 4.92299L53.6936 6.87266C49.3849 7.85799 45.3181 8.94783 41.5026 10.0986L40.925 8.18379ZM65.7677 2.49488C69.8116 1.84815 74.0229 1.30538 78.3955 0.892987L78.5833 2.88415C74.2545 3.29241 70.086 3.8297 66.0835 4.46978L65.7677 2.49488ZM91.1214 0.0984538C93.2164 0.0336139 95.3428 1.49393e-06 97.5 2.23442e-07L97.5 2C95.3636 2 93.2578 2.03329 91.1833 2.0975L91.1214 0.0984538ZM97.5 2.23442e-07C99.7572 1.25269e-06 102.064 0.0794324 104.408 0.22973L104.28 2.22563C101.974 2.0778 99.7105 2 97.5 2L97.5 2.23442e-07ZM118.134 1.80046C122.609 2.51256 127.143 3.40839 131.666 4.43745L131.222 6.3876C126.736 5.36685 122.246 4.47985 117.82 3.77562L118.134 1.80046ZM145.01 7.84008C149.503 9.10092 153.917 10.4481 158.178 11.8296L157.561 13.7322C153.322 12.3579 148.934 11.0185 144.469 9.7657L145.01 7.84008ZM171.194 16.2999C175.852 17.9862 180.178 19.6423 184.044 21.1771L183.306 23.036C179.456 21.5078 175.15 19.859 170.514 18.1805L171.194 16.2999ZM196.753 26.4503C198.746 27.3157 200.313 28.0162 201.382 28.5008C201.917 28.7431 202.327 28.9315 202.605 29.0595C202.743 29.1235 202.849 29.1724 202.919 29.2054C202.955 29.2219 202.982 29.2344 203 29.2429C203.009 29.2471 203.016 29.2503 203.02 29.2525C203.023 29.2536 203.025 29.2545 203.026 29.255C203.026 29.2553 203.027 29.2556 203.027 29.2557C203.027 29.2558 203.028 29.2559 203.028 29.2559C203.028 29.2559 203.028 29.2559 203.028 29.256C203.028 29.256 203.028 29.256 202.603 30.1611C202.177 31.0662 202.178 31.0662 202.178 31.0662C202.178 31.0662 202.177 31.0662 202.177 31.0662C202.177 31.0662 202.177 31.0662 202.177 31.0661C202.177 31.066 202.177 31.0658 202.176 31.0656C202.175 31.0651 202.174 31.0644 202.172 31.0634C202.167 31.0615 202.161 31.0585 202.152 31.0545C202.135 31.0465 202.109 31.0344 202.075 31.0184C202.006 30.9863 201.903 30.9383 201.766 30.8753C201.493 30.7492 201.087 30.5628 200.557 30.3225C199.496 29.842 197.939 29.1457 195.956 28.2849L196.753 26.4503Z" fill="white"/>
</svg>