<svg xmlns="http://www.w3.org/2000/svg" width="212" height="39" viewBox="0 0 212 39" fill="none">
  <path d="M112.5 37.5L112.448 37.0027L112.5 37.5ZM211.471 4.16668C211.563 3.90633 211.427 3.62065 211.167 3.5286L206.924 2.02851C206.664 1.93645 206.378 2.07288 206.286 2.33323C206.194 2.59358 206.33 2.87925 206.591 2.97131L210.362 4.30472L209.029 8.07593C208.936 8.33628 209.073 8.62196 209.333 8.71401C209.594 8.80606 209.879 8.66963 209.971 8.40928L211.471 4.16668ZM5.84365 7.35503C6.08505 7.48911 6.38945 7.40211 6.52353 7.16071C6.65762 6.9193 6.57061 6.61491 6.32921 6.48083L5.84365 7.35503ZM16.765 12.0017C16.5185 11.8773 16.2178 11.9762 16.0933 12.2227C15.9689 12.4692 16.0678 12.7699 16.3143 12.8944L16.765 12.0017ZM26.9832 18.0409C27.234 18.1563 27.531 18.0465 27.6464 17.7957C27.7618 17.5448 27.652 17.2479 27.4012 17.1325L26.9832 18.0409ZM38.193 21.854C37.9379 21.7482 37.6454 21.8692 37.5396 22.1243C37.4339 22.3794 37.5549 22.6719 37.81 22.7777L38.193 21.854ZM48.8281 27.0804C49.0874 27.1752 49.3746 27.0419 49.4694 26.7826C49.5643 26.5232 49.4309 26.2361 49.1716 26.1412L48.8281 27.0804ZM60.3374 29.9264C60.0738 29.8443 59.7935 29.9915 59.7114 30.2552C59.6294 30.5189 59.7766 30.7991 60.0403 30.8812L60.3374 29.9264ZM71.4376 34.0795C71.7056 34.1462 71.9768 33.9829 72.0435 33.7149C72.1101 33.4469 71.9468 33.1757 71.6788 33.1091L71.4376 34.0795ZM83.1948 35.5558C82.9228 35.5084 82.6638 35.6905 82.6164 35.9626C82.569 36.2346 82.7511 36.4936 83.0232 36.541L83.1948 35.5558ZM94.7748 38.0716C95.05 38.0945 95.2916 37.8899 95.3145 37.6147C95.3374 37.3395 95.1328 37.0979 94.8576 37.075L94.7748 38.0716ZM106.6 37.3985C106.324 37.4076 106.108 37.6388 106.117 37.9147C106.126 38.1907 106.357 38.4071 106.633 38.398L106.6 37.3985ZM119.036 37.102C119.308 37.0561 119.492 36.7981 119.446 36.5258C119.4 36.2535 119.142 36.07 118.87 36.1159L119.036 37.102ZM131.594 33.3929C131.326 33.4606 131.164 33.7325 131.232 34.0002C131.299 34.2679 131.571 34.4301 131.839 34.3624L131.594 33.3929ZM144.427 30.8167C144.691 30.7356 144.839 30.4558 144.758 30.1919C144.676 29.9279 144.397 29.7797 144.133 29.8609L144.427 30.8167ZM156.52 25.7938C156.259 25.8844 156.121 26.1693 156.212 26.4302C156.302 26.691 156.587 26.829 156.848 26.7384L156.52 25.7938ZM169.132 22.2706C169.39 22.1728 169.52 21.8841 169.422 21.6259C169.324 21.3677 169.035 21.2377 168.777 21.3355L169.132 22.2706ZM180.922 16.5686C180.666 16.6724 180.543 16.964 180.647 17.2199C180.75 17.4758 181.042 17.5991 181.298 17.4954L180.922 16.5686ZM193.351 12.463C193.605 12.3541 193.722 12.06 193.613 11.8063C193.505 11.5526 193.21 11.4352 192.957 11.5441L193.351 12.463ZM204.876 6.28308C204.624 6.39728 204.513 6.69367 204.627 6.94509C204.741 7.19652 205.038 7.30776 205.289 7.19357L204.876 6.28308ZM1 4C0.740775 4.42755 0.740795 4.42757 0.740823 4.42758C0.740842 4.42759 0.740876 4.42762 0.740914 4.42764C0.740988 4.42768 0.74109 4.42774 0.74122 4.42782C0.741479 4.42798 0.74185 4.42821 0.742332 4.4285C0.743295 4.42908 0.744702 4.42993 0.746552 4.43105C0.750251 4.43329 0.755721 4.43659 0.762948 4.44096C0.777403 4.44968 0.79889 4.46262 0.827316 4.47969C0.884167 4.51384 0.968772 4.56448 1.08038 4.63084C1.3036 4.76357 1.63483 4.95919 2.06807 5.21145C2.93455 5.71599 4.2091 6.44715 5.84365 7.35503L6.32921 6.48083C4.70097 5.57645 3.4323 4.84865 2.57126 4.34728C2.14075 4.0966 1.81215 3.90253 1.59147 3.77131C1.48113 3.7057 1.39777 3.65581 1.34215 3.6224C1.31434 3.6057 1.29346 3.59312 1.27961 3.58476C1.27268 3.58058 1.26751 3.57746 1.26411 3.5754C1.26241 3.57437 1.26115 3.57361 1.26034 3.57312C1.25993 3.57287 1.25963 3.57269 1.25945 3.57258C1.25936 3.57252 1.25929 3.57249 1.25925 3.57246C1.25923 3.57245 1.25923 3.57245 1.25922 3.57244C1.25922 3.57244 1.25923 3.57245 1 4ZM16.3143 12.8944C19.4954 14.5007 23.0789 16.2445 26.9832 18.0409L27.4012 17.1325C23.5089 15.3416 19.9364 13.6032 16.765 12.0017L16.3143 12.8944ZM37.81 22.7777C41.3357 24.2396 45.0224 25.6884 48.8281 27.0804L49.1716 26.1412C45.3804 24.7546 41.7069 23.311 38.193 21.854L37.81 22.7777ZM60.0403 30.8812C63.7812 32.0455 67.5919 33.1236 71.4376 34.0795L71.6788 33.1091C67.8537 32.1583 64.0618 31.0855 60.3374 29.9264L60.0403 30.8812ZM83.0232 36.541C86.9506 37.2253 90.8798 37.748 94.7748 38.0716L94.8576 37.075C90.9956 36.7542 87.0963 36.2356 83.1948 35.5558L83.0232 36.541ZM106.633 38.398C108.627 38.3321 110.602 38.2004 112.552 37.9973L112.448 37.0027C110.523 37.2032 108.572 37.3334 106.6 37.3985L106.633 38.398ZM112.552 37.9973C114.635 37.7803 116.802 37.4783 119.036 37.102L118.87 36.1159C116.654 36.4892 114.508 36.7881 112.448 37.0027L112.552 37.9973ZM131.839 34.3624C135.953 33.3228 140.175 32.1239 144.427 30.8167L144.133 29.8609C139.895 31.164 135.689 32.3581 131.594 33.3929L131.839 34.3624ZM156.848 26.7384C161.015 25.2904 165.135 23.785 169.132 22.2706L168.777 21.3355C164.789 22.847 160.677 24.3492 156.52 25.7938L156.848 26.7384ZM181.298 17.4954C185.651 15.7306 189.712 14.0257 193.351 12.463L192.957 11.5441C189.323 13.1045 185.268 14.8067 180.922 16.5686L181.298 17.4954ZM205.289 7.19357C207.168 6.34014 208.649 5.65484 209.661 5.18275C210.166 4.94671 210.555 4.76396 210.817 4.64016C210.948 4.57826 211.047 4.53109 211.114 4.49936C211.148 4.48349 211.173 4.47149 211.19 4.46343C211.198 4.4594 211.205 4.45636 211.209 4.45432C211.211 4.45329 211.213 4.45252 211.214 4.452C211.214 4.45174 211.215 4.45154 211.215 4.45141C211.215 4.45134 211.215 4.45129 211.215 4.45125C211.215 4.45123 211.215 4.45122 211.215 4.45121C211.215 4.4512 211.215 4.45119 211 4C210.785 3.54881 210.785 3.54881 210.785 3.54882C210.785 3.54882 210.784 3.54883 210.784 3.54884C210.784 3.54887 210.784 3.54891 210.784 3.54897C210.784 3.54909 210.784 3.54927 210.783 3.54951C210.782 3.54999 210.781 3.55073 210.778 3.55171C210.774 3.55368 210.768 3.55665 210.76 3.5606C210.743 3.56851 210.718 3.58036 210.685 3.59608C210.619 3.6275 210.52 3.67436 210.39 3.73595C210.129 3.85912 209.742 4.04121 209.238 4.27658C208.229 4.74733 206.751 5.43119 204.876 6.28308L205.289 7.19357ZM112.5 37.5L112.396 36.5054L112.5 37.5ZM211.943 4.33335C212.127 3.81266 211.854 3.2413 211.333 3.0572L202.848 0.0570118C202.327 -0.127095 201.756 0.145764 201.572 0.66646C201.388 1.18715 201.661 1.75851 202.181 1.94262L209.724 4.60945L207.057 12.1519C206.873 12.6726 207.146 13.2439 207.666 13.428C208.187 13.6121 208.759 13.3393 208.943 12.8186L211.943 4.33335ZM5.60087 7.79213C6.08368 8.0603 6.69247 7.8863 6.96063 7.40349C7.2288 6.92068 7.0548 6.31189 6.57199 6.04372L5.60087 7.79213ZM16.9904 11.5554C16.4974 11.3065 15.896 11.5043 15.647 11.9973C15.3981 12.4903 15.5959 13.0918 16.0889 13.3407L16.9904 11.5554ZM26.7742 18.4951C27.2759 18.726 27.8698 18.5064 28.1006 18.0047C28.3315 17.5029 28.1119 16.9091 27.6102 16.6782L26.7742 18.4951ZM38.3845 21.3921C37.8744 21.1806 37.2893 21.4226 37.0778 21.9328C36.8662 22.443 37.1083 23.028 37.6185 23.2396L38.3845 21.3921ZM48.6563 27.55C49.175 27.7397 49.7493 27.473 49.939 26.9543C50.1287 26.4356 49.862 25.8614 49.3433 25.6717L48.6563 27.55ZM60.486 29.449C59.9587 29.2848 59.3982 29.5793 59.234 30.1066C59.0699 30.6339 59.3643 31.1945 59.8917 31.3586L60.486 29.449ZM71.317 34.5648C71.853 34.698 72.3955 34.3715 72.5287 33.8355C72.6619 33.2996 72.3354 32.7571 71.7994 32.6238L71.317 34.5648ZM83.2806 35.0632C82.7365 34.9684 82.2186 35.3327 82.1238 35.8768C82.029 36.4208 82.3932 36.9388 82.9373 37.0336L83.2806 35.0632ZM94.7334 38.5699C95.2838 38.6156 95.7671 38.2065 95.8128 37.6561C95.8585 37.1057 95.4494 36.6225 94.899 36.5767L94.7334 38.5699ZM106.584 36.8988C106.032 36.917 105.599 37.3793 105.617 37.9312C105.635 38.4832 106.098 38.9159 106.65 38.8977L106.584 36.8988ZM119.119 37.595C119.664 37.5033 120.031 36.9874 119.939 36.4428C119.847 35.8982 119.332 35.5311 118.787 35.6228L119.119 37.595ZM131.471 32.9082C130.936 33.0435 130.611 33.5872 130.747 34.1227C130.882 34.6581 131.426 34.9825 131.961 34.8472L131.471 32.9082ZM144.574 31.2946C145.101 31.1323 145.398 30.5728 145.235 30.0449C145.073 29.517 144.514 29.2207 143.986 29.383L144.574 31.2946ZM156.356 25.3215C155.834 25.5027 155.558 26.0726 155.739 26.5943C155.92 27.116 156.49 27.3919 157.012 27.2107L156.356 25.3215ZM169.309 22.7382C169.825 22.5425 170.085 21.9652 169.889 21.4487C169.694 20.9323 169.116 20.6723 168.6 20.868L169.309 22.7382ZM180.734 16.1053C180.222 16.3128 179.976 16.8959 180.183 17.4077C180.391 17.9196 180.974 18.1662 181.486 17.9587L180.734 16.1053ZM193.549 12.9224C194.056 12.7045 194.291 12.1165 194.073 11.609C193.855 11.1015 193.267 10.8668 192.759 11.0847L193.549 12.9224ZM204.669 5.82784C204.166 6.05623 203.943 6.64902 204.172 7.15187C204.4 7.65471 204.993 7.8772 205.496 7.64881L204.669 5.82784ZM1 4C0.481549 4.85511 0.481584 4.85513 0.481625 4.85515C0.481649 4.85517 0.481697 4.8552 0.481744 4.85523C0.481836 4.85528 0.481957 4.85535 0.482105 4.85544C0.482402 4.85562 0.48281 4.85587 0.483329 4.85619C0.484367 4.85681 0.485848 4.85771 0.487773 4.85888C0.491622 4.8612 0.497241 4.8646 0.504619 4.86905C0.519376 4.87796 0.541167 4.89108 0.569899 4.90834C0.627363 4.94285 0.712593 4.99386 0.824836 5.06061C1.04932 5.19409 1.38187 5.39048 1.81648 5.64354C2.68567 6.14966 3.96316 6.8825 5.60087 7.79213L6.57199 6.04372C4.9469 5.1411 3.68118 4.41498 2.82286 3.91519C2.39371 3.6653 2.06642 3.47201 1.84701 3.34155C1.73731 3.27632 1.65458 3.22679 1.59957 3.19376C1.57206 3.17724 1.55148 3.16484 1.53793 3.15667C1.53116 3.15258 1.52614 3.14955 1.52289 3.14758C1.52126 3.1466 1.52008 3.14588 1.51934 3.14543C1.51897 3.14521 1.51871 3.14505 1.51856 3.14496C1.51849 3.14492 1.51844 3.14489 1.51842 3.14488C1.51841 3.14487 1.51842 3.14487 1.51842 3.14487C1.51843 3.14488 1.51845 3.14489 1 4ZM16.0889 13.3407C19.2749 14.9495 22.8638 16.6959 26.7742 18.4951L27.6102 16.6782C23.724 14.8901 20.1569 13.1544 16.9904 11.5554L16.0889 13.3407ZM37.6185 23.2396C41.1501 24.704 44.8434 26.1553 48.6563 27.55L49.3433 25.6717C45.5594 24.2876 41.8925 22.8467 38.3845 21.3921L37.6185 23.2396ZM59.8917 31.3586C63.641 32.5255 67.4609 33.6063 71.317 34.5648L71.7994 32.6238C67.9846 31.6756 64.2021 30.6055 60.486 29.449L59.8917 31.3586ZM82.9373 37.0336C86.8778 37.7201 90.8219 38.2449 94.7334 38.5699L94.899 36.5767C91.0536 36.2572 87.1691 35.7407 83.2806 35.0632L82.9373 37.0336ZM106.65 38.8977C108.655 38.8315 110.641 38.699 112.604 38.4946L112.396 36.5054C110.484 36.7046 108.544 36.8341 106.584 36.8988L106.65 38.8977ZM112.604 38.4946C114.699 38.2763 116.877 37.9728 119.119 37.595L118.787 35.6228C116.58 35.9946 114.444 36.292 112.396 36.5054L112.604 38.4946ZM131.961 34.8472C136.085 33.8052 140.316 32.6039 144.574 31.2946L143.986 29.383C139.755 30.684 135.556 31.8758 131.471 32.9082L131.961 34.8472ZM157.012 27.2107C161.184 25.761 165.309 24.254 169.309 22.7382L168.6 20.868C164.615 22.378 160.508 23.8786 156.356 25.3215L157.012 27.2107ZM181.486 17.9587C185.842 16.1925 189.906 14.4863 193.549 12.9224L192.759 11.0847C189.128 12.6439 185.076 14.3448 180.734 16.1053L181.486 17.9587ZM205.496 7.64881C207.377 6.79462 208.859 6.10859 209.872 5.63583C210.379 5.39945 210.768 5.21639 211.03 5.09227C211.162 5.03021 211.262 4.98288 211.329 4.951C211.362 4.93506 211.388 4.92298 211.405 4.91484C211.413 4.91078 211.42 4.9077 211.424 4.90562C211.426 4.90458 211.428 4.90379 211.429 4.90325C211.43 4.90297 211.43 4.90277 211.43 4.90262C211.431 4.90255 211.431 4.90249 211.431 4.90245C211.431 4.90243 211.431 4.90241 211.431 4.9024C211.431 4.90239 211.431 4.90238 211 4C210.569 3.09762 210.569 3.09762 210.569 3.09762C210.569 3.09763 210.569 3.09763 210.569 3.09764C210.569 3.09766 210.569 3.0977 210.569 3.09775C210.569 3.09786 210.568 3.09803 210.568 3.09827C210.567 3.09873 210.565 3.09945 210.563 3.10041C210.559 3.10235 210.553 3.10527 210.545 3.10919C210.528 3.11702 210.504 3.1288 210.471 3.14444C210.405 3.17571 210.306 3.22241 210.176 3.28384C209.916 3.4067 209.53 3.58846 209.026 3.8235C208.019 4.29357 206.543 4.97671 204.669 5.82784L205.496 7.64881Z" fill="white"/>
</svg>