<svg width="48" height="48" viewBox="0 0 48 48" fill="none" xmlns="http://www.w3.org/2000/svg">
<g id="magic-wand 1" clip-path="url(#clip0_63_12)">
<path id="Vector" d="M36 18.128C36.0003 17.3235 35.8414 16.527 35.5325 15.7842C35.2236 15.0414 34.7707 14.367 34.2 13.8C33.0322 12.6857 31.4801 12.064 29.866 12.064C28.2519 12.064 26.6998 12.6857 25.532 13.8L1.80002 37.538C0.716855 38.6995 0.126901 40.2361 0.15449 41.824C0.18208 43.4119 0.825059 44.927 1.94791 46.0502C3.07077 47.1733 4.5858 47.8166 6.17369 47.8446C7.76159 47.8725 9.29832 47.2829 10.46 46.2L34.2 22.462C34.7716 21.8944 35.225 21.2192 35.5339 20.4752C35.8429 19.7313 36.0013 18.9335 36 18.128ZM7.63202 43.376C7.22771 43.7614 6.69058 43.9764 6.13202 43.9764C5.57346 43.9764 5.03632 43.7614 4.63202 43.376C4.23485 42.9779 4.0118 42.4384 4.0118 41.876C4.0118 41.3136 4.23485 40.7742 4.63202 40.376L20.17 24.836L23.18 27.846L7.63202 43.376ZM31.376 19.632L26 25.01L23 22L28.378 16.624C28.5697 16.405 28.8044 16.2277 29.0674 16.1031C29.3304 15.9784 29.6163 15.9092 29.9072 15.8995C30.1981 15.8898 30.4879 15.94 30.7586 16.0469C31.0293 16.1539 31.2752 16.3152 31.481 16.521C31.6868 16.7268 31.8482 16.9727 31.9551 17.2434C32.062 17.5142 32.1122 17.804 32.1025 18.0949C32.0929 18.3858 32.0236 18.6716 31.899 18.9346C31.7743 19.1977 31.597 19.4323 31.378 19.624L31.376 19.632ZM9.72602 5.71002L12.826 4.82602L13.71 1.72602C13.8524 1.22859 14.1529 0.791059 14.5661 0.479584C14.9793 0.168109 15.4826 -0.000366211 16 -0.000366211C16.5174 -0.000366211 17.0208 0.168109 17.4339 0.479584C17.8471 0.791059 18.1476 1.22859 18.29 1.72602L19.174 4.82602L22.274 5.71002C22.7714 5.85244 23.209 6.15294 23.5205 6.5661C23.8319 6.97926 24.0004 7.48261 24.0004 8.00002C24.0004 8.51744 23.8319 9.02078 23.5205 9.43395C23.209 9.84711 22.7714 10.1476 22.274 10.29L19.174 11.174L18.29 14.274C18.1476 14.7715 17.8471 15.209 17.4339 15.5205C17.0208 15.8319 16.5174 16.0004 16 16.0004C15.4826 16.0004 14.9793 15.8319 14.5661 15.5205C14.1529 15.209 13.8524 14.7715 13.71 14.274L12.826 11.174L9.72602 10.29C9.22859 10.1476 8.79105 9.84711 8.47958 9.43395C8.1681 9.02078 7.99963 8.51744 7.99963 8.00002C7.99963 7.48261 8.1681 6.97926 8.47958 6.5661C8.79105 6.15294 9.22859 5.85244 9.72602 5.71002ZM46.274 34.29L43.174 35.174L42.29 38.274C42.1476 38.7715 41.8471 39.209 41.4339 39.5205C41.0208 39.8319 40.5174 40.0004 40 40.0004C39.4826 40.0004 38.9793 39.8319 38.5661 39.5205C38.1529 39.209 37.8524 38.7715 37.71 38.274L36.826 35.174L33.726 34.29C33.2286 34.1476 32.7911 33.8471 32.4796 33.4339C32.1681 33.0208 31.9996 32.5174 31.9996 32C31.9996 31.4826 32.1681 30.9793 32.4796 30.5661C32.7911 30.1529 33.2286 29.8524 33.726 29.71L36.826 28.826L37.71 25.726C37.8524 25.2286 38.1529 24.7911 38.5661 24.4796C38.9793 24.1681 39.4826 23.9996 40 23.9996C40.5174 23.9996 41.0208 24.1681 41.4339 24.4796C41.8471 24.7911 42.1476 25.2286 42.29 25.726L43.174 28.826L46.274 29.71C46.7715 29.8524 47.209 30.1529 47.5205 30.5661C47.8319 30.9793 48.0004 31.4826 48.0004 32C48.0004 32.5174 47.8319 33.0208 47.5205 33.4339C47.209 33.8471 46.7715 34.1476 46.274 34.29ZM35.51 5.00002L38.222 4.22602L39 1.51002C39.1266 1.07766 39.39 0.697968 39.7505 0.42785C40.1111 0.157732 40.5495 0.011734 41 0.011734C41.4505 0.011734 41.8889 0.157732 42.2495 0.42785C42.6101 0.697968 42.8734 1.07766 43 1.51002L43.774 4.22202L46.486 4.99602C46.9184 5.12264 47.2981 5.38597 47.5682 5.74654C47.8383 6.10711 47.9843 6.5455 47.9843 6.99602C47.9843 7.44655 47.8383 7.88494 47.5682 8.24551C47.2981 8.60608 46.9184 8.8694 46.486 8.99602L43.774 9.77002L43 12.488C42.8734 12.9204 42.6101 13.3001 42.2495 13.5702C41.8889 13.8403 41.4505 13.9863 41 13.9863C40.5495 13.9863 40.1111 13.8403 39.7505 13.5702C39.39 13.3001 39.1266 12.9204 39 12.488L38.226 9.77802L35.51 9.00002C35.0777 8.8734 34.698 8.61008 34.4278 8.24951C34.1577 7.88894 34.0117 7.45055 34.0117 7.00002C34.0117 6.5495 34.1577 6.1111 34.4278 5.75054C34.698 5.38997 35.0777 5.12664 35.51 5.00002Z" fill="url(#paint0_linear_63_12)"/>
</g>
<defs>
<linearGradient id="paint0_linear_63_12" x1="48" y1="-2.55717e-10" x2="1.7169e-05" y2="48" gradientUnits="userSpaceOnUse">
<stop stop-color="#EC7EAC"/>
<stop offset="1" stop-color="#C04BE7"/>
</linearGradient>
<clipPath id="clip0_63_12">
<rect width="48" height="48" fill="white"/>
</clipPath>
</defs>
</svg>
