<svg width="48" height="48" viewBox="0 0 48 48" fill="none" xmlns="http://www.w3.org/2000/svg">
<g id="resources 1" clip-path="url(#clip0_68_44)">
<path id="Vector" d="M45.9999 6.00003H25.9999C25.4695 6.00003 24.9608 6.21074 24.5857 6.58582C24.2106 6.96089 23.9999 7.4696 23.9999 8.00003V14.54L19.1999 6.22003C18.8496 5.60918 18.3443 5.10161 17.735 4.74864C17.1257 4.39566 16.434 4.20978 15.7299 4.20978C15.0257 4.20978 14.3341 4.39566 13.7248 4.74864C13.1155 5.10161 12.6102 5.60918 12.2599 6.22003L0.259893 27C0.0843559 27.3041 -0.00805664 27.649 -0.00805664 28C-0.00805664 28.3511 0.0843559 28.696 0.259893 29C0.436101 29.3052 0.689829 29.5585 0.995385 29.7341C1.30094 29.9097 1.64747 30.0014 1.99989 30H10.5799C10.1916 31.2977 9.99615 32.6455 9.99989 34C9.99989 37.7131 11.4749 41.274 14.1004 43.8995C16.7259 46.525 20.2869 48 23.9999 48C27.7129 48 31.2739 46.525 33.8994 43.8995C36.5249 41.274 37.9999 37.7131 37.9999 34C38.0036 32.6455 37.8082 31.2977 37.4199 30H45.9999C46.5303 30 47.039 29.7893 47.4141 29.4142C47.7892 29.0392 47.9999 28.5305 47.9999 28V8.00003C47.9999 7.4696 47.7892 6.96089 47.4141 6.58582C47.039 6.21074 46.5303 6.00003 45.9999 6.00003ZM5.45989 26L15.7199 8.22003L22.5799 20C20.5798 20.2226 18.6511 20.8738 16.9254 21.9092C15.1997 22.9446 13.7175 24.3399 12.5799 26H5.45989ZM23.9999 44C22.0221 44 20.0887 43.4135 18.4442 42.3147C16.7997 41.2159 15.518 39.6541 14.7611 37.8269C14.0042 35.9996 13.8062 33.9889 14.192 32.0491C14.5779 30.1093 15.5303 28.3275 16.9288 26.929C18.3274 25.5304 20.1092 24.578 22.049 24.1922C23.9888 23.8063 25.9995 24.0044 27.8267 24.7612C29.654 25.5181 31.2158 26.7998 32.3146 28.4443C33.4134 30.0888 33.9999 32.0222 33.9999 34C33.9999 36.6522 32.9463 39.1957 31.071 41.0711C29.1956 42.9465 26.6521 44 23.9999 44ZM43.9999 26H35.4799C33.6636 23.4069 31.0297 21.4984 27.9999 20.58V10H43.9999V26Z" fill="url(#paint0_linear_68_44)"/>
</g>
<defs>
<linearGradient id="paint0_linear_68_44" x1="47.9999" y1="4" x2="-0.000107203" y2="48" gradientUnits="userSpaceOnUse">
<stop stop-color="#85FFFB"/>
<stop offset="1" stop-color="#2154CA"/>
</linearGradient>
<clipPath id="clip0_68_44">
<rect width="48" height="48" fill="white"/>
</clipPath>
</defs>
</svg>
