<svg width="48" height="48" viewBox="0 0 48 48" fill="none" xmlns="http://www.w3.org/2000/svg">
<g id="review 1" clip-path="url(#clip0_68_56)">
<path id="Vector" d="M16 24C22.618 24 28 18.618 28 12C28 5.382 22.618 0 16 0C9.382 0 4 5.382 4 12C4 18.618 9.382 24 16 24ZM16 4C20.412 4 24 7.588 24 12C24 16.412 20.412 20 16 20C11.588 20 8 16.412 8 12C8 7.588 11.588 4 16 4ZM20 30C20 31.104 19.104 32 18 32C10.28 32 4 38.28 4 46C4 47.104 3.104 48 2 48C0.896 48 0 47.104 0 46C0 36.076 8.076 28 18 28C19.104 28 20 28.896 20 30ZM47.288 35.504L42.556 39.358L44.514 45.318C44.782 46.124 44.51 47.012 43.836 47.53C43.162 48.048 42.234 48.084 41.524 47.622L36.016 44.036L30.6 47.66C30.264 47.886 29.876 47.998 29.488 47.998C29.066 47.998 28.644 47.864 28.288 47.598C27.608 47.09 27.326 46.206 27.58 45.396L29.462 39.364L24.708 35.496C24.068 34.954 23.834 34.07 24.124 33.282C24.414 32.494 25.162 31.972 26 31.972H32.002L34.126 26.012C34.418 25.23 35.166 24.71 36 24.71C36.834 24.71 37.584 25.23 37.874 26.012L39.998 31.972H46C46.84 31.972 47.59 32.498 47.878 33.286C48.166 34.074 47.93 34.96 47.288 35.502V35.504Z" fill="url(#paint0_linear_68_56)"/>
</g>
<defs>
<linearGradient id="paint0_linear_68_56" x1="48" y1="-1.43578e-06" x2="-2.38947e-06" y2="48" gradientUnits="userSpaceOnUse">
<stop stop-color="#3877F5"/>
<stop offset="1" stop-color="#00C2B5"/>
</linearGradient>
<clipPath id="clip0_68_56">
<rect width="48" height="48" fill="white"/>
</clipPath>
</defs>
</svg>
