<svg width="48" height="48" viewBox="0 0 48 48" fill="none" xmlns="http://www.w3.org/2000/svg">
<g id="route 1" clip-path="url(#clip0_63_38)">
<path id="Vector" d="M10.01 48.012C8.91401 48.012 7.81601 47.616 6.96201 46.82L2.98201 43.122C-0.969993 39.172 -0.969993 32.828 2.93001 28.93C4.82001 27.042 7.33201 26.002 10.002 26.002C12.672 26.002 15.184 27.042 17.072 28.93C18.962 30.818 20.002 33.33 20.002 36.002C20.002 38.674 18.962 41.184 17.072 43.072L13.07 46.814C12.214 47.614 11.114 48.014 10.014 48.014L10.01 48.012ZM10 30C8.39801 30 6.89001 30.624 5.75601 31.758C3.41801 34.096 3.41801 37.902 5.75601 40.242L9.68401 43.89C9.86801 44.06 10.152 44.06 10.336 43.89L14.29 40.196C15.374 39.11 15.998 37.604 15.998 36C15.998 34.396 15.374 32.89 14.24 31.756C13.108 30.624 11.602 30 10 30ZM38.01 22.012C36.914 22.012 35.816 21.614 34.962 20.82L30.982 17.122C27.03 13.172 27.03 6.82801 30.93 2.93001C32.818 1.04201 35.33 0.00201416 38.002 0.00201416C40.674 0.00201416 43.182 1.04201 45.072 2.93001C48.972 6.83002 48.972 13.174 45.072 17.072L41.07 20.814C40.214 21.614 39.112 22.014 38.012 22.014L38.01 22.012ZM38 4.00001C36.396 4.00001 34.89 4.62401 33.756 5.75601C31.418 8.09601 31.418 11.902 33.756 14.242L37.682 17.89C37.868 18.062 38.154 18.058 38.336 17.89L42.29 14.196C44.58 11.904 44.58 8.09801 42.242 5.75801C41.108 4.62401 39.602 4.00001 38 4.00001ZM48 40C48 35.588 44.412 32 40 32H30C27.794 32 26 30.206 26 28C26 26.306 27.072 24.792 28.666 24.228C29.708 23.86 30.254 22.718 29.886 21.676C29.518 20.634 28.378 20.086 27.334 20.456C24.144 21.582 22 24.616 22 28C22 32.412 25.588 36 30 36H40C42.206 36 44 37.794 44 40C44 42.206 42.206 44 40 44H22C20.896 44 20 44.896 20 46C20 47.104 20.896 48 22 48H40C44.412 48 48 44.412 48 40Z" fill="url(#paint0_linear_63_38)"/>
</g>
<defs>
<linearGradient id="paint0_linear_63_38" x1="48" y1="-2.36589e-06" x2="-4.58542e-07" y2="48" gradientUnits="userSpaceOnUse">
<stop stop-color="#5CA0FF"/>
<stop offset="1" stop-color="#1305B6"/>
</linearGradient>
<clipPath id="clip0_63_38">
<rect width="48" height="48" fill="white"/>
</clipPath>
</defs>
</svg>
