<svg width="48" height="48" viewBox="0 0 48 48" fill="none" xmlns="http://www.w3.org/2000/svg">
<g id="sack-dollar 1" clip-path="url(#clip0_68_42)">
<path id="Vector" d="M29.296 10.986C31.042 9.584 32.84 7.7 33.752 5.408C34.228 4.212 34.074 2.854 33.342 1.776C32.588 0.664 31.338 0 30 0H18C16.662 0 15.412 0.664 14.658 1.776C13.926 2.854 13.774 4.212 14.248 5.408C15.16 7.698 16.958 9.584 18.704 10.986C9.392 14.442 2 26.318 2 36C2 42.618 7.382 48 14 48H34C40.618 48 46 42.618 46 36C46 26.318 38.608 14.442 29.296 10.986ZM30.034 3.93C29.002 6.524 25.846 8.716 23.996 9.75C22.15 8.724 19.006 6.55 17.998 4L30.034 3.93ZM33.998 44H14C9.588 44 6 40.412 6 36C6 25.514 15.42 14 24 14C32.58 14 42 25.514 42 36C42 40.412 38.41 44 33.998 44ZM23.998 44C22.894 44 21.998 43.104 21.998 42V40H21.462C19.326 40 17.336 38.852 16.266 37.002C15.714 36.046 16.04 34.824 16.996 34.27C17.948 33.716 19.174 34.042 19.728 35C20.084 35.616 20.75 36 21.462 36H25.998C27.1 36 27.998 35.102 27.998 34C27.998 33.244 27.456 32.604 26.71 32.48L20.626 31.466C17.944 31.02 15.996 28.72 15.996 26C15.996 22.692 18.688 20 21.996 20V18C21.996 16.896 22.892 16 23.996 16C25.1 16 25.996 16.896 25.996 18V20H26.532C28.666 20 30.658 21.15 31.728 23C32.28 23.956 31.954 25.178 30.998 25.732C30.044 26.286 28.82 25.96 28.266 25.002C27.908 24.384 27.244 24.002 26.532 24.002H21.996C20.894 24.002 19.996 24.9 19.996 26.002C19.996 26.758 20.538 27.398 21.284 27.522L27.368 28.536C30.05 28.982 31.998 31.282 31.998 34.002C31.998 37.31 29.306 40.002 25.998 40.002V42.002C25.998 43.106 25.102 44 23.998 44Z" fill="url(#paint0_linear_68_42)"/>
</g>
<defs>
<linearGradient id="paint0_linear_68_42" x1="46" y1="0" x2="2" y2="48" gradientUnits="userSpaceOnUse">
<stop stop-color="#F6F655"/>
<stop offset="1" stop-color="#EECC44"/>
</linearGradient>
<clipPath id="clip0_68_42">
<rect width="48" height="48" fill="white"/>
</clipPath>
</defs>
</svg>
