<svg width="181" height="48" viewBox="0 0 181 48" fill="none" xmlns="http://www.w3.org/2000/svg">
<rect width="181" height="48" rx="7" fill="#25B679"/>
<path fill-rule="evenodd" clip-rule="evenodd" d="M37.2477 11.5H26.7523C21.8083 11.5 20 13.3837 20 18.5337V29.4665C20 34.6164 21.8083 36.5 26.7523 36.5H37.2444C42.1884 36.5 44 34.6164 44 29.4665V18.5337C44 13.3837 42.1917 11.5 37.2477 11.5Z" fill="white"/>
<path d="M30.6778 25.7111H31.6129L31.1439 24.5413L30.6778 25.7111ZM30.4476 26.3008L30.1703 26.9815H29.5388L30.8818 23.7139H31.4274L32.7649 26.9815H32.1165L31.8426 26.3008H30.4476ZM40.609 26.9793H41.2194V23.7139H40.609V26.9793ZM38.18 25.5761H39.3048V24.9811H38.18V24.3117H39.8129V23.716H37.5699V26.9812H39.8718V26.3857H38.18V25.5761ZM35.755 25.962L35.0629 23.7138H34.5583L33.8662 25.962L33.1927 23.7154H32.5345L33.5969 26.9831H34.1089L34.802 24.8366L35.4948 26.9831H36.0114L37.0712 23.7154H36.4299L35.755 25.962ZM28.6072 25.5852C28.6072 26.1168 28.361 26.4008 27.9141 26.4008C27.4647 26.4008 27.2173 26.1087 27.2173 25.5625V23.7157H26.5988V25.5852C26.5988 26.5049 27.0752 27.0322 27.9057 27.0322C28.7444 27.0322 29.2254 26.4948 29.2254 25.5582V23.7138H28.6072V25.5852ZM25.1231 23.7139H25.7413V26.9833H25.1231V25.6556H23.7264V26.9833H23.1079V23.7139H23.7264V25.0328H25.1231V23.7139Z" fill="#25B679"/>
<path d="M32.1639 19.5508C30.024 19.5508 28.283 17.6834 28.283 15.3883H28.8312C28.8312 17.3592 30.3261 18.9628 32.1639 18.9628C34.0016 18.9628 35.4965 17.3592 35.4965 15.3883H36.0448C36.0448 17.6834 34.3038 19.5508 32.1639 19.5508Z" fill="#25B679"/>
<path d="M58.6582 31H56.373L61.4512 16.8594H63.9316L69.0293 31H66.7441L65.4551 27.2695H59.9473L58.6582 31ZM60.5723 25.4727H64.8301L62.7402 19.4375H62.6426L60.5723 25.4727ZM70.6504 34.9844V20.3945H72.6816V22.1133H72.8574C73.2285 21.4492 73.9512 20.2578 75.9043 20.2578C78.4629 20.2578 80.3574 22.2695 80.3574 25.7266C80.3574 29.1445 78.502 31.2148 75.9238 31.2148C73.9902 31.2148 73.2285 30.043 72.8574 29.3398H72.7402V34.9844H70.6504ZM72.7012 25.6875C72.7012 27.9141 73.6777 29.4375 75.4551 29.4375C77.291 29.4375 78.248 27.8164 78.248 25.6875C78.248 23.5977 77.3105 22.0352 75.4551 22.0352C73.6582 22.0352 72.7012 23.4805 72.7012 25.6875ZM82.4277 34.9844V20.3945H84.459V22.1133H84.6348C85.0059 21.4492 85.7285 20.2578 87.6816 20.2578C90.2402 20.2578 92.1348 22.2695 92.1348 25.7266C92.1348 29.1445 90.2793 31.2148 87.7012 31.2148C85.7676 31.2148 85.0059 30.043 84.6348 29.3398H84.5176V34.9844H82.4277ZM84.4785 25.6875C84.4785 27.9141 85.4551 29.4375 87.2324 29.4375C89.0684 29.4375 90.0254 27.8164 90.0254 25.6875C90.0254 23.5977 89.0879 22.0352 87.2324 22.0352C85.4355 22.0352 84.4785 23.4805 84.4785 25.6875ZM103.932 21.332C103.404 19.6523 102.135 18.6367 100.26 18.6367C97.877 18.6367 96.041 20.5117 96.041 23.9297C96.041 27.3477 97.8574 29.2227 100.357 29.2227C102.613 29.2227 104.107 27.7969 104.146 25.5312H100.67V23.7539H106.236V25.3555C106.236 28.9297 103.775 31.1953 100.338 31.1953C96.5098 31.1953 93.9121 28.4023 93.9121 23.9297C93.9121 19.418 96.5879 16.6641 100.24 16.6641C103.307 16.6641 105.65 18.5781 106.139 21.332H103.932ZM108.053 28.0117C108.053 25.5898 110.104 24.9648 112.018 24.8281C112.721 24.7793 114.312 24.6914 114.811 24.6719L114.791 23.832C114.791 22.6406 114.068 21.9375 112.643 21.9375C111.412 21.9375 110.67 22.5039 110.455 23.2852H108.385C108.58 21.5273 110.221 20.2578 112.721 20.2578C114.4 20.2578 116.881 20.8828 116.881 23.9492V31H114.85V29.5547H114.771C114.361 30.3555 113.385 31.2344 111.627 31.2344C109.615 31.2344 108.053 30.082 108.053 28.0117ZM110.084 28.0312C110.084 29.0469 110.924 29.5742 112.096 29.5742C113.795 29.5742 114.811 28.4414 114.811 27.1719V26.1953L112.311 26.3711C110.943 26.4688 110.084 26.9766 110.084 28.0312ZM121.49 16.8594V31H119.4V16.8594H121.49ZM126.119 16.8594V31H124.029V16.8594H126.119ZM133.229 31.2148C130.104 31.2148 128.189 29.0664 128.189 25.7656C128.189 22.5039 130.143 20.2578 133.092 20.2578C135.514 20.2578 137.799 21.7617 137.799 25.5898V26.332H130.26C130.318 28.3438 131.5 29.4961 133.248 29.4961C134.439 29.4961 135.201 28.9883 135.553 28.3438H137.662C137.193 30.0625 135.553 31.2148 133.229 31.2148ZM130.279 24.7695H135.748C135.748 23.1484 134.713 21.9766 133.111 21.9766C131.441 21.9766 130.357 23.2656 130.279 24.7695ZM139.869 31V20.3945H141.881V22.0742H141.998C142.389 20.9414 143.443 20.2383 144.693 20.2383C144.947 20.2383 145.357 20.2578 145.572 20.2773V22.2695C145.396 22.2305 144.908 22.1523 144.479 22.1523C143.033 22.1523 141.959 23.1484 141.959 24.5352V31H139.869ZM148.756 34.9844C148.326 34.9844 147.916 34.9648 147.643 34.9258V33.1875C147.877 33.207 148.287 33.2266 148.58 33.2266C149.225 33.2266 149.771 33.168 150.26 31.8398L150.514 31.1367L146.627 20.3945H148.854L151.529 28.6172H151.646L154.322 20.3945H156.568L152.193 32.4062C151.588 34.0859 150.494 34.9844 148.756 34.9844Z" fill="white"/>
</svg>
