<svg xmlns="http://www.w3.org/2000/svg" width="135" height="45" viewBox="0 0 135 45" fill="none">
  <rect x="0.5625" y="0.5625" width="133.875" height="43.875" rx="7.3125" fill="#040303"/>
  <rect x="0.5625" y="0.5625" width="133.875" height="43.875" rx="7.3125" stroke="#A6A6A6" stroke-width="1.125"/>
  <path d="M91.7168 21.601V24.1784H90.1012V25.8687H91.7168V31.6118C91.7168 33.5728 92.6039 34.3573 94.8358 34.3573C95.228 34.3573 95.6015 34.3106 95.9284 34.2545V32.583C95.6482 32.611 95.4708 32.6297 95.1626 32.6297C94.1634 32.6297 93.7245 32.1628 93.7245 31.0982V25.8687H95.9284V24.1784H93.7245V21.601H91.7168Z" fill="white"/>
  <path d="M101.614 34.4973C104.584 34.4973 106.405 32.5083 106.405 29.2118C106.405 25.9341 104.574 23.9356 101.614 23.9356C98.6443 23.9356 96.814 25.9341 96.814 29.2118C96.814 32.5083 98.635 34.4973 101.614 34.4973ZM101.614 32.7137C99.8677 32.7137 98.8871 31.4344 98.8871 29.2118C98.8871 27.008 99.8677 25.7193 101.614 25.7193C103.351 25.7193 104.341 27.008 104.341 29.2118C104.341 31.425 103.351 32.7137 101.614 32.7137Z" fill="white"/>
  <path d="M107.963 34.3012H109.97V28.2967C109.97 26.8679 111.044 25.906 112.566 25.906C112.921 25.906 113.519 25.9714 113.687 26.0274V24.0477C113.472 23.9917 113.089 23.9637 112.79 23.9637C111.464 23.9637 110.334 24.692 110.045 25.6913H109.896V24.1317H107.963V34.3012Z" fill="white"/>
  <path d="M118.672 25.6446C120.157 25.6446 121.128 26.6811 121.175 28.278H116.039C116.151 26.6905 117.187 25.6446 118.672 25.6446ZM121.166 31.5558C120.792 32.3495 119.961 32.7884 118.747 32.7884C117.141 32.7884 116.104 31.6585 116.039 29.8748V29.7628H123.22V29.0624C123.22 25.8687 121.511 23.9356 118.682 23.9356C115.815 23.9356 113.994 25.9994 113.994 29.2492C113.994 32.4989 115.777 34.4973 118.691 34.4973C121.016 34.4973 122.641 33.3767 123.099 31.5558H121.166Z" fill="white"/>
  <path d="M78.5502 30.5458C78.7051 33.043 80.7861 34.64 83.8833 34.64C87.1935 34.64 89.2648 32.9655 89.2648 30.2942C89.2648 28.1938 88.084 27.0323 85.219 26.3645L83.6801 25.987C81.8604 25.5611 81.1248 24.9901 81.1248 23.9932C81.1248 22.7349 82.2669 21.9122 83.9801 21.9122C85.6062 21.9122 86.7289 22.7155 86.9322 24.0028H89.0422C88.9164 21.6508 86.8451 19.9957 84.0092 19.9957C80.9603 19.9957 78.9277 21.6508 78.9277 24.1383C78.9277 26.1903 80.0795 27.4098 82.6057 28.0002L84.406 28.4358C86.2547 28.8713 87.0677 29.5102 87.0677 30.5748C87.0677 31.8137 85.7901 32.7139 84.0479 32.7139C82.1798 32.7139 80.8829 31.8718 80.699 30.5458H78.5502Z" fill="white"/>
  <path d="M57.752 23.9637C56.3699 23.9637 55.1746 24.6547 54.5583 25.8127H54.4088V24.1317H52.4758V37.6817H54.4835V32.7604H54.6423C55.1746 33.8343 56.3232 34.4693 57.7707 34.4693C60.3387 34.4693 61.9729 32.4429 61.9729 29.2118C61.9729 25.9807 60.3387 23.9637 57.752 23.9637ZM57.1823 32.667C55.5014 32.667 54.4462 31.341 54.4462 29.2212C54.4462 27.092 55.5014 25.766 57.1917 25.766C58.8913 25.766 59.9091 27.064 59.9091 29.2118C59.9091 31.369 58.8913 32.667 57.1823 32.667Z" fill="white"/>
  <path d="M68.9984 23.9637C67.6163 23.9637 66.421 24.6547 65.8046 25.8127H65.6552V24.1317H63.7222V37.6817H65.7299V32.7604H65.8887C66.421 33.8343 67.5696 34.4693 69.0171 34.4693C71.5851 34.4693 73.2193 32.4429 73.2193 29.2118C73.2193 25.9807 71.5851 23.9637 68.9984 23.9637ZM68.4287 32.667C66.7478 32.667 65.6926 31.341 65.6926 29.2212C65.6926 27.092 66.7478 25.766 68.4381 25.766C70.1377 25.766 71.1555 27.064 71.1555 29.2118C71.1555 31.369 70.1377 32.667 68.4287 32.667Z" fill="white"/>
  <path d="M48.8735 34.3012H51.1771L46.1344 20.3345H43.8018L38.759 34.3012H40.9852L42.2725 30.5942H47.5959L48.8735 34.3012ZM44.8568 22.8704H45.0213L47.0442 28.7746H42.8242L44.8568 22.8704Z" fill="white"/>
  <path d="M40.1074 9.7998V16.5374H42.5401C44.5478 16.5374 45.7104 15.3001 45.7104 13.1476C45.7104 11.0278 44.5385 9.7998 42.5401 9.7998H40.1074ZM41.1533 10.7523H42.4233C43.8194 10.7523 44.6459 11.6395 44.6459 13.1616C44.6459 14.7071 43.8334 15.5849 42.4233 15.5849H41.1533V10.7523Z" fill="white"/>
  <path d="M49.2712 16.6355C50.756 16.6355 51.6665 15.641 51.6665 13.9927C51.6665 12.3539 50.7513 11.3546 49.2712 11.3546C47.7864 11.3546 46.8712 12.3539 46.8712 13.9927C46.8712 15.641 47.7817 16.6355 49.2712 16.6355ZM49.2712 15.7437C48.398 15.7437 47.9078 15.104 47.9078 13.9927C47.9078 12.8908 48.398 12.2465 49.2712 12.2465C50.1396 12.2465 50.6346 12.8908 50.6346 13.9927C50.6346 15.0993 50.1396 15.7437 49.2712 15.7437Z" fill="white"/>
  <path d="M59.4201 11.4527H58.4162L57.5104 15.3328H57.431L56.3851 11.4527H55.4233L54.3774 15.3328H54.3027L53.3922 11.4527H52.3743L53.7751 16.5374H54.807L55.8529 12.7928H55.9322L56.9828 16.5374H58.024L59.4201 11.4527Z" fill="white"/>
  <path d="M60.5762 16.5374H61.5801V13.5632C61.5801 12.7694 62.0517 12.2745 62.7941 12.2745C63.5365 12.2745 63.8913 12.6807 63.8913 13.4978V16.5374H64.8952V13.2457C64.8952 12.0363 64.2695 11.3546 63.1349 11.3546C62.3692 11.3546 61.8649 11.6955 61.6174 12.2605H61.5427V11.4527H60.5762V16.5374Z" fill="white"/>
  <path d="M66.4762 16.5374H67.4801V9.46829H66.4762V16.5374Z" fill="white"/>
  <path d="M71.2556 16.6355C72.7404 16.6355 73.6509 15.641 73.6509 13.9927C73.6509 12.3539 72.7357 11.3546 71.2556 11.3546C69.7708 11.3546 68.8556 12.3539 68.8556 13.9927C68.8556 15.641 69.7661 16.6355 71.2556 16.6355ZM71.2556 15.7437C70.3824 15.7437 69.8922 15.104 69.8922 13.9927C69.8922 12.8908 70.3824 12.2465 71.2556 12.2465C72.1241 12.2465 72.619 12.8908 72.619 13.9927C72.619 15.0993 72.1241 15.7437 71.2556 15.7437Z" fill="white"/>
  <path d="M76.642 15.7764C76.0957 15.7764 75.6988 15.5102 75.6988 15.0526C75.6988 14.6044 76.0163 14.3663 76.7167 14.3196L77.9587 14.2402V14.6651C77.9587 15.2954 77.3984 15.7764 76.642 15.7764ZM76.3852 16.6215C77.0528 16.6215 77.6085 16.332 77.912 15.8231H77.9914V16.5374H78.9579V13.0636C78.9579 11.9897 78.2388 11.3546 76.9641 11.3546C75.8108 11.3546 74.9891 11.9149 74.8863 12.7881H75.8575C75.9696 12.4286 76.3571 12.2231 76.9174 12.2231C77.6038 12.2231 77.9587 12.5266 77.9587 13.0636V13.5025L76.5813 13.5818C75.3719 13.6566 74.6902 14.1842 74.6902 15.0993C74.6902 16.0285 75.4046 16.6215 76.3852 16.6215Z" fill="white"/>
  <path d="M82.3645 16.6215C83.0649 16.6215 83.6579 16.29 83.9614 15.7343H84.0408V16.5374H85.0026V9.46829H83.9987V12.2605H83.924C83.6485 11.7002 83.0602 11.3687 82.3645 11.3687C81.0805 11.3687 80.254 12.3865 80.254 13.9927C80.254 15.6036 81.0712 16.6215 82.3645 16.6215ZM82.6493 12.2698C83.4898 12.2698 84.0174 12.9375 84.0174 13.9974C84.0174 15.062 83.4945 15.7203 82.6493 15.7203C81.7995 15.7203 81.2906 15.0713 81.2906 13.9927C81.2906 12.9235 81.8042 12.2698 82.6493 12.2698Z" fill="white"/>
  <path d="M91.5124 16.6355C92.9972 16.6355 93.9077 15.641 93.9077 13.9927C93.9077 12.3539 92.9925 11.3546 91.5124 11.3546C90.0276 11.3546 89.1124 12.3539 89.1124 13.9927C89.1124 15.641 90.0229 16.6355 91.5124 16.6355ZM91.5124 15.7437C90.6393 15.7437 90.149 15.104 90.149 13.9927C90.149 12.8908 90.6393 12.2465 91.5124 12.2465C92.3809 12.2465 92.8758 12.8908 92.8758 13.9927C92.8758 15.0993 92.3809 15.7437 91.5124 15.7437Z" fill="white"/>
  <path d="M95.2365 16.5374H96.2404V13.5632C96.2404 12.7694 96.712 12.2745 97.4544 12.2745C98.1968 12.2745 98.5517 12.6807 98.5517 13.4978V16.5374H99.5555V13.2457C99.5555 12.0363 98.9299 11.3546 97.7953 11.3546C97.0295 11.3546 96.5252 11.6955 96.2778 12.2605H96.2031V11.4527H95.2365V16.5374Z" fill="white"/>
  <path d="M104.179 10.1873V11.476H103.371V12.3212H104.179V15.1927C104.179 16.1732 104.623 16.5655 105.738 16.5655C105.935 16.5655 106.121 16.5421 106.285 16.5141V15.6783C106.145 15.6923 106.056 15.7017 105.902 15.7017C105.402 15.7017 105.183 15.4682 105.183 14.9359V12.3212H106.285V11.476H105.183V10.1873H104.179Z" fill="white"/>
  <path d="M107.632 16.5374H108.636V13.5678C108.636 12.7974 109.094 12.2791 109.916 12.2791C110.625 12.2791 111.003 12.69 111.003 13.5025V16.5374H112.007V13.255C112.007 12.0457 111.34 11.3593 110.256 11.3593C109.491 11.3593 108.954 11.7002 108.706 12.2698H108.627V9.46829H107.632V16.5374Z" fill="white"/>
  <path d="M115.629 12.2091C116.371 12.2091 116.857 12.7274 116.88 13.5258H114.312C114.368 12.7321 114.886 12.2091 115.629 12.2091ZM116.875 15.1647C116.689 15.5616 116.273 15.781 115.666 15.781C114.863 15.781 114.345 15.2161 114.312 14.3242V14.2682H117.903V13.918C117.903 12.3212 117.048 11.3546 115.633 11.3546C114.2 11.3546 113.289 12.3865 113.289 14.0114C113.289 15.6363 114.181 16.6355 115.638 16.6355C116.801 16.6355 117.613 16.0752 117.842 15.1647H116.875Z" fill="white"/>
  <path d="M27.8652 22.8384C27.8896 20.9473 28.9052 19.1579 30.5164 18.1674C29.5 16.7157 27.7975 15.7954 26.0263 15.74C24.1372 15.5417 22.3057 16.8704 21.3431 16.8704C20.3617 16.8704 18.8796 15.7597 17.2835 15.7925C15.2031 15.8597 13.2636 17.0425 12.2515 18.8613C10.0757 22.6283 11.6986 28.1645 13.7828 31.2094C14.8256 32.7004 16.0443 34.366 17.6389 34.3069C19.1993 34.2422 19.7821 33.3119 21.6657 33.3119C23.5318 33.3119 24.0786 34.3069 25.7056 34.2693C27.38 34.2422 28.435 32.7717 29.4412 31.2666C30.1904 30.2042 30.7669 29.03 31.1494 27.7875C29.1816 26.9552 27.8675 24.9749 27.8652 22.8384Z" fill="white"/>
  <path d="M24.7921 13.7375C25.7051 12.6415 26.1549 11.2328 26.046 9.81052C24.6511 9.95701 23.3627 10.6236 22.4374 11.6776C21.5326 12.7073 21.0617 14.0912 21.1507 15.4591C22.5461 15.4735 23.9178 14.8249 24.7921 13.7375Z" fill="white"/>
</svg>