<svg width="165" height="48" viewBox="0 0 165 48" fill="none" xmlns="http://www.w3.org/2000/svg">
<rect width="165" height="48" rx="7" fill="#25B679"/>
<path d="M38.6248 23.8185L38.6248 23.8185L38.6248 23.8274C38.6275 26.1759 40.0792 28.3284 42.264 29.3955C41.8507 30.4665 41.2793 31.4828 40.5642 32.4154L40.5596 32.4214L40.5552 32.4274C39.9713 33.2308 39.4132 33.9664 38.7812 34.5092C38.1624 35.0406 37.5019 35.3614 36.7093 35.3732L36.7056 35.3733C35.9042 35.3903 35.377 35.1838 34.7267 34.9292L34.7039 34.9203C34.0255 34.6546 33.2457 34.3569 32.0561 34.3569C30.8642 34.3569 30.0743 34.6325 29.3829 34.8981C29.3369 34.9158 29.2915 34.9333 29.2468 34.9506C28.6307 35.1886 28.1219 35.3851 27.3885 35.4133C26.675 35.4374 26.003 35.1111 25.328 34.5285C24.6498 33.943 24.0323 33.1548 23.4272 32.3591C22.2764 30.8119 21.2449 28.6174 20.8073 26.3355C20.3689 24.0495 20.5384 21.7477 21.688 19.9171L21.6881 19.9172L21.6931 19.9088C22.7501 18.162 24.797 17.0009 27.0133 16.934C27.8151 16.9195 28.6123 17.1691 29.4076 17.4579C29.5065 17.4938 29.6067 17.5309 29.7072 17.568C29.9956 17.6746 30.2867 17.7821 30.5568 17.8674C30.9214 17.9824 31.3094 18.0782 31.6837 18.0782C32.064 18.0782 32.4828 17.9614 32.8747 17.8313C33.0893 17.7601 33.3398 17.6688 33.5944 17.576C33.7911 17.5044 33.9902 17.4319 34.177 17.367C35.1035 17.0454 36.0752 16.7834 37.0319 16.8757L37.0515 16.8776L37.0713 16.8782C38.7211 16.9256 40.3063 17.626 41.3853 18.7381C39.7036 19.9311 38.6529 21.8149 38.6248 23.8185ZM35.23 13.7747L35.2299 13.7747L35.2231 13.7824C34.4513 14.6653 33.2841 15.2507 32.0428 15.3819C32.1079 14.2916 32.5738 13.2192 33.3699 12.3859L33.3701 12.3858C34.1972 11.5193 35.3088 10.9194 36.5382 10.6752C36.4836 11.8002 36.031 12.8903 35.23 13.7747Z" fill="white" stroke="white" stroke-width="1.17081"/>
<path d="M57.8047 31H55.5195L60.5977 16.8594H63.0781L68.1758 31H65.8906L64.6016 27.2695H59.0938L57.8047 31ZM59.7188 25.4727H63.9766L61.8867 19.4375H61.7891L59.7188 25.4727ZM69.7969 34.9844V20.3945H71.8281V22.1133H72.0039C72.375 21.4492 73.0977 20.2578 75.0508 20.2578C77.6094 20.2578 79.5039 22.2695 79.5039 25.7266C79.5039 29.1445 77.6484 31.2148 75.0703 31.2148C73.1367 31.2148 72.375 30.043 72.0039 29.3398H71.8867V34.9844H69.7969ZM71.8477 25.6875C71.8477 27.9141 72.8242 29.4375 74.6016 29.4375C76.4375 29.4375 77.3945 27.8164 77.3945 25.6875C77.3945 23.5977 76.457 22.0352 74.6016 22.0352C72.8047 22.0352 71.8477 23.4805 71.8477 25.6875ZM81.5742 34.9844V20.3945H83.6055V22.1133H83.7812C84.1523 21.4492 84.875 20.2578 86.8281 20.2578C89.3867 20.2578 91.2812 22.2695 91.2812 25.7266C91.2812 29.1445 89.4258 31.2148 86.8477 31.2148C84.9141 31.2148 84.1523 30.043 83.7812 29.3398H83.6641V34.9844H81.5742ZM83.625 25.6875C83.625 27.9141 84.6016 29.4375 86.3789 29.4375C88.2148 29.4375 89.1719 27.8164 89.1719 25.6875C89.1719 23.5977 88.2344 22.0352 86.3789 22.0352C84.582 22.0352 83.625 23.4805 83.625 25.6875ZM101.223 20.5898C101.086 19.2812 99.9336 18.5195 98.3125 18.5195C96.5742 18.5195 95.4805 19.3984 95.4805 20.6094C95.4805 21.957 96.9453 22.4648 98.0586 22.7383L99.4258 23.1094C101.242 23.5391 103.488 24.5352 103.508 27.0938C103.488 29.4766 101.594 31.2344 98.2539 31.2344C95.0898 31.2344 93.0977 29.6523 92.9609 27.0742H95.1094C95.2461 28.6172 96.5938 29.3594 98.2539 29.3594C100.051 29.3594 101.359 28.4414 101.379 27.0547C101.359 25.8242 100.207 25.3164 98.7031 24.9258L97.0234 24.4766C94.7578 23.8516 93.332 22.6992 93.332 20.7266C93.332 18.2852 95.5195 16.6641 98.3711 16.6641C101.242 16.6641 103.254 18.3047 103.312 20.5898H101.223ZM110.598 20.3945V22.0547H108.43V27.875C108.43 29.0664 109.035 29.2812 109.699 29.3008C109.992 29.3008 110.461 29.2617 110.754 29.2422V31.0586C110.461 31.0977 110.012 31.1367 109.445 31.1367C107.805 31.1367 106.34 30.2383 106.359 28.3047V22.0547H104.797V20.3945H106.359V17.8555H108.43V20.3945H110.598ZM117.004 31.2148C113.996 31.2148 112.043 29.0273 112.043 25.7461C112.043 22.4453 113.996 20.2578 117.004 20.2578C119.992 20.2578 121.945 22.4453 121.945 25.7461C121.945 29.0273 119.992 31.2148 117.004 31.2148ZM117.004 29.4766C118.918 29.4766 119.836 27.7773 119.836 25.7461C119.836 23.7148 118.918 21.9766 117.004 21.9766C115.051 21.9766 114.133 23.7148 114.133 25.7461C114.133 27.7773 115.051 29.4766 117.004 29.4766ZM123.996 31V20.3945H126.008V22.0742H126.125C126.516 20.9414 127.57 20.2383 128.82 20.2383C129.074 20.2383 129.484 20.2578 129.699 20.2773V22.2695C129.523 22.2305 129.035 22.1523 128.605 22.1523C127.16 22.1523 126.086 23.1484 126.086 24.5352V31H123.996ZM135.48 31.2148C132.355 31.2148 130.441 29.0664 130.441 25.7656C130.441 22.5039 132.395 20.2578 135.344 20.2578C137.766 20.2578 140.051 21.7617 140.051 25.5898V26.332H132.512C132.57 28.3438 133.752 29.4961 135.5 29.4961C136.691 29.4961 137.453 28.9883 137.805 28.3438H139.914C139.445 30.0625 137.805 31.2148 135.48 31.2148ZM132.531 24.7695H138C138 23.1484 136.965 21.9766 135.363 21.9766C133.693 21.9766 132.609 23.2656 132.531 24.7695Z" fill="white"/>
</svg>
