<svg width="180" height="48" viewBox="0 0 180 48" fill="none" xmlns="http://www.w3.org/2000/svg">
<rect width="180" height="48" rx="7" fill="#25B679"/>
<g filter="url(#filter0_ii_149_36)">
<path d="M20.0899 13.252C20.0899 12.6663 20.2492 12.2266 20.506 11.9486L20.5112 11.9434L32.2262 23.895V24.0002V24.1055L20.5108 36.0566L20.5058 36.0517C20.2491 35.7736 20.0899 35.3349 20.0899 34.7485V13.252Z" fill="white" stroke="#25B679" stroke-width="0.17972"/>
<path d="M36.2945 19.973L36.2946 19.973L40.9567 22.6751C41.6055 23.0513 41.9102 23.5348 41.9102 24.0006C41.9102 24.4663 41.6055 24.9501 40.9567 25.3268L36.2955 28.0283L36.2946 28.0289L36.266 28.045L32.4058 24.1052V24V23.8947L36.2663 19.9566L36.2945 19.973Z" fill="white" stroke="#25B679" stroke-width="0.17972"/>
<g filter="url(#filter1_i_149_36)">
<path d="M36.3398 28.1057L32.3151 24L20.4412 36.1139C20.8795 36.5882 21.6045 36.6465 22.4211 36.1741L36.3398 28.1057Z" fill="white"/>
</g>
<path d="M32.3151 24.1284L20.5674 36.1134C20.9725 36.4908 21.6196 36.534 22.376 36.0964L32.3151 24.1284ZM32.3151 24.1284L36.1947 28.0859L22.3761 36.0963L32.3151 24.1284Z" stroke="#25B679" stroke-width="0.17972"/>
<path d="M22.376 11.9044L22.376 11.9044L36.1947 19.9139L32.3161 23.8724L20.5674 11.8874C20.9726 11.5098 21.6196 11.4659 22.376 11.9044Z" fill="white" stroke="#25B679" stroke-width="0.17972"/>
</g>
<path d="M55.5273 31V16.8594H60.5664C63.8477 16.8594 65.4688 18.832 65.4688 21.4492C65.4688 24.0469 63.8477 26.0391 60.5664 26.0391H57.6758V31H55.5273ZM57.6758 24.2031H60.3516C62.4414 24.2031 63.3008 23.0312 63.3008 21.4492C63.3008 19.8477 62.4414 18.6953 60.3516 18.6953H57.6758V24.2031ZM69.6484 16.8594V31H67.5586V16.8594H69.6484ZM71.6992 28.0117C71.6992 25.5898 73.75 24.9648 75.6641 24.8281C76.3672 24.7793 77.959 24.6914 78.457 24.6719L78.4375 23.832C78.4375 22.6406 77.7148 21.9375 76.2891 21.9375C75.0586 21.9375 74.3164 22.5039 74.1016 23.2852H72.0312C72.2266 21.5273 73.8672 20.2578 76.3672 20.2578C78.0469 20.2578 80.5273 20.8828 80.5273 23.9492V31H78.4961V29.5547H78.418C78.0078 30.3555 77.0312 31.2344 75.2734 31.2344C73.2617 31.2344 71.6992 30.082 71.6992 28.0117ZM73.7305 28.0312C73.7305 29.0469 74.5703 29.5742 75.7422 29.5742C77.4414 29.5742 78.457 28.4414 78.457 27.1719V26.1953L75.957 26.3711C74.5898 26.4688 73.7305 26.9766 73.7305 28.0312ZM83.9453 34.9844C83.5156 34.9844 83.1055 34.9648 82.832 34.9258V33.1875C83.0664 33.207 83.4766 33.2266 83.7695 33.2266C84.4141 33.2266 84.9609 33.168 85.4492 31.8398L85.7031 31.1367L81.8164 20.3945H84.043L86.7188 28.6172H86.8359L89.5117 20.3945H91.7578L87.3828 32.4062C86.7773 34.0859 85.6836 34.9844 83.9453 34.9844ZM93.6328 16.8594H96.25L100.723 27.8164H100.898L105.371 16.8594H107.988V31H105.938V20.7852H105.801L101.66 30.9805H99.9609L95.8008 20.7656H95.6836V31H93.6328V16.8594ZM110.215 28.0117C110.215 25.5898 112.266 24.9648 114.18 24.8281C114.883 24.7793 116.475 24.6914 116.973 24.6719L116.953 23.832C116.953 22.6406 116.23 21.9375 114.805 21.9375C113.574 21.9375 112.832 22.5039 112.617 23.2852H110.547C110.742 21.5273 112.383 20.2578 114.883 20.2578C116.562 20.2578 119.043 20.8828 119.043 23.9492V31H117.012V29.5547H116.934C116.523 30.3555 115.547 31.2344 113.789 31.2344C111.777 31.2344 110.215 30.082 110.215 28.0117ZM112.246 28.0312C112.246 29.0469 113.086 29.5742 114.258 29.5742C115.957 29.5742 116.973 28.4414 116.973 27.1719V26.1953L114.473 26.3711C113.105 26.4688 112.246 26.9766 112.246 28.0312ZM121.562 31V20.3945H123.574V22.0742H123.691C124.082 20.9414 125.137 20.2383 126.387 20.2383C126.641 20.2383 127.051 20.2578 127.266 20.2773V22.2695C127.09 22.2305 126.602 22.1523 126.172 22.1523C124.727 22.1523 123.652 23.1484 123.652 24.5352V31H121.562ZM128.828 31V16.8594H130.918V24.8672H131.094L135.293 20.3945H137.793L133.516 24.9453L138.086 31H135.527L131.934 26.2344L130.918 27.2305V31H128.828ZM143.555 31.2148C140.43 31.2148 138.516 29.0664 138.516 25.7656C138.516 22.5039 140.469 20.2578 143.418 20.2578C145.84 20.2578 148.125 21.7617 148.125 25.5898V26.332H140.586C140.645 28.3438 141.826 29.4961 143.574 29.4961C144.766 29.4961 145.527 28.9883 145.879 28.3438H147.988C147.52 30.0625 145.879 31.2148 143.555 31.2148ZM140.605 24.7695H146.074C146.074 23.1484 145.039 21.9766 143.438 21.9766C141.768 21.9766 140.684 23.2656 140.605 24.7695ZM155.156 20.3945V22.0547H152.988V27.875C152.988 29.0664 153.594 29.2812 154.258 29.3008C154.551 29.3008 155.02 29.2617 155.312 29.2422V31.0586C155.02 31.0977 154.57 31.1367 154.004 31.1367C152.363 31.1367 150.898 30.2383 150.918 28.3047V22.0547H149.355V20.3945H150.918V17.8555H152.988V20.3945H155.156Z" fill="white"/>
<defs>
<filter id="filter0_ii_149_36" x="20" y="11.5" width="22" height="25" filterUnits="userSpaceOnUse" color-interpolation-filters="sRGB">
<feFlood flood-opacity="0" result="BackgroundImageFix"/>
<feBlend mode="normal" in="SourceGraphic" in2="BackgroundImageFix" result="shape"/>
<feColorMatrix in="SourceAlpha" type="matrix" values="0 0 0 0 0 0 0 0 0 0 0 0 0 0 0 0 0 0 127 0" result="hardAlpha"/>
<feOffset dy="-0.142877"/>
<feComposite in2="hardAlpha" operator="arithmetic" k2="-1" k3="1"/>
<feColorMatrix type="matrix" values="0 0 0 0 0 0 0 0 0 0 0 0 0 0 0 0 0 0 0.12 0"/>
<feBlend mode="normal" in2="shape" result="effect1_innerShadow_149_36"/>
<feColorMatrix in="SourceAlpha" type="matrix" values="0 0 0 0 0 0 0 0 0 0 0 0 0 0 0 0 0 0 127 0" result="hardAlpha"/>
<feOffset dy="0.142877"/>
<feComposite in2="hardAlpha" operator="arithmetic" k2="-1" k3="1"/>
<feColorMatrix type="matrix" values="0 0 0 0 1 0 0 0 0 1 0 0 0 0 1 0 0 0 0.25 0"/>
<feBlend mode="normal" in2="effect1_innerShadow_149_36" result="effect2_innerShadow_149_36"/>
</filter>
<filter id="filter1_i_149_36" x="20.4412" y="24" width="15.8987" height="12.5" filterUnits="userSpaceOnUse" color-interpolation-filters="sRGB">
<feFlood flood-opacity="0" result="BackgroundImageFix"/>
<feBlend mode="normal" in="SourceGraphic" in2="BackgroundImageFix" result="shape"/>
<feColorMatrix in="SourceAlpha" type="matrix" values="0 0 0 0 0 0 0 0 0 0 0 0 0 0 0 0 0 0 127 0" result="hardAlpha"/>
<feOffset dy="-0.142877"/>
<feComposite in2="hardAlpha" operator="arithmetic" k2="-1" k3="1"/>
<feColorMatrix type="matrix" values="0 0 0 0 0 0 0 0 0 0 0 0 0 0 0 0 0 0 0.08 0"/>
<feBlend mode="normal" in2="shape" result="effect1_innerShadow_149_36"/>
</filter>
</defs>
</svg>
