<svg width="49" height="8" viewBox="0 0 49 8" fill="none" xmlns="http://www.w3.org/2000/svg">
<path id="Subtract" fill-rule="evenodd" clip-rule="evenodd" d="M42.9216 2.8336C42.9866 2.77526 43.054 2.72253 43.1235 2.6754C43.1953 2.62603 43.2705 2.58452 43.349 2.55086C43.4298 2.51496 43.5151 2.48803 43.6049 2.47008C43.6969 2.44988 43.7956 2.43978 43.9011 2.43978C44.0896 2.43978 44.2567 2.47232 44.4026 2.5374C44.5485 2.60247 44.6708 2.69335 44.7695 2.81004C44.8705 2.92673 44.9457 3.06586 44.995 3.22743C45.0466 3.38899 45.0724 3.56627 45.0724 3.75925V5.96398H44.1468V3.75925C44.1468 3.56627 44.1019 3.41704 44.0121 3.31158C43.9224 3.20386 43.79 3.15001 43.615 3.15001C43.4848 3.15001 43.3625 3.17806 43.2481 3.23416C43.1336 3.29026 43.0248 3.3688 42.9216 3.46978V5.96398H41.9925V0.945282H42.9216V2.8336ZM4.5453 4.5065C4.66648 4.20581 4.72706 3.87706 4.72706 3.52027C4.72706 3.16572 4.66648 2.83921 4.5453 2.54076C4.42637 2.24231 4.25695 1.98537 4.03703 1.76995C3.81937 1.55228 3.55682 1.38286 3.24939 1.26169C2.94196 1.14051 2.60087 1.07992 2.22613 1.07992H0.3479V5.96398H2.22613C2.60087 5.96398 2.94196 5.90339 3.24939 5.78221C3.55682 5.66104 3.81937 5.49274 4.03703 5.27732C4.25695 5.06189 4.42637 4.80495 4.5453 4.5065ZM3.58936 2.83024C3.65668 3.03444 3.69034 3.26445 3.69034 3.52027C3.69034 3.77833 3.65668 4.00946 3.58936 4.21366C3.52204 4.41787 3.42554 4.59177 3.29988 4.73539C3.17422 4.87676 3.0205 4.9856 2.83874 5.06189C2.65922 5.13594 2.45501 5.17297 2.22613 5.17297H1.36443V1.87093H2.22613C2.45501 1.87093 2.65922 1.90908 2.83874 1.98537C3.0205 2.06167 3.17422 2.1705 3.29988 2.31188C3.42554 2.45325 3.52204 2.62603 3.58936 2.83024ZM5.86156 2.56433C5.61472 2.65408 5.3892 2.79097 5.185 2.97498L5.34993 3.27118C5.3791 3.31606 5.41501 3.35533 5.45764 3.38899C5.50252 3.42041 5.5575 3.43612 5.62258 3.43612C5.69663 3.43612 5.7617 3.42153 5.8178 3.39236C5.8739 3.36094 5.93337 3.32841 5.9962 3.29475C6.06128 3.25884 6.13645 3.2263 6.22172 3.19713C6.307 3.16572 6.41359 3.15001 6.54149 3.15001C6.71428 3.15001 6.84668 3.20162 6.93868 3.30484C7.03068 3.40582 7.07669 3.56515 7.07669 3.78281V3.96121C6.6795 3.97019 6.34851 4.00946 6.08372 4.07902C5.82117 4.14634 5.61023 4.23274 5.45091 4.3382C5.29383 4.44143 5.18275 4.55699 5.11768 4.6849C5.0526 4.81281 5.02006 4.94072 5.02006 5.06862C5.02006 5.22346 5.04475 5.36034 5.09411 5.47928C5.14348 5.59821 5.21305 5.69806 5.30281 5.77885C5.39481 5.85739 5.50364 5.91685 5.62931 5.95725C5.75497 5.99764 5.8941 6.01783 6.04669 6.01783C6.17011 6.01783 6.28119 6.00774 6.37993 5.98754C6.48091 5.96734 6.57515 5.93817 6.66267 5.90002C6.75019 5.85963 6.83434 5.81026 6.91512 5.75192C6.99815 5.69358 7.08342 5.62626 7.17093 5.54996L7.24499 5.77212C7.27416 5.85066 7.31118 5.90227 7.35606 5.92695C7.40319 5.95164 7.47051 5.96398 7.55802 5.96398H7.98214V3.78281C7.98214 3.58534 7.95185 3.40358 7.89126 3.23752C7.83067 3.07147 7.74316 2.92897 7.62871 2.81004C7.51651 2.68887 7.3785 2.59462 7.21469 2.5273C7.05312 2.45998 6.86912 2.42632 6.66267 2.42632C6.37544 2.42632 6.1084 2.47232 5.86156 2.56433ZM6.13354 4.5348C5.79436 4.65825 5.58612 4.94163 5.66842 5.16775C5.75072 5.39387 6.0924 5.4771 6.43157 5.35365C6.77075 5.2302 6.97899 4.94682 6.89669 4.7207C6.81439 4.49458 6.47272 4.41135 6.13354 4.5348ZM10.8649 3.20723C10.8402 3.24538 10.8144 3.27343 10.7875 3.29138C10.7628 3.30709 10.728 3.31494 10.6831 3.31494C10.6383 3.31494 10.5923 3.30372 10.5451 3.28128C10.498 3.25884 10.4453 3.23528 10.3869 3.2106C10.3286 3.18367 10.2613 3.15898 10.185 3.13654C10.1109 3.1141 10.0245 3.10288 9.92579 3.10288C9.77545 3.10288 9.65876 3.1343 9.57573 3.19713C9.4927 3.25772 9.45119 3.3385 9.45119 3.43948C9.45119 3.50905 9.47475 3.56739 9.52187 3.61451C9.569 3.66164 9.63071 3.70315 9.707 3.73906C9.78554 3.77272 9.87418 3.80525 9.97292 3.83667C10.0717 3.86584 10.1726 3.89838 10.2759 3.93428C10.3813 3.97019 10.4834 4.0117 10.5822 4.05883C10.6809 4.10595 10.7684 4.16542 10.8447 4.23722C10.9233 4.30679 10.9861 4.39206 11.0332 4.49304C11.0803 4.59177 11.1039 4.71183 11.1039 4.8532C11.1039 5.0215 11.0725 5.17746 11.0096 5.32107C10.9491 5.46245 10.8593 5.58474 10.7404 5.68797C10.6214 5.79119 10.4733 5.87197 10.2961 5.93032C10.1188 5.98866 9.91457 6.01783 9.68344 6.01783C9.56451 6.01783 9.4467 6.00661 9.33001 5.98417C9.21332 5.96398 9.10225 5.93481 8.99678 5.89666C8.89131 5.85627 8.79257 5.81026 8.70057 5.75865C8.60857 5.70704 8.5289 5.65094 8.46159 5.59035L8.67701 5.24366C8.70169 5.20326 8.73199 5.17185 8.76789 5.14941C8.80604 5.12697 8.85428 5.11575 8.91263 5.11575C8.96873 5.11575 9.02034 5.13033 9.06746 5.15951C9.11459 5.18643 9.16732 5.21673 9.22567 5.25039C9.28401 5.2818 9.35245 5.3121 9.43099 5.34127C9.51178 5.3682 9.61163 5.38166 9.73057 5.38166C9.82033 5.38166 9.89774 5.37156 9.96282 5.35137C10.0279 5.33117 10.0806 5.30424 10.121 5.27058C10.1614 5.23468 10.1906 5.19541 10.2085 5.15277C10.2287 5.10789 10.2388 5.06189 10.2388 5.01477C10.2388 4.93847 10.2141 4.87676 10.1648 4.82964C10.1177 4.78027 10.0548 4.73763 9.97628 4.70173C9.89999 4.66583 9.81135 4.63329 9.71037 4.60412C9.60939 4.57495 9.50617 4.54241 9.4007 4.5065C9.29747 4.4706 9.19537 4.42796 9.09439 4.3786C8.99566 4.32923 8.90702 4.26752 8.82848 4.19347C8.75218 4.11717 8.68935 4.02404 8.63998 3.91409C8.59286 3.80413 8.5693 3.67061 8.5693 3.51354C8.5693 3.36992 8.59735 3.23416 8.65345 3.10625C8.70955 2.9761 8.7937 2.86165 8.9059 2.76292C9.0181 2.66418 9.15722 2.58564 9.32328 2.5273C9.49158 2.46896 9.68569 2.43978 9.9056 2.43978C10.1524 2.43978 10.3768 2.48018 10.5788 2.56096C10.7808 2.64174 10.9468 2.74721 11.077 2.87736L10.8649 3.20723ZM12.4663 5.95051C12.5875 5.99539 12.7266 6.01783 12.8837 6.01783C13.0565 6.01783 13.2237 5.99203 13.3852 5.94042C13.5468 5.8888 13.6916 5.81251 13.8195 5.71153L13.5401 5.26722C13.5221 5.23805 13.5042 5.21785 13.4862 5.20663C13.4683 5.19317 13.4458 5.18643 13.4189 5.18643C13.3987 5.18643 13.3785 5.19204 13.3583 5.20326C13.3404 5.21224 13.3202 5.22346 13.2977 5.23692C13.2753 5.24814 13.2484 5.25936 13.2169 5.27058C13.1855 5.27956 13.1474 5.28405 13.1025 5.28405C13.0172 5.28405 12.951 5.256 12.9039 5.1999C12.859 5.1438 12.8366 5.0675 12.8366 4.97101V3.16011H13.7319V2.51383H12.8366V1.45691H12.3519C12.2397 1.45691 12.1712 1.5074 12.1466 1.60838L11.9581 2.5071L11.4027 2.60808V2.97161C11.4027 3.03444 11.4195 3.08157 11.4532 3.11298C11.4891 3.1444 11.5317 3.16011 11.5811 3.16011H11.9076V5.0316C11.9076 5.18419 11.9289 5.32107 11.9715 5.44225C12.0142 5.56343 12.077 5.66665 12.16 5.75192C12.2431 5.83719 12.3452 5.90339 12.4663 5.95051ZM17.2759 2.49364V5.96398H16.7036C16.5847 5.96398 16.5084 5.91012 16.4748 5.80241L16.4142 5.56006C16.3446 5.62738 16.2728 5.68909 16.1987 5.74519C16.1247 5.80129 16.045 5.84953 15.9598 5.88993C15.8767 5.93032 15.7859 5.96173 15.6871 5.98417C15.5906 6.00661 15.4852 6.01783 15.3707 6.01783C15.1822 6.01783 15.0139 5.9853 14.8658 5.92022C14.72 5.85514 14.5977 5.76426 14.4989 5.64757C14.4002 5.53089 14.325 5.39176 14.2734 5.23019C14.2218 5.06862 14.196 4.89135 14.196 4.69836V2.49364H15.125V4.69836C15.125 4.89135 15.1688 5.0417 15.2563 5.14941C15.346 5.25488 15.4784 5.30761 15.6535 5.30761C15.7836 5.30761 15.9059 5.27956 16.0204 5.22346C16.1348 5.16512 16.2436 5.08658 16.3469 4.98784V2.49364H17.2759ZM19.2948 2.59798C19.1512 2.71243 19.0244 2.86839 18.9145 3.06586L18.864 2.71916C18.8483 2.63613 18.8225 2.57779 18.7866 2.54413C18.7507 2.51047 18.6856 2.49364 18.5913 2.49364H18.0427V5.96398H18.9717V3.84004C19.0076 3.75701 19.0458 3.68296 19.0861 3.61788C19.1288 3.55281 19.1759 3.49783 19.2275 3.45295C19.2791 3.40807 19.3375 3.37329 19.4025 3.3486C19.4699 3.32392 19.5462 3.31158 19.6314 3.31158C19.6898 3.31158 19.7526 3.31719 19.8199 3.32841C19.8873 3.33738 19.9389 3.34187 19.9748 3.34187C20.0152 3.34187 20.0466 3.33402 20.069 3.31831C20.0937 3.30036 20.1117 3.26894 20.1229 3.22406L20.1835 2.5374C20.0847 2.46335 19.9568 2.42632 19.7997 2.42632C19.6068 2.42632 19.4385 2.48354 19.2948 2.59798ZM23.7814 5.96398H22.8894C22.8221 5.96398 22.7671 5.94715 22.7245 5.91349C22.6841 5.87983 22.6515 5.84056 22.6269 5.79568L21.9436 4.65461C21.9234 4.7309 21.8942 4.79822 21.856 4.85657L21.2704 5.79568C21.2434 5.83831 21.2098 5.87758 21.1694 5.91349C21.1312 5.94715 21.0819 5.96398 21.0213 5.96398H20.1932L21.3713 4.17327L20.2404 2.49364H21.1324C21.1997 2.49364 21.249 2.50262 21.2805 2.52057C21.3119 2.53852 21.3399 2.56769 21.3646 2.60808L22.0445 3.70876C22.0558 3.67061 22.0703 3.63247 22.0883 3.59432C22.1063 3.55393 22.1276 3.51466 22.1523 3.47651L22.674 2.62491C22.7278 2.5374 22.7974 2.49364 22.8827 2.49364H23.7343L22.6033 4.13288L23.7814 5.96398ZM26.2809 2.56433C26.0677 2.4813 25.831 2.43978 25.5707 2.43978C25.3081 2.43978 25.0692 2.4813 24.8537 2.56433C24.6405 2.64735 24.4577 2.76628 24.3051 2.92112C24.1525 3.07371 24.0335 3.25996 23.9483 3.47988C23.8652 3.69979 23.8237 3.94775 23.8237 4.22376C23.8237 4.49977 23.8652 4.74885 23.9483 4.97101C24.0335 5.19092 24.1525 5.3783 24.3051 5.53313C24.4577 5.68797 24.6405 5.8069 24.8537 5.88993C25.0692 5.97295 25.3081 6.01447 25.5707 6.01447C25.831 6.01447 26.0677 5.97295 26.2809 5.88993C26.4941 5.8069 26.677 5.68797 26.8296 5.53313C26.9822 5.3783 27.1 5.19092 27.183 4.97101C27.266 4.74885 27.3075 4.49977 27.3075 4.22376C27.3075 3.94775 27.266 3.69979 27.183 3.47988C27.1 3.25996 26.9822 3.07371 26.8296 2.92112C26.677 2.76628 26.4941 2.64735 26.2809 2.56433ZM26.1597 5.04506C26.0318 5.22683 25.8355 5.31771 25.5707 5.31771C25.2992 5.31771 25.0994 5.22683 24.9715 5.04506C24.8436 4.86105 24.7797 4.58841 24.7797 4.22713C24.7797 3.86809 24.8436 3.59768 24.9715 3.41592C25.0994 3.23191 25.2992 3.13991 25.5707 3.13991C25.8355 3.13991 26.0318 3.23191 26.1597 3.41592C26.2876 3.59768 26.3516 3.86809 26.3516 4.22713C26.3516 4.58841 26.2876 4.86105 26.1597 5.04506ZM28.7526 2.89756C28.8221 2.83024 28.8939 2.76853 28.968 2.71243C29.0443 2.65633 29.1239 2.60808 29.207 2.56769C29.2922 2.5273 29.3831 2.49588 29.4796 2.47344C29.5783 2.451 29.6849 2.43978 29.7994 2.43978C29.9879 2.43978 30.1551 2.47232 30.3009 2.5374C30.4468 2.60247 30.5691 2.69335 30.6678 2.81004C30.7688 2.92673 30.844 3.06586 30.8933 3.22743C30.9449 3.38899 30.9707 3.56627 30.9707 3.75925V5.96398H30.0451V3.75925C30.0451 3.56627 30.0002 3.41704 29.9105 3.31158C29.8207 3.20386 29.6883 3.15001 29.5133 3.15001C29.3831 3.15001 29.2608 3.17806 29.1464 3.23416C29.0319 3.29026 28.9231 3.3688 28.8199 3.46978V5.96398H27.8909V2.49364H28.4631C28.5798 2.49364 28.6572 2.5475 28.6953 2.65521L28.7526 2.89756ZM34.8038 2.94805V2.60808H33.7873C33.5607 2.49139 33.2992 2.43305 33.003 2.43305C32.8033 2.43305 32.6182 2.45886 32.4476 2.51047C32.2771 2.56208 32.129 2.63725 32.0033 2.73599C31.8777 2.83248 31.7789 2.95029 31.7071 3.08942C31.6375 3.22855 31.6028 3.38451 31.6028 3.55729C31.6028 3.76823 31.6544 3.95336 31.7576 4.11268C31.8608 4.26976 32.0011 4.39543 32.1783 4.48967C32.0213 4.56597 31.9046 4.66134 31.8283 4.77578C31.7542 4.89023 31.7172 4.99906 31.7172 5.10228C31.7172 5.23019 31.743 5.33454 31.7946 5.41532C31.8485 5.49386 31.9192 5.55782 32.0067 5.60718C31.8406 5.67226 31.7105 5.75865 31.6162 5.86636C31.522 5.97408 31.4749 6.10535 31.4749 6.26019C31.4749 6.37912 31.5063 6.49356 31.5691 6.60352C31.6319 6.71347 31.7273 6.80997 31.8552 6.89299C31.9854 6.97826 32.1481 7.04558 32.3433 7.09495C32.5408 7.14656 32.773 7.17237 33.04 7.17237C33.3093 7.17237 33.5494 7.13759 33.7604 7.06802C33.9713 6.99846 34.1486 6.90646 34.2922 6.79201C34.4381 6.67757 34.5491 6.54742 34.6254 6.40156C34.7017 6.2557 34.7399 6.10535 34.7399 5.95051C34.7399 5.78446 34.7073 5.6487 34.6423 5.54323C34.5794 5.43776 34.4953 5.35361 34.3898 5.29078C34.2866 5.2257 34.1677 5.1797 34.033 5.15277C33.9006 5.1236 33.7649 5.10341 33.6257 5.09219C33.4888 5.08097 33.3531 5.07423 33.2184 5.07199C33.086 5.0675 32.9671 5.05965 32.8616 5.04843C32.7584 5.03496 32.6743 5.01365 32.6092 4.98447C32.5464 4.9553 32.5149 4.90818 32.5149 4.8431C32.5149 4.77354 32.5621 4.70958 32.6563 4.65124C32.764 4.67144 32.8796 4.68154 33.003 4.68154C33.1982 4.68154 33.38 4.65573 33.5483 4.60412C33.7166 4.55026 33.8625 4.47509 33.9859 4.3786C34.1093 4.27986 34.2058 4.16205 34.2754 4.02517C34.3472 3.88604 34.3831 3.73008 34.3831 3.55729C34.3831 3.43163 34.364 3.31382 34.3259 3.20386L34.6086 3.14664C34.6782 3.13093 34.7275 3.10737 34.7567 3.07596C34.7881 3.04454 34.8038 3.0019 34.8038 2.94805ZM33.4238 3.95448C33.334 4.05097 33.1938 4.09922 33.003 4.09922C32.8145 4.09922 32.6743 4.05097 32.5823 3.95448C32.4925 3.85574 32.4476 3.7312 32.4476 3.58086C32.4476 3.42153 32.4925 3.29699 32.5823 3.20723C32.672 3.11523 32.8123 3.06922 33.003 3.06922C33.1938 3.06922 33.334 3.11523 33.4238 3.20723C33.5158 3.29699 33.5618 3.42153 33.5618 3.58086C33.5618 3.73345 33.5158 3.85799 33.4238 3.95448ZM33.8243 5.95725C33.8625 5.99539 33.8815 6.04476 33.8815 6.10535C33.8815 6.16594 33.867 6.22204 33.8378 6.27365C33.8109 6.32526 33.7649 6.36902 33.6998 6.40492C33.6347 6.44307 33.5494 6.47224 33.444 6.49244C33.3385 6.51264 33.2095 6.52273 33.0569 6.52273C32.9088 6.52273 32.7854 6.51264 32.6866 6.49244C32.5879 6.47449 32.5082 6.44868 32.4476 6.41502C32.387 6.38136 32.3433 6.34097 32.3164 6.29385C32.2917 6.24672 32.2793 6.19511 32.2793 6.13901C32.2793 6.05823 32.304 5.98642 32.3534 5.92359C32.405 5.85851 32.4701 5.80241 32.5486 5.75529C32.6496 5.76651 32.7528 5.77436 32.8583 5.77885C32.9637 5.78334 33.0658 5.78895 33.1646 5.79568C33.2633 5.80017 33.3564 5.80802 33.444 5.81924C33.5315 5.82822 33.6067 5.84392 33.6695 5.86636C33.7346 5.8888 33.7862 5.9191 33.8243 5.95725ZM35.2094 2.97498C35.4136 2.79097 35.6392 2.65408 35.886 2.56433C36.1328 2.47232 36.3999 2.42632 36.6871 2.42632C36.8936 2.42632 37.0776 2.45998 37.2391 2.5273C37.4029 2.59462 37.5409 2.68887 37.6531 2.81004C37.7676 2.92897 37.8551 3.07147 37.9157 3.23752C37.9763 3.40358 38.0066 3.58534 38.0066 3.78281V5.96398H37.5825C37.4949 5.96398 37.4276 5.95164 37.3805 5.92695C37.3356 5.90227 37.2986 5.85066 37.2694 5.77212L37.1954 5.54996C37.1079 5.62626 37.0226 5.69358 36.9396 5.75192C36.8588 5.81026 36.7746 5.85963 36.6871 5.90002C36.5996 5.93817 36.5053 5.96734 36.4044 5.98754C36.3056 6.00774 36.1945 6.01783 36.0711 6.01783C35.9185 6.01783 35.7794 5.99764 35.6537 5.95725C35.5281 5.91685 35.4192 5.85739 35.3272 5.77885C35.2375 5.69806 35.1679 5.59821 35.1185 5.47928C35.0692 5.36034 35.0445 5.22346 35.0445 5.06862C35.0445 4.94072 35.077 4.81281 35.1421 4.6849C35.2072 4.55699 35.3183 4.44143 35.4753 4.3382C35.6347 4.23274 35.8456 4.14634 36.1082 4.07902C36.3729 4.00946 36.7039 3.97019 37.1011 3.96121V3.78281C37.1011 3.56515 37.0551 3.40582 36.9631 3.30484C36.8711 3.20162 36.7387 3.15001 36.5659 3.15001C36.438 3.15001 36.3314 3.16572 36.2462 3.19713C36.1609 3.2263 36.0857 3.25884 36.0206 3.29475C35.9578 3.32841 35.8983 3.36094 35.8422 3.39236C35.7861 3.42153 35.7211 3.43612 35.647 3.43612C35.5819 3.43612 35.527 3.42041 35.4821 3.38899C35.4394 3.35533 35.4035 3.31606 35.3744 3.27118L35.2094 2.97498ZM35.6564 5.16775C35.5741 4.94163 35.7823 4.65825 36.1215 4.5348C36.4607 4.41135 36.8024 4.49458 36.8847 4.7207C36.967 4.94682 36.7587 5.2302 36.4195 5.35365C36.0804 5.4771 35.7387 5.39387 35.6564 5.16775ZM41.1687 3.35197C41.1956 3.33177 41.2226 3.30372 41.2495 3.26782L41.4919 2.93795C41.3325 2.77638 41.153 2.65296 40.9533 2.56769C40.7536 2.48242 40.5213 2.43978 40.2565 2.43978C39.9783 2.43978 39.7326 2.48579 39.5194 2.57779C39.3084 2.66755 39.1312 2.79209 38.9876 2.95141C38.8439 3.11074 38.7351 3.29923 38.661 3.5169C38.587 3.73457 38.55 3.97019 38.55 4.22376C38.55 4.50875 38.5915 4.76232 38.6745 4.98447C38.7598 5.20663 38.8742 5.394 39.0178 5.5466C39.1615 5.69919 39.3286 5.81588 39.5194 5.89666C39.7101 5.9752 39.9121 6.01447 40.1253 6.01447C40.2464 6.01447 40.3687 6.00549 40.4922 5.98754C40.6156 5.97183 40.7367 5.94266 40.8557 5.90002C40.9769 5.85514 41.0935 5.79568 41.2057 5.72163C41.3179 5.64533 41.4234 5.54996 41.5221 5.43552L41.2562 5.09892C41.2158 5.04506 41.1597 5.01813 41.0879 5.01813C41.0498 5.01813 41.015 5.02599 40.9836 5.0417C40.9544 5.05516 40.9241 5.07311 40.8927 5.09555C40.8635 5.11799 40.8321 5.14268 40.7985 5.1696C40.7648 5.19653 40.7244 5.22122 40.6773 5.24366C40.6324 5.2661 40.5785 5.28517 40.5157 5.30088C40.4551 5.31434 40.3822 5.32107 40.2969 5.32107C40.0501 5.32107 39.8549 5.22683 39.7112 5.03833C39.5699 4.84983 39.4992 4.57831 39.4992 4.22376C39.4992 4.05546 39.5149 3.90399 39.5463 3.76935C39.58 3.63471 39.6305 3.52027 39.6978 3.42602C39.7651 3.33177 39.8492 3.25996 39.9502 3.2106C40.0535 3.15898 40.1746 3.13318 40.3138 3.13318C40.4237 3.13318 40.5157 3.14664 40.5898 3.17357C40.6638 3.19825 40.7278 3.2263 40.7816 3.25772C40.8355 3.28689 40.8826 3.31494 40.923 3.34187C40.9656 3.36655 41.0094 3.3789 41.0543 3.3789C41.1036 3.3789 41.1418 3.36992 41.1687 3.35197ZM46.4113 2.56433C46.1645 2.65408 45.9389 2.79097 45.7347 2.97498L45.8997 3.27118C45.9289 3.31606 45.9648 3.35533 46.0074 3.38899C46.0523 3.42041 46.1072 3.43612 46.1723 3.43612C46.2464 3.43612 46.3115 3.42153 46.3676 3.39236C46.4237 3.36094 46.4831 3.32841 46.546 3.29475C46.611 3.25884 46.6862 3.2263 46.7715 3.19713C46.8567 3.16572 46.9633 3.15001 47.0912 3.15001C47.264 3.15001 47.3964 3.20162 47.4884 3.30484C47.5804 3.40582 47.6264 3.56515 47.6264 3.78281V3.96121C47.2292 3.97019 46.8983 4.00946 46.6335 4.07902C46.3709 4.14634 46.16 4.23274 46.0007 4.3382C45.8436 4.44143 45.7325 4.55699 45.6674 4.6849C45.6023 4.81281 45.5698 4.94072 45.5698 5.06862C45.5698 5.22346 45.5945 5.36034 45.6439 5.47928C45.6932 5.59821 45.7628 5.69806 45.8526 5.77885C45.9446 5.85739 46.0534 5.91685 46.1791 5.95725C46.3047 5.99764 46.4438 6.01783 46.5964 6.01783C46.7199 6.01783 46.8309 6.00774 46.9297 5.98754C47.0307 5.96734 47.1249 5.93817 47.2124 5.90002C47.2999 5.85963 47.3841 5.81026 47.4649 5.75192C47.5479 5.69358 47.6332 5.62626 47.7207 5.54996L47.7947 5.77212C47.8239 5.85066 47.8609 5.90227 47.9058 5.92695C47.9529 5.95164 48.0203 5.96398 48.1078 5.96398H48.5319V3.78281C48.5319 3.58534 48.5016 3.40358 48.441 3.23752C48.3804 3.07147 48.2929 2.92897 48.1785 2.81004C48.0663 2.68887 47.9283 2.59462 47.7644 2.5273C47.6029 2.45998 47.4189 2.42632 47.2124 2.42632C46.9252 2.42632 46.6581 2.47232 46.4113 2.56433ZM46.6479 4.5654C46.3087 4.68885 46.1005 4.97223 46.1828 5.19835C46.2651 5.42447 46.6067 5.5077 46.9459 5.38425C47.2851 5.2608 47.4933 4.97742 47.411 4.7513C47.3287 4.52518 46.9871 4.44195 46.6479 4.5654Z" fill="#25B679"/>
</svg>
