<svg width="88" height="20" viewBox="0 0 88 20" fill="none" xmlns="http://www.w3.org/2000/svg">
<path id="Subtract" fill-rule="evenodd" clip-rule="evenodd" d="M34.1484 0.827637V19.0774H30.7702V0.827637H34.1484ZM15.6112 13.7775C16.0518 12.6841 16.2721 11.4887 16.2721 10.1912C16.2721 8.90194 16.0518 7.71466 15.6112 6.62939C15.1787 5.54411 14.5626 4.60979 13.7629 3.82643C12.9714 3.03491 12.0167 2.41883 10.8988 1.97819C9.78085 1.53755 8.54053 1.31724 7.17781 1.31724H0.3479V19.0774H7.17781C8.54053 19.0774 9.78085 18.8571 10.8988 18.4165C12.0167 17.9758 12.9714 17.3638 13.7629 16.5805C14.5626 15.7971 15.1787 14.8628 15.6112 13.7775ZM12.135 7.68202C12.3798 8.42458 12.5022 9.26098 12.5022 10.1912C12.5022 11.1296 12.3798 11.9701 12.135 12.7127C11.8902 13.4552 11.5393 14.0876 11.0824 14.6099C10.6254 15.1239 10.0665 15.5197 9.40549 15.7971C8.75269 16.0664 8.01013 16.201 7.17781 16.201H4.04438V4.19363H7.17781C8.01013 4.19363 8.75269 4.33235 9.40549 4.60979C10.0665 4.88723 10.6254 5.28299 11.0824 5.79707C11.5393 6.31115 11.8902 6.93947 12.135 7.68202ZM20.3976 6.71507C19.5 7.04147 18.6799 7.53922 17.9373 8.20834L18.5371 9.28546C18.6432 9.44866 18.7737 9.59146 18.9288 9.71386C19.092 9.8281 19.2919 9.88522 19.5285 9.88522C19.7978 9.88522 20.0345 9.83218 20.2385 9.7261C20.4425 9.61186 20.6587 9.49354 20.8872 9.37114C21.1238 9.24058 21.3972 9.12226 21.7073 9.01618C22.0173 8.90194 22.4049 8.84482 22.8701 8.84482C23.4984 8.84482 23.9798 9.0325 24.3144 9.40786C24.6489 9.77506 24.8162 10.3544 24.8162 11.1459V11.7947C23.3719 11.8273 22.1683 11.9701 21.2054 12.2231C20.2507 12.4679 19.4837 12.782 18.9043 13.1655C18.3331 13.5409 17.9292 13.9611 17.6925 14.4263C17.4559 14.8914 17.3376 15.3565 17.3376 15.8216C17.3376 16.3846 17.4273 16.8824 17.6069 17.3149C17.7864 17.7474 18.0393 18.1105 18.3657 18.4042C18.7003 18.6898 19.0961 18.9061 19.553 19.053C20.01 19.1998 20.5159 19.2733 21.0708 19.2733C21.5196 19.2733 21.9235 19.2366 22.2825 19.1631C22.6497 19.0897 22.9925 18.9836 23.3107 18.8449C23.6289 18.698 23.9349 18.5185 24.2287 18.3063C24.5306 18.0942 24.8407 17.8494 25.1589 17.5719L25.4282 18.3798C25.5343 18.6654 25.6689 18.853 25.8321 18.9428C26.0035 19.0326 26.2483 19.0774 26.5665 19.0774H28.1088V11.1459C28.1088 10.4279 27.9986 9.7669 27.7783 9.16306C27.558 8.55922 27.2397 8.04106 26.8236 7.60858C26.4156 7.16794 25.9137 6.82523 25.3181 6.58043C24.7305 6.33563 24.0614 6.21323 23.3107 6.21323C22.2662 6.21323 21.2952 6.38051 20.3976 6.71507ZM22.7037 16.7912C21.4332 17.2536 20.169 16.9848 19.88 16.1907C19.591 15.3967 20.3866 14.3782 21.6571 13.9158C22.9275 13.4533 24.1917 13.7222 24.4807 14.5162C24.7697 15.3103 23.9741 16.3288 22.7037 16.7912ZM39.1401 6.71507C38.2425 7.04147 37.4224 7.53922 36.6798 8.20834L37.2796 9.28546C37.3857 9.44866 37.5162 9.59146 37.6713 9.71386C37.8345 9.8281 38.0344 9.88522 38.271 9.88522C38.5403 9.88522 38.7769 9.83218 38.9809 9.7261C39.1849 9.61186 39.4012 9.49354 39.6297 9.37114C39.8663 9.24058 40.1397 9.12226 40.4497 9.01618C40.7598 8.90194 41.1474 8.84482 41.6125 8.84482C42.2409 8.84482 42.7223 9.0325 43.0569 9.40786C43.3914 9.77506 43.5587 10.3544 43.5587 11.1459V11.7947C42.1144 11.8273 40.9108 11.9701 39.9479 12.2231C38.9932 12.4679 38.2261 12.782 37.6468 13.1655C37.0756 13.5409 36.6717 13.9611 36.435 14.4263C36.1984 14.8914 36.0801 15.3565 36.0801 15.8216C36.0801 16.3846 36.1698 16.8824 36.3493 17.3149C36.5289 17.7474 36.7818 18.1105 37.1082 18.4042C37.4428 18.6898 37.8385 18.9061 38.2955 19.053C38.7525 19.1998 39.2584 19.2733 39.8133 19.2733C40.2621 19.2733 40.666 19.2366 41.025 19.1631C41.3922 19.0897 41.7349 18.9836 42.0532 18.8449C42.3714 18.698 42.6774 18.5185 42.9712 18.3063C43.2731 18.0942 43.5832 17.8494 43.9014 17.5719L44.1707 18.3798C44.2768 18.6654 44.4114 18.853 44.5746 18.9428C44.746 19.0326 44.9908 19.0774 45.309 19.0774H46.8512V11.1459C46.8512 10.4279 46.7411 9.7669 46.5208 9.16306C46.3004 8.55922 45.9822 8.04106 45.5661 7.60858C45.1581 7.16794 44.6562 6.82523 44.0605 6.58043C43.473 6.33563 42.8039 6.21323 42.0532 6.21323C41.0087 6.21323 40.0377 6.38051 39.1401 6.71507ZM38.6378 16.1921C38.9268 16.9862 40.191 17.255 41.4614 16.7926C42.7319 16.3302 43.5275 15.3116 43.2385 14.5176C42.9495 13.7236 41.6853 13.4547 40.4149 13.9171C39.1444 14.3795 38.3488 15.3981 38.6378 16.1921ZM60.6633 0.827637V19.0774H58.5825C58.15 19.0774 57.8726 18.8816 57.7502 18.4899L57.4687 17.3883C57.2157 17.6658 56.9464 17.9187 56.6608 18.1472C56.3834 18.3757 56.0815 18.5756 55.7551 18.747C55.4287 18.9102 55.0778 19.0366 54.7024 19.1264C54.3271 19.2162 53.9191 19.261 53.4784 19.261C52.8012 19.261 52.181 19.1182 51.618 18.8326C51.0549 18.547 50.5653 18.1309 50.1492 17.5842C49.7412 17.0293 49.4229 16.352 49.1944 15.5523C48.966 14.7527 48.8517 13.8387 48.8517 12.8106C48.8517 11.8722 48.9782 10.9991 49.2312 10.1912C49.4923 9.38338 49.8595 8.6857 50.3328 8.09818C50.806 7.51066 51.3772 7.04963 52.0464 6.71507C52.7155 6.38051 53.458 6.21323 54.274 6.21323C54.9595 6.21323 55.5348 6.31523 55.9999 6.51923C56.4732 6.72323 56.9016 7.00067 57.2851 7.35154V0.827637H60.6633ZM65.6521 6.71507C64.7545 7.04147 63.9344 7.53922 63.1918 8.20834L63.7916 9.28546C63.8977 9.44866 64.0282 9.59146 64.1833 9.71386C64.3465 9.8281 64.5464 9.88522 64.783 9.88522C65.0523 9.88522 65.2889 9.83218 65.4929 9.7261C65.6969 9.61186 65.9132 9.49354 66.1417 9.37114C66.3783 9.24058 66.6517 9.12226 66.9617 9.01618C67.2718 8.90194 67.6594 8.84482 68.1245 8.84482C68.7529 8.84482 69.2343 9.0325 69.5689 9.40786C69.9034 9.77506 70.0707 10.3544 70.0707 11.1459V11.7947C68.6264 11.8273 67.4228 11.9701 66.4599 12.2231C65.5052 12.4679 64.7381 12.782 64.1588 13.1655C63.5876 13.5409 63.1837 13.9611 62.947 14.4263C62.7104 14.8914 62.5921 15.3565 62.5921 15.8216C62.5921 16.3846 62.6818 16.8824 62.8613 17.3149C63.0409 17.7474 63.2938 18.1105 63.6202 18.4042C63.9548 18.6898 64.3505 18.9061 64.8075 19.053C65.2645 19.1998 65.7704 19.2733 66.3253 19.2733C66.7741 19.2733 67.178 19.2366 67.537 19.1631C67.9042 19.0897 68.2469 18.9836 68.5652 18.8449C68.8834 18.698 69.1894 18.5185 69.4832 18.3063C69.7851 18.0942 70.0952 17.8494 70.4134 17.5719L70.6827 18.3798C70.7888 18.6654 70.9234 18.853 71.0866 18.9428C71.258 19.0326 71.5028 19.0774 71.821 19.0774H73.3633V11.1459C73.3633 10.4279 73.2531 9.7669 73.0328 9.16306C72.8125 8.55922 72.4942 8.04106 72.0781 7.60858C71.6701 7.16794 71.1682 6.82523 70.5725 6.58043C69.985 6.33563 69.3159 6.21323 68.5652 6.21323C67.5207 6.21323 66.5497 6.38051 65.6521 6.71507ZM65.1374 16.1921C65.4264 16.9862 66.6906 17.255 67.961 16.7926C69.2315 16.3302 70.0271 15.3116 69.7381 14.5176C69.4491 13.7236 68.1849 13.4547 66.9144 13.9171C65.644 14.3795 64.8484 15.3981 65.1374 16.1921ZM79.1336 7.92682C79.3866 7.68202 79.6477 7.45762 79.917 7.25363C80.1944 7.04963 80.4841 6.87419 80.786 6.72731C81.0961 6.58043 81.4266 6.46619 81.7775 6.38459C82.1365 6.30299 82.5241 6.26219 82.9403 6.26219C83.6257 6.26219 84.2336 6.38051 84.764 6.61715C85.2944 6.85379 85.7392 7.18427 86.0982 7.60858C86.4654 8.0329 86.7388 8.53882 86.9183 9.12634C87.106 9.71386 87.1998 10.3585 87.1998 11.0603V19.0774H83.8338V11.0603C83.8338 10.3585 83.6706 9.81586 83.3442 9.43234C83.0178 9.04066 82.5364 8.84482 81.8999 8.84482C81.4266 8.84482 80.9819 8.94682 80.5657 9.15082C80.1496 9.35482 79.7538 9.64042 79.3784 10.0076V19.0774H76.0002V6.45803H78.081C78.5053 6.45803 78.7868 6.65387 78.9256 7.04555L79.1336 7.92682ZM54.2623 16.0368C55.7494 16.0368 56.9551 14.5297 56.9551 12.6708C56.9551 10.8118 55.7494 9.30477 54.2623 9.30477C52.7751 9.30477 51.5695 10.8118 51.5695 12.6708C51.5695 14.5297 52.7751 16.0368 54.2623 16.0368Z" fill="#25B679"/>
</svg>
